<svg xmlns="http://www.w3.org/2000/svg" width="705.112" height="421.84" viewBox="0 0 705.112 421.84">
    <defs>
        <style>
            .cls-1{fill:#d3d4e9}.cls-2{fill:#b5b7d6}.cls-3{fill:#14365b}.cls-4{fill:#5987e4}.cls-5{fill:#3a6cd6}.cls-6{fill:#e3e4f2}.cls-7{fill:#fff}.cls-8{fill:#184bb8}.cls-9{fill:#e5baab}.cls-10{fill:#e4b26d}.cls-11{fill:#d78776}
        </style>
    </defs>
    <g id="_3" data-name="3" transform="translate(.007)">
        <g id="Background_2" data-name="Background 2" transform="translate(632.302 241.966)">
            <path id="Path_1457" d="M646.312 375.919a22.871 22.871 0 0 1 14.174-1.72c2.574.427 5.257 1.22 7 3.123s2.086 5.33.073 6.989a6.746 6.746 0 0 1-4.416 1.122c-3.745 0-7.9-.707-10.892 1.549-1.708 1.22-2.842 3.428-4.879 4.062a4.879 4.879 0 0 1-5.306-2.366 8.209 8.209 0 0 1-.6-6.1 9.283 9.283 0 0 1 4.846-6.659z" class="cls-1" data-name="Path 1457" transform="translate(-598.807 -317.752)"/>
            <path id="Path_1458" d="M637.734 366.945c2.635 3.769 7.758 2.525 10.124.22s3.379-5.623 4.294-8.807c2.1-7.245 4.2-14.857 2.647-22.248a12.368 12.368 0 0 0-2.842-6.1 6.416 6.416 0 0 0-6.1-2.037c-2.586.683-4.184 3.208-5.355 5.611a53.133 53.133 0 0 0-5.233 22.773c0 3.659.415 7.514 2.44 10.539" class="cls-1" data-name="Path 1458" transform="translate(-600.097 -327.842)"/>
            <path id="Path_1459" d="M636.825 370.161a13.7 13.7 0 0 0 2.135-12.6 24.211 24.211 0 0 0-7.465-10.831 40.252 40.252 0 0 0-13.417-7.892 14.223 14.223 0 0 0-6.013-1.025 6.33 6.33 0 0 0-5.05 3.062c-1.4 2.683 0 5.928 1.4 8.538a101.405 101.405 0 0 0 8.785 13.417c2.635 3.4 5.647 6.745 9.66 8.282s8.172 1.354 10.307-1.427" class="cls-1" data-name="Path 1459" transform="translate(-606.434 -325.655)"/>
            <path id="Path_1460" d="M637.154 412.7a8.149 8.149 0 0 0 .244-1.72c.122-1.22.268-2.805.451-4.659a67.409 67.409 0 0 1 1.049-6.855 53.013 53.013 0 0 1 2.44-8.075 30.045 30.045 0 0 1 4.123-7.318 15.384 15.384 0 0 1 5.221-4.33 14.641 14.641 0 0 1 4.391-1.378 8.115 8.115 0 0 0 1.708-.244 8.631 8.631 0 0 0-1.732 0 13.235 13.235 0 0 0-4.586 1.22 15.368 15.368 0 0 0-5.5 4.379 29.157 29.157 0 0 0-4.281 7.453 49.124 49.124 0 0 0-2.439 8.209 57.761 57.761 0 0 0-.915 6.94 92.42 92.42 0 0 0-.232 4.7 8.078 8.078 0 0 0 .058 1.678z" class="cls-2" data-name="Path 1460" transform="translate(-599.7 -316.804)"/>
            <path id="Path_1461" d="M637.473 417.412a2.828 2.828 0 0 0 0-.793v-2.269c0-1.976 0-4.818.1-8.343.171-7.038.781-16.759 1.952-27.432s2.744-20.3 4.172-27.2c.329-1.72.671-3.281.988-4.635s.561-2.549.817-3.5.39-1.622.524-2.208a3.02 3.02 0 0 0 .146-.781 2.9 2.9 0 0 0-.281.744l-.659 2.171c-.293.951-.585 2.122-.927 3.476s-.732 2.9-1.1 4.635a255.076 255.076 0 0 0-4.391 27.213 267.6 267.6 0 0 0-1.744 27.505c0 3.537 0 6.392.122 8.367 0 .915.11 1.671.146 2.257a3.65 3.65 0 0 0 .134.793z" class="cls-2" data-name="Path 1461" transform="translate(-599.701 -325.116)"/>
            <path id="Path_1462" d="M641.967 397.58a14.065 14.065 0 0 0 0-2.366 62.506 62.506 0 0 0-.732-6.428 88.6 88.6 0 0 0-6-20.431 58.781 58.781 0 0 0-11.49-17.894 28.876 28.876 0 0 0-2.708-2.513c-.415-.354-.781-.707-1.147-.988s-.732-.488-1.049-.72a16.14 16.14 0 0 0-2-1.281 71.115 71.115 0 0 1 6.538 5.843 61.951 61.951 0 0 1 11.21 17.833 87.714 87.714 0 0 1 3.94 10.978 95.3 95.3 0 0 1 2.22 9.27c.512 2.659.768 4.879.939 6.355a16.129 16.129 0 0 0 .279 2.342z" class="cls-2" data-name="Path 1462" transform="translate(-604.147 -324.081)"/>
        </g>
        <g id="Objects" transform="translate(-.007)">
            <rect id="Rectangle_56" width="490.39" height="324.284" class="cls-3" data-name="Rectangle 56" rx="14.57" transform="translate(104.883 7.026)"/>
            <path id="Path_1463" d="M69.16 252h531.3v6.672a21.712 21.712 0 0 1-21.712 21.712H90.92a21.712 21.712 0 0 1-21.712-21.712V252z" class="cls-3" data-name="Path 1463" transform="translate(15.207 55.378)"/>
            <path id="Rectangle_57" d="M0 0h462.69v273.859H0z" class="cls-4" data-name="Rectangle 57" transform="translate(118.044 19.906)"/>
            <path id="Path_1464" d="M247.36 251.95l6.6 10.49h92.762l6.123-10.49z" class="cls-5" data-name="Path 1464" transform="translate(54.367 55.367)"/>
            <rect id="Rectangle_58" width="444.576" height="263.711" class="cls-6" data-name="Rectangle 58" rx="3.27" transform="translate(127.57 29.177)"/>
            <path id="Rectangle_59" d="M0 0h444.576v244.39H0z" class="cls-7" data-name="Rectangle 59" transform="translate(127.57 48.497)"/>
            <path id="Path_1465" d="M223.8 162.382a3.55 3.55 0 1 1-1.035-2.518 3.55 3.55 0 0 1 1.035 2.518z" class="cls-4" data-name="Path 1465" transform="translate(-59.77 -123.02)"/>
            <path id="Path_1466" d="M206.159 162.382a3.549 3.549 0 1 1-1.035-2.518 3.549 3.549 0 0 1 1.035 2.518z" class="cls-4" data-name="Path 1466" transform="translate(-63.647 -123.02)"/>
            <path id="Path_1467" d="M214.629 162.382a3.55 3.55 0 1 1-1.035-2.518 3.55 3.55 0 0 1 1.035 2.518z" class="cls-4" data-name="Path 1467" transform="translate(-61.785 -123.02)"/>
            <path id="Path_1470" d="M463.243 239.128c-.061 0-.061-.5-.3-1.366a5.66 5.66 0 0 0-2.1-2.988 5.44 5.44 0 1 0-5.16 9.453 5.538 5.538 0 0 0 5.172-.732 5.709 5.709 0 0 0 2.086-3c.244-.854.244-1.366.3-1.366a1.051 1.051 0 0 1 0 .378 3.584 3.584 0 0 1-.1 1.049 5.721 5.721 0 0 1-2.061 3.293 5.975 5.975 0 1 1 0-9.441 5.758 5.758 0 0 1 2.061 3.293 3.657 3.657 0 0 1 .1 1.061.951.951 0 0 1 .002.366z" class="cls-7" data-name="Path 1470" transform="translate(-8.181 -106.687)"/>
            <path id="Path_1471" d="M469.016 246.952a24.224 24.224 0 0 1-4.635-2.732A23.173 23.173 0 0 1 460.1 241a44.338 44.338 0 0 1 8.916 5.989z" class="cls-7" data-name="Path 1471" transform="translate(-6.282 -104.961)"/>
            <path id="Rectangle_60" d="M0 0h72.075v69.733H0z" class="cls-4" data-name="Rectangle 60" transform="translate(206.745 202.089)"/>
            <path id="Rectangle_63" d="M0 0h72.075v69.733H0z" class="cls-4" data-name="Rectangle 63" transform="translate(208.745 86.089)"/>
            <path id="Rectangle_64" d="M0 0h72.075v69.733H0z" class="cls-4" data-name="Rectangle 64" transform="translate(321.745 86.089)"/>
            <path id="Rectangle_65" d="M0 0h72.075v69.733H0z" class="cls-4" data-name="Rectangle 65" transform="translate(434.745 86.089)"/>
            <path id="Path_1473" d="M174.07 224.415L194 188.53l16.308 22.944 9.917-12.185 14.735 25.127z" class="cls-8" data-name="Path 1473" transform="translate(38.261 41.43)"/>
            <path id="Path_1594" d="M174.07 224.415L194 188.53l16.308 22.944 9.917-12.185 14.735 25.127z" class="cls-8" data-name="Path 1594" transform="translate(40.261 -80.57)"/>
            <path id="Path_1596" d="M174.07 224.415L194 188.53l16.308 22.944 9.917-12.185 14.735 25.127z" class="cls-8" data-name="Path 1596" transform="translate(153.261 -85.57)"/>
            <path id="Path_1598" d="M174.07 224.415L194 188.53l16.308 22.944 9.917-12.185 14.735 25.127z" class="cls-8" data-name="Path 1598" transform="translate(266.261 -78.57)"/>
            <path id="Path_1474" d="M299.4 313.214a5.2 5.2 0 1 1-5.184-5.184 5.2 5.2 0 0 1 5.184 5.184z" class="cls-8" data-name="Path 1474" transform="translate(-43.88 -90.231)"/>
            <path id="Path_1595" d="M299.4 313.214a5.2 5.2 0 1 1-5.184-5.184 5.2 5.2 0 0 1 5.184 5.184z" class="cls-8" data-name="Path 1595" transform="translate(-25.88 -212.231)"/>
            <path id="Path_1597" d="M299.4 313.214a5.2 5.2 0 1 1-5.184-5.184 5.2 5.2 0 0 1 5.184 5.184z" class="cls-8" data-name="Path 1597" transform="translate(87.12 -212.231)"/>
            <path id="Path_1599" d="M299.4 313.214a5.2 5.2 0 1 1-5.184-5.184 5.2 5.2 0 0 1 5.184 5.184z" class="cls-8" data-name="Path 1599" transform="translate(196.12 -212.231)"/>
            <path id="Path_1475" d="M323.019 358.123v-4.245c0-2.757 0-6.757-.085-11.832 0-10.185-.085-24.7-.146-42.106l.293.293H262.19c-.085.073.646-.646.342-.329v58.17l-.293-.3 44.021.159 12.429.073h.122l-12.356.085-44.216.146h-.3v-58.272c-.3.293.427-.439.354-.354h61.2v.293c-.073 17.491-.122 32.055-.159 42.289 0 5.05-.061 9.026-.073 11.771v3.867a1.038 1.038 0 0 1-.242.292z" class="cls-8" data-name="Path 1475" transform="translate(-49.846 -92.082)"/>
            <path id="Rectangle_61" d="M0 0h72.075v69.733H0z" class="cls-4" data-name="Rectangle 61" transform="translate(321.462 202.089)"/>
            <path id="Path_1476" d="M268.12 224.415l19.943-35.885 16.308 22.944 9.9-12.185 14.747 25.127z" class="cls-8" data-name="Path 1476" transform="translate(58.929 41.43)"/>
            <path id="Path_1477" d="M393.448 313.214a5.184 5.184 0 1 1-5.184-5.184 5.184 5.184 0 0 1 5.184 5.184z" class="cls-8" data-name="Path 1477" transform="translate(-23.207 -90.231)"/>
            <path id="Path_1478" d="M417.119 358.123v-4.245c0-2.757 0-6.757-.073-11.832 0-10.185-.085-24.7-.146-42.106l.293.293H356.3l.329-.329v58.158l-.3-.3 44.033.159 12.417.073h.122l-12.344.085-44.228.146h-.293v-58.26c-.3.293.415-.439.354-.354h61.18v.293c0 17.491-.11 32.055-.146 42.289 0 5.05-.061 9.026-.085 11.771v3.867a2.022 2.022 0 0 1-.219.293z" class="cls-8" data-name="Path 1478" transform="translate(-29.168 -92.082)"/>
            <path id="Rectangle_62" d="M0 0h72.075v69.733H0z" class="cls-4" data-name="Rectangle 62" transform="translate(436.193 202.089)"/>
            <path id="Path_1479" d="M362.18 224.415l19.931-35.885 16.308 22.944 9.917-12.185 14.747 25.127z" class="cls-8" data-name="Path 1479" transform="translate(79.599 41.43)"/>
            <path id="Path_1480" d="M487.512 313.214a5.2 5.2 0 1 1-5.184-5.184 5.2 5.2 0 0 1 5.184 5.184z" class="cls-8" data-name="Path 1480" transform="translate(-2.542 -90.231)"/>
            <path id="Path_1481" d="M511.2 358.123a1.651 1.651 0 0 1 0-.293v-3.952c0-2.757 0-6.757-.073-11.832 0-10.185-.1-24.7-.159-42.106l.3.293h-60.9c-.073.073.646-.646.342-.329v58.158l-.293-.3 44.033.159 12.417.073h.122l-12.356.085-44.216.146h-.4v-58.26c-.3.293.415-.439.342-.354h61.2v.293c0 17.491-.122 32.055-.159 42.289 0 5.05 0 9.026-.073 11.771v3.867a.386.386 0 0 1-.127.292z" class="cls-8" data-name="Path 1481" transform="translate(-8.515 -92.082)"/>
            <path id="Path_1482" d="M660.2 381.477c0 .183-108.851.317-243.085.317s-243.1-.134-243.1-.317 108.827-.317 243.1-.317 243.085.146 243.085.317z" class="cls-8" data-name="Path 1482" transform="translate(-69.149 -74.16)"/>
            <path id="Path_1483" d="M119.847 271.956c-6.9 1.122-9.99 9.612-9.392 16.576s3.476 13.8 2.708 20.736c-.976 8.831-7.648 16.3-8.429 25.151-.915 10.441 6.465 19.7 8.672 29.945 1.073 4.989.915 10.258 2.769 15a18.76 18.76 0 0 0 36.239-6.465c.146-8.014-4.794-15.564-4.2-23.566.439-5.9 3.9-11.514 3.171-17.394-.89-6.989-7.319-11.954-9.66-18.626s-.085-14.027-.878-21.041c-1.415-12.576-8.392-21.333-21-20.333" class="cls-4" data-name="Path 1483" transform="translate(-84.392 -98.178)"/>
            <path id="Path_1484" d="M88.222 321.869C87 333.517 92.2 347.227 98.188 357.242a55.523 55.523 0 0 0 26.078 22.639c1.22.512 2.744.939 3.769.11a3.781 3.781 0 0 0 .951-2.988 57.206 57.206 0 0 0-40.764-55.183" class="cls-5" data-name="Path 1484" transform="translate(-88.043 -87.2)"/>
            <path id="Path_1485" d="M136.261 400.481a2.867 2.867 0 0 1-.329-.646l-.842-1.915c-.7-1.659-1.744-4.05-3.074-6.989a246.524 246.524 0 0 0-11.563-22.395 250.045 250.045 0 0 0-13.844-21.029c-1.9-2.61-3.476-4.7-4.586-6.1l-1.22-1.659a2.817 2.817 0 0 1-.4-.61 3 3 0 0 1 .512.524l1.354 1.586c1.159 1.378 2.793 3.427 4.757 6a214.491 214.491 0 0 1 13.991 20.992 213.035 213.035 0 0 1 11.429 22.541c1.22 2.976 2.269 5.391 2.891 7.1.293.793.524 1.439.72 1.952a2.7 2.7 0 0 1 .204.648z" class="cls-8" data-name="Path 1485" transform="translate(-85.328 -83.394)"/>
            <path id="Path_1486" d="M123.665 298.37a7.608 7.608 0 0 1 .122 1.122c0 .793.134 1.854.232 3.208.183 2.842.439 6.867.768 11.807.622 9.965 1.512 23.736 2.574 38.935s2.122 28.969 2.9 38.935c.378 4.879.683 8.941.9 11.8.085 1.342.159 2.44.22 3.208a7.1 7.1 0 0 1 0 1.122 7.4 7.4 0 0 1-.159-1.11c-.085-.793-.2-1.854-.342-3.2l-1.11-11.783c-.9-9.953-2.025-23.712-3.1-38.922s-1.878-28.981-2.44-38.959c-.232-4.94-.415-8.965-.549-11.819q-.073-2.037-.11-3.22a7.185 7.185 0 0 1 .085-1.122z" class="cls-5" data-name="Path 1486" transform="translate(-80.234 -92.353)"/>
            <path id="Path_1487" d="M114.86 375.81h29.177v21.419a14 14 0 0 1-14 14A14.014 14.014 0 0 1 116.043 398z" class="cls-4" data-name="Path 1487" transform="translate(-82.15 -75.336)"/>
            <path id="Path_1488" d="M588.934 61.06l-68.9 1.415 1.854 89.847 68.941.3z" class="cls-4" data-name="Path 1488" transform="translate(114.287 13.418)"/>
            <path id="Path_1489" d="M583.722 63.75l-60.292 1.244 1.683 81.492 60.329.793z" class="cls-7" data-name="Path 1489" transform="translate(115.035 14.009)"/>
            <path id="Path_1490" d="M571.662 76.2l-40.032-.7 1.171 56.95 40.008-.817z" class="cls-5" data-name="Path 1490" transform="translate(116.837 16.591)"/>
            <path id="Path_1491" d="M532.8 132.45l39.41-30.079L531.63 75.5z" class="cls-4" data-name="Path 1491" transform="translate(116.837 16.591)"/>
            <path id="Path_1492" d="M565.814 0L518.5.976l1.281 61.7 47.326.207z" class="cls-4" data-name="Path 1492" transform="translate(113.951)"/>
            <path id="Path_1493" d="M562.239 1.85l-41.4.854 1.147 55.95 41.435.549z" class="cls-7" data-name="Path 1493" transform="translate(114.465 .407)"/>
            <path id="Path_1494" d="M553.953 10.4l-27.493-.48.8 39.105 27.481-.561z" class="cls-8" data-name="Path 1494" transform="translate(115.7 2.18)"/>
            <path id="Path_1495" d="M631.463 156.428a7.527 7.527 0 0 0 .317-1.22 5.147 5.147 0 0 0-.464-3.306 4.964 4.964 0 1 0-3.659 7.1 5.22 5.22 0 0 0 3.037-1.6c.561-.6.768-1.012.817-.988a2.6 2.6 0 0 1-.634 1.147 5.172 5.172 0 0 1-3.062 1.842 5.428 5.428 0 0 1-5.013-1.6 5.513 5.513 0 0 1 4.733-9.258 5.44 5.44 0 0 1 4.232 3.123 5.232 5.232 0 0 1 .3 3.562 2.84 2.84 0 0 1-.604 1.198z" class="cls-4" data-name="Path 1495" transform="translate(29.14 -125.288)"/>
            <path id="Path_1496" d="M632.384 165.549a19.113 19.113 0 0 1-2.684-4.149 19.2 19.2 0 0 1-2.11-4.452 19.917 19.917 0 0 1 2.671 4.147 20.244 20.244 0 0 1 2.122 4.452z" class="cls-4" data-name="Path 1496" transform="translate(30.525 -123.431)"/>
            <path id="Path_1497" d="M789.814 404.737c0 .183-154.323.317-344.654.317s-344.691-.134-344.691-.317 154.3-.317 344.691-.317 344.654.146 344.654.317z" class="cls-5" data-name="Path 1497" transform="translate(-85.312 -69.048)"/>
            <path id="Path_1498" d="M501.35 282.288s1.086-11.575 2.183-11.478 1.281 2.147 1.147 3.147 0 4.879 0 4.879z" class="cls-9" data-name="Path 1498" transform="translate(2.783 -98.41)"/>
            <path id="Path_1499" d="M591.911 276.714l-5.55 39.032 25.615 111.9-70.746 5.66L571.724 253.1s20.126-2.282 20.187 23.614z" class="cls-8" data-name="Path 1499" transform="translate(11.547 -102.313)"/>
            <path id="Path_1500" d="M424.156 304.47l-4.086 46.18h17.455l7.7-46.18z" class="cls-9" data-name="Path 1500" transform="translate(92.321 66.909)"/>
            <path id="Path_1501" d="M510.621 471.8s-11.783 1.525-13.881 3.037l30.872-.366.464-2.671z" class="cls-9" data-name="Path 1501" transform="translate(1.77 -54.241)"/>
            <path id="Path_1502" d="M408.69 344.909v1.232l31.787-.342v-1.33z" class="cls-4" data-name="Path 1502" transform="translate(89.82 75.699)"/>
            <path id="Path_1503" d="M506.673 475.4c-.171.073-.671-.878-1.7-1.622s-2.061-.976-2.037-1.147 1.22-.22 2.44.659a2.588 2.588 0 0 1 1.297 2.11z" class="cls-4" data-name="Path 1503" transform="translate(3.132 -54.081)"/>
            <path id="Path_1504" d="M524.342 471.05c0 .171-2.122.6-4.537 1.744s-4.123 2.44-4.245 2.354a10.051 10.051 0 0 1 3.989-2.915 9.758 9.758 0 0 1 4.793-1.183z" class="cls-4" data-name="Path 1504" transform="translate(5.906 -54.406)"/>
            <path id="Path_1505" d="M525.26 470.6a118.57 118.57 0 0 1-17.15-.866 60.081 60.081 0 0 1 8.538.134 59.261 59.261 0 0 1 8.612.732z" class="cls-4" data-name="Path 1505" transform="translate(4.268 -54.715)"/>
            <path id="Path_1506" d="M527.276 465.45a73.466 73.466 0 0 1-9.453 2.037 77.431 77.431 0 0 1-9.563 1.439 77.305 77.305 0 0 1 9.453-2.037 78.135 78.135 0 0 1 9.563-1.439z" class="cls-4" data-name="Path 1506" transform="translate(4.301 -55.637)"/>
            <path id="Path_1507" d="M524.758 466.515a5.233 5.233 0 0 1-2.305-.5 11.563 11.563 0 0 1-2.293-1.22 10.137 10.137 0 0 1-1.22-.939 1.964 1.964 0 0 1-.537-.756 1.22 1.22 0 0 1 .1-1.049 1.037 1.037 0 0 1 .988-.439 3.211 3.211 0 0 1 .854.244 6.589 6.589 0 0 1 1.354.756 6.832 6.832 0 0 1 1.805 1.878 3.976 3.976 0 0 1 .817 2.22 16.988 16.988 0 0 0-1.22-1.976 7.074 7.074 0 0 0-1.769-1.659 5.939 5.939 0 0 0-1.22-.659c-.451-.207-.964-.293-1.1 0a.866.866 0 0 0 .342 1.037 12.76 12.76 0 0 0 1.11.927 14.647 14.647 0 0 0 2.135 1.22c1.301.61 2.172.817 2.159.915z" class="cls-4" data-name="Path 1507" transform="translate(6.514 -56.482)"/>
            <path id="Path_1508" d="M523.554 467.288a3.806 3.806 0 0 1-.439-2.281 7.317 7.317 0 0 1 .537-2.44 6.492 6.492 0 0 1 .732-1.33 6.239 6.239 0 0 1 .512-.646 1.22 1.22 0 0 1 .915-.451 1.037 1.037 0 0 1 .878.6 1.793 1.793 0 0 1 .171.9 6.654 6.654 0 0 1-.244 1.512 6.488 6.488 0 0 1-1.22 2.269 3.793 3.793 0 0 1-1.83 1.427 14.1 14.1 0 0 0 1.476-1.683 6.685 6.685 0 0 0 .976-2.159 5.7 5.7 0 0 0 .2-1.378c0-.464-.183-.878-.464-.878s-.647.464-.927.829a7.261 7.261 0 0 0-.707 1.22 7.681 7.681 0 0 0-.622 2.305c-.09 1.269.154 2.184.056 2.184z" class="cls-4" data-name="Path 1508" transform="translate(7.56 -56.804)"/>
            <path id="Path_1509" d="M525.818 473.22a9.429 9.429 0 0 1-1.7-3.513 9.3 9.3 0 0 1-.671-3.927 21.321 21.321 0 0 1 1.22 3.732 22.8 22.8 0 0 1 1.151 3.708z" class="cls-4" data-name="Path 1509" transform="translate(7.638 -55.564)"/>
            <path id="Path_1510" d="M528 471.69a11.332 11.332 0 0 1-4.989-6.379c.171-.085 1.012 1.525 2.44 3.269s2.658 2.964 2.549 3.11z" class="cls-4" data-name="Path 1510" transform="translate(7.543 -55.668)"/>
            <path id="Path_1511" d="M476.83 310.986l35.763 28.347 8.514-12.441-31.982-34.812z" class="cls-9" data-name="Path 1511" transform="translate(104.794 64.186)"/>
            <path id="Path_1512" d="M593.112 463.428s-5.5 10.526-5.452 13.125l17.369-25.517-1.915-1.915z" class="cls-9" data-name="Path 1512" transform="translate(21.75 -59.225)"/>
            <path id="Path_1513" d="M499.61 346.88l1.012.707 17.918-26.249-1.086-.768z" class="cls-4" data-name="Path 1513" transform="translate(109.8 70.447)"/>
            <path id="Path_1514" d="M594.206 464.449c0 .171-1.1 0-2.293.464s-1.976 1.122-2.11 1.012.537-1.134 1.915-1.6 2.562-.025 2.488.124z" class="cls-4" data-name="Path 1514" transform="translate(22.217 -55.929)"/>
            <path id="Path_1515" d="M600.241 448.42c.171.073-.72 2.086-1.159 4.72s-.317 4.806-.5 4.879a12.942 12.942 0 0 1 1.659-9.551z" class="cls-4" data-name="Path 1515" transform="translate(24.087 -59.379)"/>
            <path id="Path_1516" d="M600.811 447.87a49.7 49.7 0 0 1-4.525 6.331 51.224 51.224 0 0 1-5.025 5.977 49.208 49.208 0 0 1 4.537-6.343 48.561 48.561 0 0 1 5.013-5.965z" class="cls-4" data-name="Path 1516" transform="translate(22.541 -59.5)"/>
            <path id="Path_1517" d="M597.221 444.32a61.611 61.611 0 0 1-3.281 7.892 58.946 58.946 0 0 1-3.83 7.623 61.9 61.9 0 0 1 3.281-7.88 57.833 57.833 0 0 1 3.83-7.636z" class="cls-4" data-name="Path 1517" transform="translate(22.288 -60.28)"/>
            <path id="Path_1518" d="M597.24 444.648a5.7 5.7 0 0 1-1.732 1.61 10.973 10.973 0 0 1-2.281 1.22 9.755 9.755 0 0 1-1.464.463 2.159 2.159 0 0 1-.927 0 1.22 1.22 0 0 1-.805-.683 1.049 1.049 0 0 1 .207-1.061 3.074 3.074 0 0 1 .683-.561 7.014 7.014 0 0 1 3.977-1.086 3.854 3.854 0 0 1 2.281.61c0 .1-.878-.22-2.281-.171a7 7 0 0 0-3.659 1.147c-.427.256-.793.634-.659.891a.866.866 0 0 0 1.049.317 12.183 12.183 0 0 0 1.391-.39 14.642 14.642 0 0 0 2.257-1.025c1.231-.756 1.902-1.354 1.963-1.281z" class="cls-4" data-name="Path 1518" transform="translate(22.257 -60.231)"/>
            <path id="Path_1519" d="M597.006 446.077a3.83 3.83 0 0 1-2.122-.951 6.989 6.989 0 0 1-1.732-1.866 6.474 6.474 0 0 1-.671-1.366 4.877 4.877 0 0 1-.232-.781 1.22 1.22 0 0 1 .146-1.012 1.074 1.074 0 0 1 1-.378 1.866 1.866 0 0 1 .829.378 6.562 6.562 0 0 1 1.1 1.073 6.464 6.464 0 0 1 1.22 2.257 3.83 3.83 0 0 1 .122 2.318 22.352 22.352 0 0 0-.537-2.171 6.866 6.866 0 0 0-1.22-2.049 6.789 6.789 0 0 0-1.012-.939c-.354-.293-.829-.354-1-.122s0 .793.159 1.22a6.722 6.722 0 0 0 .586 1.22 7.611 7.611 0 0 0 1.537 1.83 19.3 19.3 0 0 0 1.827 1.339z" class="cls-4" data-name="Path 1519" transform="translate(22.747 -61.294)"/>
            <path id="Path_1520" d="M603.459 447.155a9.367 9.367 0 0 1-3.94-.61 9.478 9.478 0 0 1-3.659-1.7q3.8 1.064 7.55 2.305z" class="cls-4" data-name="Path 1520" transform="translate(23.552 -60.164)"/>
            <path id="Path_1521" d="M603.457 444.578a8.21 8.21 0 0 1-4 .964 8.026 8.026 0 0 1-4.087-.542c0-.171 1.842 0 4.05-.073s3.939-.532 4.037-.349z" class="cls-4" data-name="Path 1521" transform="translate(23.444 -60.233)"/>
            <path id="Path_1522" d="M538.759 324.136s-13.661 90.738-11.673 95.141 46.214 49.681 46.214 49.681l16.6-28.432s-29.274-32.433-28.847-34.153 21.1-89.542 21.1-89.542z" class="cls-4" data-name="Path 1522" transform="translate(8.395 -88.297)"/>
            <path id="Path_1523" d="M539.2 424.677l11.661-25.615 13.417-28.762a212.8 212.8 0 0 0-20.736 37.6 65.329 65.329 0 0 0-4.342 16.772z" class="cls-5" data-name="Path 1523" transform="translate(11.101 -76.546)"/>
            <path id="Path_1524" d="M532.64 356.312c.134-.964 11.149-25.737 11.149-25.737l-5.355-7.538-.939-.207z" class="cls-5" data-name="Path 1524" transform="translate(9.659 -86.978)"/>
            <path id="Path_1525" d="M594.025 315.82l.817 3.367a39.606 39.606 0 0 1-4.159 29.274l-37.032 64.2a51.364 51.364 0 0 0-5.672 14.637l-9.221 41.472s-29.116.988-30.372 0 3.757-28.445 7.1-49.241c2.525-15.686 23.5-64.366 33.677-87.359l-6.294-7.758 10.978-1.817z" class="cls-4" data-name="Path 1525" transform="translate(4.286 -88.519)"/>
            <path id="Path_1526" d="M538.779 441.184a5.021 5.021 0 0 1-1.22.2c-.781.085-1.891.183-3.281.268-2.769.183-6.611.317-10.844.3s-8.075-.134-10.844-.281a82.281 82.281 0 0 1-3.281-.2 4.028 4.028 0 0 1-1.22-.159 5.255 5.255 0 0 1 1.22-.073h3.281l10.831.1c4.232 0 8.05-.061 10.819-.122l3.293-.085a4.121 4.121 0 0 1 1.246.052z" class="cls-8" data-name="Path 1526" transform="translate(4.264 -60.986)"/>
            <path id="Path_1527" d="M540.192 434.846c0 .171-7 .281-15.625.244s-15.637-.2-15.637-.354 7-.281 15.637-.256 15.625.196 15.625.366z" class="cls-8" data-name="Path 1527" transform="translate(4.449 -62.443)"/>
            <path id="Path_1528" d="M577.573 413.42a5.065 5.065 0 0 1-.622 1.147l-1.891 3-6.27 9.868-6.245 9.88-1.915 2.988a5.075 5.075 0 0 1-.781 1.049 5.6 5.6 0 0 1 .573-1.22c.4-.732 1-1.793 1.744-3.086 1.512-2.586 3.659-6.1 6.1-9.99s4.745-7.319 6.44-9.758c.854-1.22 1.549-2.22 2.049-2.9a5.139 5.139 0 0 1 .817-.976z" class="cls-8" data-name="Path 1528" transform="translate(15.639 -67.071)"/>
            <path id="Path_1529" d="M563.914 440.944a13.9 13.9 0 0 1-1.415-3.818 13.416 13.416 0 0 1-.829-3.976 13.905 13.905 0 0 1 1.415 3.806 13.7 13.7 0 0 1 .829 3.989z" class="cls-8" data-name="Path 1529" transform="translate(16.039 -62.735)"/>
            <path id="Path_1530" d="M566.015 441.791a35.024 35.024 0 0 1-1.378-6.391 34.521 34.521 0 0 1-.756-6.489 70.531 70.531 0 0 1 2.134 12.88z" class="cls-8" data-name="Path 1530" transform="translate(16.524 -63.667)"/>
            <path id="Path_1531" d="M568.894 437.542a38 38 0 0 1-1.525-5.574 33.861 33.861 0 0 1-1.22-5.648 23.173 23.173 0 0 1 1.805 5.5 22.059 22.059 0 0 1 .939 5.721z" class="cls-8" data-name="Path 1531" transform="translate(17.023 -64.236)"/>
            <path id="Path_1532" d="M571.149 432.012a24.653 24.653 0 0 1-1.378-5.379 25.078 25.078 0 0 1-.781-5.513 26.614 26.614 0 0 1 1.378 5.391 25.83 25.83 0 0 1 .781 5.501z" class="cls-8" data-name="Path 1532" transform="translate(17.647 -65.379)"/>
            <path id="Path_1533" d="M574.265 427.443a42.184 42.184 0 0 1-1.305-5.318 40.255 40.255 0 0 1-1.22-5.355 18.3 18.3 0 0 1 1.769 5.221 18 18 0 0 1 .756 5.452z" class="cls-8" data-name="Path 1533" transform="translate(18.252 -66.334)"/>
            <path id="Path_1534" d="M576.926 423.269a16.442 16.442 0 0 1-1.391-4.33 17.337 17.337 0 0 1-.8-4.489 34.53 34.53 0 0 1 2.2 8.819z" class="cls-8" data-name="Path 1534" transform="translate(18.909 -66.844)"/>
            <path id="Path_1535" d="M523.442 434.53a77.965 77.965 0 0 1-7.233 3.964 80.282 80.282 0 0 1-7.318 3.769 9.549 9.549 0 0 1 1.988-1.4c1.22-.793 3.062-1.83 5.086-2.9s3.891-1.964 5.257-2.574a9.283 9.283 0 0 1 2.22-.854z" class="cls-8" data-name="Path 1535" transform="translate(4.44 -62.432)"/>
            <path id="Path_1536" d="M531.184 434.64a12.286 12.286 0 0 1-2.293 1.5c-1.464.842-3.5 1.952-5.806 3.1s-4.44 2.086-6 2.732a11.514 11.514 0 0 1-2.574.915 12.3 12.3 0 0 1 2.44-1.305l5.891-2.891 5.879-2.927a12.614 12.614 0 0 1 2.463-1.124z" class="cls-8" data-name="Path 1536" transform="translate(5.675 -62.407)"/>
            <path id="Path_1537" d="M535.931 434.64a36.676 36.676 0 0 1-5.708 4.708 37.812 37.812 0 0 1-6.233 3.989 56.358 56.358 0 0 1 5.867-4.489 60.75 60.75 0 0 1 6.074-4.208z" class="cls-8" data-name="Path 1537" transform="translate(7.758 -62.407)"/>
            <path id="Path_1538" d="M535.372 438.16c.11.134-1.025 1.22-2.537 2.342a9.757 9.757 0 0 1-2.915 1.854 10.041 10.041 0 0 1 2.549-2.342 9.93 9.93 0 0 1 2.9-1.854z" class="cls-8" data-name="Path 1538" transform="translate(9.061 -61.634)"/>
            <path id="Path_1539" d="M515.7 434.41a17.433 17.433 0 0 1-3.757 2.6 17.211 17.211 0 0 1-4.086 2.074 34.5 34.5 0 0 1 7.843-4.674z" class="cls-8" data-name="Path 1539" transform="translate(4.214 -62.458)"/>
            <path id="Path_1540" d="M543.047 329a31.707 31.707 0 0 1-1.549 4.062c-1 2.44-2.44 5.916-3.879 9.758s-2.769 7.319-3.659 9.758a32.938 32.938 0 0 1-1.61 4.025 4.977 4.977 0 0 1 .256-1.134c.207-.72.524-1.756.939-3.037.829-2.549 2.061-6.1 3.537-9.868s2.952-7.233 4.062-9.673a82.84 82.84 0 0 1 1.366-2.866 4.6 4.6 0 0 1 .537-1.025z" class="cls-8" data-name="Path 1540" transform="translate(9.595 -85.622)"/>
            <path id="Path_1541" d="M538.634 428.643a3.2 3.2 0 0 1 0-.72c.061-.537.159-1.22.256-2.049a32.565 32.565 0 0 1 .549-3.232c.281-1.256.5-2.683.939-4.233.207-.768.427-1.586.647-2.44s.537-1.708.817-2.61c.537-1.805 1.281-3.659 2.013-5.684a127.508 127.508 0 0 1 5.83-12.527 220.175 220.175 0 0 1 13.259-21.273 290.16 290.16 0 0 1 4.391-6.2l1.22-1.659a4.145 4.145 0 0 1 .464-.561 3.051 3.051 0 0 1-.354.634c-.3.439-.671 1.012-1.134 1.72l-4.231 6.311c-3.477 5.33-8.355 12.734-13.027 21.272a135.8 135.8 0 0 0-5.843 12.442c-.744 1.976-1.513 3.842-2.061 5.635-.293.9-.6 1.756-.842 2.586s-.464 1.647-.671 2.44c-.464 1.537-.744 2.964-1.037 4.2s-.5 2.318-.646 3.2-.268 1.5-.366 2.025a3.655 3.655 0 0 1-.171.732z" class="cls-8" data-name="Path 1541" transform="translate(10.972 -77.61)"/>
            <path id="Path_1542" d="M578 253.17l-28.652 2.44s-8.538.2-17.906 21.956l-6.733 21.59 12.112 2.586v1.22l2.439 35.166 51.669-8.319c.11-4.464-2.44-10.978-4.306-17.077 1.939-4.818 10.1-25.847 10.087-35.971 0-21.651-18.723-23.517-18.723-23.517" class="cls-7" data-name="Path 1542" transform="translate(7.916 -102.286)"/>
            <path id="Path_1543" d="M581.55 418.22a5.2 5.2 0 0 1-.525 1.22c-.378.744-.939 1.805-1.659 3.11-1.439 2.61-3.513 6.172-5.855 10.063l-6.05 9.917-1.83 3.025a5.072 5.072 0 0 1-.732 1.061 5.194 5.194 0 0 1 .525-1.22c.378-.744.939-1.805 1.659-3.11 1.439-2.61 3.513-6.172 5.855-10.063l6-9.953 1.83-3.013a5.455 5.455 0 0 1 .781-1.037z" class="cls-8" data-name="Path 1543" transform="translate(16.748 -66.016)"/>
            <path id="Path_1544" d="M574.477 295.56a10.831 10.831 0 0 1-4.037 1.061 10.623 10.623 0 0 1-4.159 0 21.436 21.436 0 0 1 4.086-.646 21.688 21.688 0 0 1 4.11-.415z" class="cls-7" data-name="Path 1544" transform="translate(17.052 -92.971)"/>
            <path id="Path_1545" d="M545.554 302.957l-.585 38.166L560.46 254.2c-5.147-.915-14.747 3.135-18.357 8.27-2.586 3.074-4 10.148-11.2 31.445l-4.416 14.454-17.906-19.6-12.063 10.9s20.809 33.995 29.506 35.873c11.832 2.561 19.516-32.592 19.516-32.592" class="cls-5" data-name="Path 1545" transform="translate(1.722 -102.088)"/>
            <path id="Path_1546" d="M539.594 265.2a6.1 6.1 0 0 1-.159 1.488 282.72 282.72 0 0 1-.622 4.013c-.524 3.391-1.22 8.075-1.866 13.271s-1.1 9.917-1.415 13.332c-.146 1.61-.268 2.964-.378 4.037a6.03 6.03 0 0 1-.207 1.488 7.551 7.551 0 0 1 0-1.5c0-.964.085-2.342.183-4.062.2-3.428.6-8.16 1.22-13.417s1.415-9.892 2.049-13.271c.329-1.683.61-3.049.817-3.989a7.855 7.855 0 0 1 .378-1.39z" class="cls-3" data-name="Path 1546" transform="translate(10.158 -99.643)"/>
            <path id="Path_1547" d="M535.46 264.932c-.061-.171 2.342-1.22 5.074-2.879s4.72-3.367 4.879-3.232a20.992 20.992 0 0 1-9.917 6.1z" class="cls-7" data-name="Path 1547" transform="translate(10.279 -101.046)"/>
            <path id="Path_1548" d="M531.916 286.04a28.448 28.448 0 0 1-1.5-4.367 28.644 28.644 0 0 1-1.366-4.4 19.833 19.833 0 0 1 2.866 8.77z" class="cls-7" data-name="Path 1548" transform="translate(8.87 -96.99)"/>
            <path id="Path_1549" d="M542.036 273.2a14.941 14.941 0 0 1-.366 5.074 14.635 14.635 0 0 1-1.5 4.879 41.618 41.618 0 0 1 .9-4.964 40.421 40.421 0 0 1 .966-4.989z" class="cls-7" data-name="Path 1549" transform="translate(11.314 -97.885)"/>
            <path id="Path_1550" d="M527.6 300.48a25.947 25.947 0 0 1-.366 4.477 27.027 27.027 0 0 1-.561 4.476 19.894 19.894 0 0 1 .927-8.953z" class="cls-7" data-name="Path 1550" transform="translate(8.315 -91.89)"/>
            <path id="Path_1551" d="M509.616 302.091a18.712 18.712 0 0 1-3.245-4.879 19.224 19.224 0 0 1-2.171-5.452 52.736 52.736 0 0 1 2.708 5.172 54.787 54.787 0 0 1 2.708 5.16z" class="cls-7" data-name="Path 1551" transform="translate(3.409 -93.806)"/>
            <path id="Path_1552" d="M520.663 301a9.757 9.757 0 0 1-3.342 2.086 9.575 9.575 0 0 1-3.781 1.159 19.117 19.117 0 0 1 3.525-1.708 19.37 19.37 0 0 1 3.6-1.537z" class="cls-7" data-name="Path 1552" transform="translate(5.462 -91.775)"/>
            <path id="Path_1553" d="M482.19 188.254l8.977 106.558 26.993-2.549-25.639-111.9 3.135-30.043z" class="cls-5" data-name="Path 1553" transform="translate(105.972 33.034)"/>
            <path id="Path_1554" d="M579.077 417.283c-.159 0-2.147-23.627-4.428-52.8s-3.976-52.828-3.818-52.84 2.159 23.614 4.428 52.791 3.989 52.837 3.818 52.849z" class="cls-3" data-name="Path 1554" transform="translate(18.05 -89.437)"/>
            <path id="Path_1555" d="M575.46 314.122a11.355 11.355 0 0 1 1.134-3.513 11.686 11.686 0 0 1 1.708-3.269 21.856 21.856 0 0 1-2.842 6.782z" class="cls-7" data-name="Path 1555" transform="translate(19.069 -90.382)"/>
            <path id="Path_1556" d="M582.805 327c-.146.11-1.488-1.452-3.379-3.123a45.579 45.579 0 0 1-3.476-3 10.979 10.979 0 0 1 3.891 2.549 11.147 11.147 0 0 1 2.964 3.574z" class="cls-7" data-name="Path 1556" transform="translate(19.177 -87.407)"/>
            <path id="Path_1557" d="M580.22 344.764a32.517 32.517 0 0 1 1.7-3.659 32.945 32.945 0 0 1 1.6-3.745 8.892 8.892 0 0 1-1.049 3.989 8.771 8.771 0 0 1-2.251 3.415z" class="cls-7" data-name="Path 1557" transform="translate(20.115 -83.785)"/>
            <path id="Path_1558" d="M586.27 358.6a35.089 35.089 0 0 1-7.05-6.1 17.98 17.98 0 0 1 3.659 2.818 18.178 18.178 0 0 1 3.391 3.281z" class="cls-7" data-name="Path 1558" transform="translate(19.895 -80.458)"/>
            <path id="Path_1559" d="M589.049 369.015a43.594 43.594 0 0 1 .073-10.295 23.174 23.174 0 0 1 .268 5.147 22.155 22.155 0 0 1-.341 5.148z" class="cls-7" data-name="Path 1559" transform="translate(21.996 -79.091)"/>
            <path id="Path_1560" d="M582.1 375.2a21.666 21.666 0 0 1-.646-4.086A22.543 22.543 0 0 1 581 367a10.732 10.732 0 0 1 1.11 4.025 10.548 10.548 0 0 1-.01 4.175z" class="cls-7" data-name="Path 1560" transform="translate(20.286 -77.272)"/>
            <path id="Path_1561" d="M590.606 382.293a24.749 24.749 0 0 1-7.636-1.134 12.27 12.27 0 0 1 3.867.268 12.587 12.587 0 0 1 3.769.866z" class="cls-7" data-name="Path 1561" transform="translate(20.719 -74.171)"/>
            <path id="Path_1562" d="M588 394.519a32.335 32.335 0 0 1 4.879-7.319 15.857 15.857 0 0 1-2.171 3.842 16.652 16.652 0 0 1-2.708 3.477z" class="cls-7" data-name="Path 1562" transform="translate(21.825 -72.833)"/>
            <path id="Path_1563" d="M563.922 352.788L518.56 291a62.475 62.475 0 1 0-42.716 12.832 61.126 61.126 0 0 0 6.7.122 62.207 62.207 0 0 0 26.1-6.635l45.826 62.427a5.867 5.867 0 0 0 8.2 1.22 5.867 5.867 0 0 0 1.252-8.178zM482.2 292.239a53.668 53.668 0 0 1-5.44-.1 50.766 50.766 0 0 1 1.988-101.374 51.558 51.558 0 0 1 5.5.11 50.766 50.766 0 0 1-2.048 101.364z" class="cls-3" data-name="Path 1563" transform="translate(-15.549 -118.583)"/>
            <path id="Path_1564" d="M523.819 302.853l-5.379 18.382s28.152 10.234 43.4 10.039c14.283-.171 18.369-1.793 23.395-13.32s10.734-24.773 11.954-32.445c0 0 8.063-35.117-22.7-31.982l-.854 27.457s-3.4 11.258-3.659 11.917c-2.293 6.1-5.269 14.966-8.148 16.04s-38.009-6.088-38.009-6.088z" class="cls-5" data-name="Path 1564" transform="translate(6.539 -102.252)"/>
            <path id="Path_1565" d="M560.015 307.62a29.578 29.578 0 0 1-5.245-8.99 29.913 29.913 0 0 1 2.744 4.416 31.535 31.535 0 0 1 2.501 4.574z" class="cls-3" data-name="Path 1565" transform="translate(14.522 -92.296)"/>
            <path id="Path_1566" d="M562.825 304.72a20.409 20.409 0 0 1-4.086-2.781 19.513 19.513 0 0 1-3.659-3.269 21.063 21.063 0 0 1 4.086 2.781 19.513 19.513 0 0 1 3.659 3.269z" class="cls-3" data-name="Path 1566" transform="translate(14.59 -92.287)"/>
            <path id="Path_1567" d="M570.538 262.57a70.629 70.629 0 0 1-3.244 8.6 69.3 69.3 0 0 1-3.793 8.367 68.421 68.421 0 0 1 3.232-8.6 68.18 68.18 0 0 1 3.806-8.367z" class="cls-3" data-name="Path 1567" transform="translate(16.441 -100.221)"/>
            <path id="Path_1568" d="M584.494 284a6.352 6.352 0 0 1-.4 1.4c-.342 1-.768 2.257-1.22 3.732-1.122 3.147-2.7 7.489-4.55 12.2s-3.659 8.99-5.147 12c-.72 1.512-1.33 2.72-1.781 3.537a6.173 6.173 0 0 1-.744 1.22 6.868 6.868 0 0 1 .537-1.354c.427-.964.951-2.183 1.586-3.659 1.342-3.062 3.11-7.319 4.977-12.051s3.464-8.929 4.708-12.2c.61-1.549 1.122-2.805 1.476-3.659a7.057 7.057 0 0 1 .561-1.171z" class="cls-3" data-name="Path 1568" transform="translate(18.012 -95.511)"/>
            <path id="Path_1569" d="M549.822 299.153c0 .171-6.1-.805-13.686-2.171s-13.612-2.61-13.576-2.769 6.1.805 13.686 2.171 13.612 2.611 13.576 2.769z" class="cls-3" data-name="Path 1569" transform="translate(7.444 -93.271)"/>
            <path id="Path_1570" d="M571.125 286.307a39.707 39.707 0 0 1 .134-9.917 20.619 20.619 0 0 1 .232 4.964 20.311 20.311 0 0 1-.366 4.952z" class="cls-7" data-name="Path 1570" transform="translate(18.062 -97.184)"/>
            <path id="Path_1571" d="M562.09 313.543a28.054 28.054 0 0 1 1.622-3.72 28.755 28.755 0 0 1 1.61-3.732 9.259 9.259 0 0 1-1.049 3.976 9.4 9.4 0 0 1-2.183 3.476z" class="cls-7" data-name="Path 1571" transform="translate(16.131 -90.657)"/>
            <path id="Path_1572" d="M550.735 312.969q-2.511-4.222-4.745-8.6a14.82 14.82 0 0 1 2.842 4.05 14.639 14.639 0 0 1 1.9 4.55z" class="cls-7" data-name="Path 1572" transform="translate(12.593 -91.035)"/>
            <path id="Path_1573" d="M534.477 303.63a16.158 16.158 0 0 1-3.989 1.915 16.515 16.515 0 0 1-4.208 1.342 16.16 16.16 0 0 1 3.989-1.915 16.371 16.371 0 0 1 4.208-1.342z" class="cls-7" data-name="Path 1573" transform="translate(8.261 -91.198)"/>
            <path id="Path_1574" d="M581.629 269.181c-.134.11-1.488-1.22-3.44-2.61s-3.732-2.11-3.659-2.281a9.013 9.013 0 0 1 4 1.781 8.892 8.892 0 0 1 3.1 3.11z" class="cls-7" data-name="Path 1574" transform="translate(18.864 -99.843)"/>
            <path id="Path_1575" d="M574.908 293.16a22.419 22.419 0 0 1-9.758 1.22 32.106 32.106 0 0 1 4.879-.671 33.733 33.733 0 0 1 4.879-.549z" class="cls-7" data-name="Path 1575" transform="translate(16.803 -93.498)"/>
            <path id="Path_1576" d="M570.863 216.771a7.5 7.5 0 0 1 8.685-3.586 10.661 10.661 0 0 1 6.867 7.014 19.162 19.162 0 0 1 .183 10.1c-.537 2.44-1.22 5.257.366 7.136s4.294 1.708 6.038 3.22a4.184 4.184 0 1 1-5.916 5.891c0 1.7.927 3.245 1.451 4.879s.6 3.659-.7 4.745a3.561 3.561 0 0 1-3.586.342 10.428 10.428 0 0 1-3.062-2.208 8.368 8.368 0 0 1 0 5.4 5.354 5.354 0 0 1-4.025 3.391 5.782 5.782 0 0 1-5.611-3.208 12.2 12.2 0 0 1-1.061-6.7c.256-3.562 1.22-7.05 1.61-10.587a17.858 17.858 0 0 0-1.317-10.478" class="cls-10" data-name="Path 1576" transform="translate(17.958 -111.14)"/>
            <path id="Path_1577" d="M589.431 237.242a.645.645 0 0 1-.464 0 1.476 1.476 0 0 1-1.073-.781 1.586 1.586 0 0 1 .5-2.013 2.11 2.11 0 0 1 2.745.159 3.2 3.2 0 0 1 .817 3.269 3.415 3.415 0 0 1-.988 1.683 3.11 3.11 0 0 1-1.939.793 3.952 3.952 0 0 1-2.122-.464 4.391 4.391 0 0 1-1.622-1.586 6.916 6.916 0 0 1-.781-4.538c.451-3.135 1.964-5.757 1.927-8.392a12.125 12.125 0 0 0-1.83-6.587 12.319 12.319 0 0 0-3.171-3.44c-.9-.659-1.476-.9-1.439-.964s.146 0 .427.159a7.885 7.885 0 0 1 1.147.61 11.674 11.674 0 0 1 3.4 3.4 12.345 12.345 0 0 1 2.025 6.831c0 2.793-1.476 5.5-1.891 8.465a6.342 6.342 0 0 0 .7 4.135 3.5 3.5 0 0 0 3.2 1.805 2.671 2.671 0 0 0 2.44-2.049 2.757 2.757 0 0 0-.622-2.818 1.744 1.744 0 0 0-2.244-.207 1.342 1.342 0 0 0-.5 1.634 1.439 1.439 0 0 0 .89.768c.297.128.456.092.468.128z" class="cls-10" data-name="Path 1577" transform="translate(20.064 -110.815)"/>
            <path id="Path_1578" d="M569.412 262.774l1.635-37.227-14.783-11.2-13.417 6.574s-.451 16.869 0 24.188 7.831 8.1 7.831 8.1-.171 4.281-.342 8.794a9.563 9.563 0 0 0 9.648 9.917 9.563 9.563 0 0 0 9.429-9.148z" class="cls-9" data-name="Path 1578" transform="translate(11.858 -110.817)"/>
            <path id="Path_1579" d="M544 229.989a.939.939 0 1 0 .939-.939.951.951 0 0 0-.939.939z" class="cls-3" data-name="Path 1579" transform="translate(12.156 -107.587)"/>
            <path id="Path_1580" d="M543.253 229.205c.122.122.805-.464 1.817-.512s1.769.427 1.866.293-.073-.281-.4-.512a2.44 2.44 0 0 0-2.94.183c-.306.231-.404.475-.343.548z" class="cls-3" data-name="Path 1580" transform="translate(11.988 -107.803)"/>
            <path id="Path_1581" d="M552.89 229.989a.939.939 0 1 0 .939-.939.939.939 0 0 0-.939.939z" class="cls-3" data-name="Path 1581" transform="translate(14.109 -107.587)"/>
            <path id="Path_1582" d="M552.413 229.205c.122.122.817-.464 1.817-.512s1.769.427 1.878.293-.073-.281-.415-.512a2.44 2.44 0 0 0-2.94.183c-.303.231-.401.475-.34.548z" class="cls-3" data-name="Path 1582" transform="translate(14 -107.803)"/>
            <path id="Path_1583" d="M553.039 236.75a18.3 18.3 0 0 1-4.879 1.671 2.83 2.83 0 0 0 3.342.951 2.073 2.073 0 0 0 1.537-2.623z" class="cls-7" data-name="Path 1583" transform="translate(13.07 -105.895)"/>
            <path id="Path_1584" d="M549.2 246.8a18.3 18.3 0 0 0 9.7-3.281s-2.2 5.379-9.539 5.074z" class="cls-11" data-name="Path 1584" transform="translate(13.298 -104.407)"/>
            <path id="Path_1585" d="M592.877 247.474a5.245 5.245 0 0 1-2.659-.61 7.318 7.318 0 0 1-2.891-2.793 32.232 32.232 0 0 1-2.159-4.635c-1.366-3.4-2.44-6.562-3.1-8.868l-.3-1.012a4.077 4.077 0 0 0-.183-1c-4-15.259-17.406-18.1-20.065-18.1s-7.819-1.561-15.076 5.977a16.782 16.782 0 0 0-2.745 3.806 16.089 16.089 0 0 0-3.232 6.879 8.136 8.136 0 0 0-.171 3.659c.134 0 .159-1.378.72-3.5a17.856 17.856 0 0 1 1.415-3.6 13.893 13.893 0 0 0 .744 8.428l2.6-.72 9.319-3.171c-.854-2.879.4-6.465 1.1-8.136l.073-.061a14.552 14.552 0 0 0 12.32 11.954l1.72 23.968c12.393-2.647 12.1-19.223 12.027-22.59a72.924 72.924 0 0 0 2.208 6.355 27.349 27.349 0 0 0 2.269 4.72 7.551 7.551 0 0 0 3.208 2.9 5.11 5.11 0 0 0 2.891.427 2 2 0 0 0 1-.378 8.157 8.157 0 0 0-1.033.101z" class="cls-10" data-name="Path 1585" transform="translate(11.312 -111.703)"/>
            <path id="Path_1586" d="M549.889 237.584a8.09 8.09 0 0 0-1.647-.207c-.256 0-.512 0-.561-.232a1.427 1.427 0 0 1 .134-.817l.7-2.086c.476-1.488.89-2.842 1.22-3.83a6.1 6.1 0 0 0 .366-1.622 7.566 7.566 0 0 0-.732 1.476 65.904 65.904 0 0 0-1.22 3.793l-.659 2.1a1.6 1.6 0 0 0-.1 1.049.635.635 0 0 0 .427.366 1.88 1.88 0 0 0 .439 0 6.416 6.416 0 0 0 1.634.012z" class="cls-3" data-name="Path 1586" transform="translate(12.89 -107.644)"/>
            <path id="Path_1587" d="M566.578 236.779a9.014 9.014 0 0 1 .39-3.659 3.391 3.391 0 0 1 2.623-2.269 2.879 2.879 0 0 1 2.976 2.44 3.55 3.55 0 0 1-1.805 3.513 4.684 4.684 0 0 1-4.074.122" class="cls-9" data-name="Path 1587" transform="translate(17.107 -107.192)"/>
            <path id="Path_1588" d="M568.313 235.434c0-.085.4.1.915-.061a1.622 1.622 0 0 0 1.1-1.549 1.22 1.22 0 0 0-.256-.976 1.134 1.134 0 0 0-.8-.244c-.549 0-.927.2-.964.11s.244-.342.9-.537a1.464 1.464 0 0 1 1.22.244 1.683 1.683 0 0 1 .5 1.439 2.293 2.293 0 0 1-.549 1.366 1.707 1.707 0 0 1-1.073.573c-.713.075-1.042-.316-.993-.365z" class="cls-11" data-name="Path 1588" transform="translate(17.495 -106.909)"/>
            <path id="Path_1589" d="M570.838 235.762a1.627 1.627 0 0 1 .549 1.354 2.208 2.208 0 0 1-.683 1.5 2.31 2.31 0 0 1-3.647-.61 2.159 2.159 0 0 1-.158-1.671c.3-.939.927-1.22.951-1.122a4.064 4.064 0 0 0-.537 1.22 1.842 1.842 0 0 0 3.013 1.744 1.769 1.769 0 0 0 .634-1.147 4.877 4.877 0 0 0-.122-1.269z" class="cls-3" data-name="Path 1589" transform="translate(17.166 -106.236)"/>
            <path id="Path_1590" d="M569.46 234.589a2.757 2.757 0 0 1-.939.573 7.318 7.318 0 0 1-2.964.61 9.416 9.416 0 0 1-4.367-1.1 11.758 11.758 0 0 1-4.062-3.659 21.236 21.236 0 0 1-3.244-9.331 42.986 42.986 0 0 1-.305-2.964 3.307 3.307 0 0 1 0-1.11 39.55 39.55 0 0 1 .732 4.013 22.833 22.833 0 0 0 3.318 9.038 11.613 11.613 0 0 0 3.794 3.525 9.5 9.5 0 0 0 4.1 1.147 10.258 10.258 0 0 0 3.94-.744z" class="cls-10" data-name="Path 1590" transform="translate(14.25 -110.101)"/>
            <path id="Path_1591" d="M574.248 224.424c-.183 0-.732-2.11-2.159-4.4s-3.11-3.745-2.988-3.891a9.1 9.1 0 0 1 3.5 3.574 8.978 8.978 0 0 1 1.647 4.72z" class="cls-3" data-name="Path 1591" transform="translate(17.67 -110.426)"/>
            <path id="Path_1592" d="M521.9 312.015h-4.3c-3.915-.378-6.1-.439-7.2-1.476-1.464-1.4.549-2.769.549-2.769s-2.83-.976-2.562-2.7a1.63 1.63 0 0 1 1.513-1.305s-2.44-.976-2.988-2.025c-.671-1.415 1.086-2.171 1.086-2.171-3.4-2.1-3.086-4.184-2.305-4.391s3.44 1.025 3.44 1.025c2.244.634 8.367 2.5 6.1-.878s-2.732-6.818-2.22-7.843a1.22 1.22 0 0 1 2.342.573 14.5 14.5 0 0 0 1.6 3.781 10.208 10.208 0 0 0 2.037 2.537 52.925 52.925 0 0 0 2.549 2.11l3.83 3.659z" class="cls-9" data-name="Path 1592" transform="translate(3.625 -94.911)"/>
            <path id="Path_1593" d="M497.426 272.462c.317-.927 1.086-1.586 1.915-1.147a1.464 1.464 0 0 1 .268 1.427l-2.659 8.648 2.513-6.1c.317-.927 1.159-1.488 1.732-.988a1.561 1.561 0 0 1 .207 1.4l-2.293 7.184 1.866-4.489c.39-1.025.842-1.305 1.366-1.073s.537.976.415 1.391l-1.574 5.294c.342 1.025 1.513 4.233.378 6.038 0 .085.122.39.11.488l.537.61-3.464 3.184s-3.257-8.233-3.879-10.709a7.136 7.136 0 0 1 .2-4.318z" class="cls-9" data-name="Path 1593" transform="translate(1.304 -98.329)"/>
        </g>
    </g>
</svg>
