<svg xmlns="http://www.w3.org/2000/svg" width="681.691" height="751.178" viewBox="0 0 681.691 751.178">
    <defs>
        <style>
            .cls-1{fill:none}.cls-2{fill:#ebebeb}.cls-3{fill:#ffb573}.cls-4{fill:#407bff}.cls-10,.cls-5,.cls-7{opacity:.2}.cls-6{fill:#263238}.cls-8{fill:#fff}.cls-9{fill:#ed893e}.cls-10{fill:#fafafa}.cls-11{opacity:.4}.cls-12{clip-path:url(#clip-path)}
        </style>
        <clipPath id="clip-path">
            <circle id="Ellipse_14" cx="216.849" cy="216.849" r="216.849" class="cls-1" data-name="Ellipse 14"/>
        </clipPath>
    </defs>
    <g id="_5" data-name="5" transform="translate(-18.931)">
        <g id="Background_Complete" data-name="Background Complete" transform="translate(87.751)">
            <path id="Path_1296" d="M190.348 158.6a29.113 29.113 0 0 1 5.089 1.7 27.269 27.269 0 0 1 4.84 2.772 20.993 20.993 0 0 1 3.385 3.067 53.1 53.1 0 0 1 6.612-7.748 42.253 42.253 0 0 1 4.2-3.567 24.491 24.491 0 0 1 4.294-2.658l-3.817 4.794c-1.25 1.613-2.5 3.181-3.726 4.794s-2.272 3.249-3.544 4.885a51.623 51.623 0 0 0-3.317 5.112l-1.272 2.068-1.113-1.363a27.262 27.262 0 0 0-3.931-3.817c-1.409-1.182-2.863-2.272-4.317-3.408a105.558 105.558 0 0 1-8.793-7.271 20.271 20.271 0 0 1 5.41.64z" class="cls-2" data-name="Path 1296" transform="translate(-63.769 -.985)"/>
            <path id="Path_1297" d="M307.285 92.06a29.992 29.992 0 0 1 5.112 1.7 26.375 26.375 0 0 1 4.817 2.772A21.214 21.214 0 0 1 320.6 99.6a53.17 53.17 0 0 1 6.634-7.748 45.424 45.424 0 0 1 4.2-3.567 25.581 25.581 0 0 1 4.294-2.658l-3.84 4.794c-1.25 1.613-2.5 3.181-3.7 4.794s-2.408 3.249-3.567 4.885-2.272 3.385-3.317 5.112l-1.25 2.068-1.113-1.363a29.693 29.693 0 0 0-3.931-3.817c-1.409-1.181-2.863-2.272-4.34-3.408-2.908-2.272-5.907-4.544-8.77-7.248a19.315 19.315 0 0 1 5.385.614z" class="cls-2" data-name="Path 1297" transform="translate(85.016 -85.63)"/>
            <path id="Path_1298" d="M139.63 149.853a45.578 45.578 0 0 1 7.57 2.547 40.017 40.017 0 0 1 7.18 4.112 32 32 0 0 1 5.021 4.544 79.937 79.937 0 0 1 9.838-11.5 66.053 66.053 0 0 1 6.271-5.317 38.284 38.284 0 0 1 6.362-3.931l-5.68 7.134c-1.863 2.272-3.726 4.7-5.521 7.112s-3.567 4.84-5.294 7.271-3.34 5.044-4.93 7.589l-1.863 3.067-1.636-2.022a44.667 44.667 0 0 0-5.862-5.68c-2.09-1.75-4.249-3.408-6.43-5.067a163.564 163.564 0 0 1-13.042-10.77 29.539 29.539 0 0 1 8.021.909z" class="cls-2" data-name="Path 1298" transform="translate(-131.61 -16.072)"/>
            <path id="Path_1299" d="M205.248 126.17a34.31 34.31 0 0 1 5.7 1.909 31.309 31.309 0 0 1 5.385 3.09 23.04 23.04 0 0 1 3.794 3.431 59.325 59.325 0 0 1 7.384-8.657 49.087 49.087 0 0 1 4.7-3.976 28.086 28.086 0 0 1 4.794-2.976l-4.249 5.362c-1.409 1.795-2.795 3.544-4.158 5.339s-2.681 3.658-3.976 5.476-2.522 3.772-3.7 5.7l-1.409 2.272-1.227-1.5a32.651 32.651 0 0 0-4.408-4.272c-1.568-1.318-3.181-2.567-4.84-3.817a116.374 116.374 0 0 1-9.793-8.111 22.993 22.993 0 0 1 6 .727z" class="cls-2" data-name="Path 1299" transform="translate(-45.565 -43.193)"/>
            <path id="Path_1300" d="M381.112 100.94a34.3 34.3 0 0 1 5.7 1.909 32.2 32.2 0 0 1 5.385 3.09 22.914 22.914 0 0 1 3.772 3.431 58.233 58.233 0 0 1 7.407-8.657 46.762 46.762 0 0 1 4.7-4 28.476 28.476 0 0 1 4.794-2.954l-4.27 5.363c-1.409 1.795-2.795 3.544-4.158 5.339s-2.681 3.635-3.976 5.476-2.522 3.772-3.7 5.7l-1.409 2.272-1.227-1.522a33.912 33.912 0 0 0-4.408-4.249c-1.568-1.318-3.2-2.567-4.84-3.817a120.983 120.983 0 0 1-9.882-8.086 22.994 22.994 0 0 1 6.112.7z" class="cls-2" data-name="Path 1300" transform="translate(178.006 -75.288)"/>
        </g>
        <g id="Character" transform="translate(430.247 84.499)">
            <path id="Path_1301" d="M368.667 184.8c-.364 6.294-1.091 12.065-1.909 18.177s-1.954 11.815-3.249 17.677-2.7 11.747-4.544 17.541a162.866 162.866 0 0 1-6.294 17.2l-1.908 4.249a24.887 24.887 0 0 1-1.2 2.272c-.409.7-.886 1.545-1.341 2.272a65.91 65.91 0 0 1-5.907 7.884 134.511 134.511 0 0 1-12.951 13 241.822 241.822 0 0 1-28.378 21.494l-5.771-7.453c4.067-3.931 8.2-8 12.2-12.042s7.952-8.18 11.7-12.36a161.677 161.677 0 0 0 10.474-12.724 58.06 58.06 0 0 0 4.044-6.385c.227-.5.523-1.022.727-1.5a16.384 16.384 0 0 0 .659-1.568l1.454-3.794a213.9 213.9 0 0 0 8.588-32.014c1.091-5.476 1.886-11.042 2.7-16.586s1.431-11.361 1.931-16.541z" class="cls-3" data-name="Path 1301" transform="translate(-265.991 -45.502)"/>
            <path id="Path_1302" d="M329.129 174.877c-7.657 1.931-13.019 33.491-13.019 33.491l21.13 14.36s20.244-31.809 14.36-40.239c-6.2-8.789-11.269-10.474-22.471-7.612z" class="cls-4" data-name="Path 1302" transform="translate(-239.404 -58.228)"/>
            <path id="Path_1303" d="M243.045 91.62l-5.885 31.809 11.883 8.043z" class="cls-5" data-name="Path 1303" transform="translate(-152.638 32.05)"/>
            <path id="Path_1304" d="M308.555 233.26l-21.085 1.522 12.587 14.11s11.656-2.658 13.633-10.111z" class="cls-3" data-name="Path 1304" transform="translate(-275.837 17.671)"/>
            <path id="Path_1305" d="M199.96 155.775l8.634 13.292 15.587-6.657-12.588-14.11z" class="cls-3" data-name="Path 1305" transform="translate(-199.96 104.153)"/>
            <path id="Path_1306" d="M268.828 346.369H250.22l-1.25-43.079h18.609z" class="cls-3" data-name="Path 1306" transform="translate(-137.614 301.315)"/>
            <path id="Path_1307" d="M336.2 319.186l-17.222 7.021-21.838-37.626 17.223-7.021z" class="cls-3" data-name="Path 1307" transform="translate(-76.337 273.673)"/>
            <path id="Path_1308" d="M399.027 391.811L417 381.133a1.477 1.477 0 0 1 1.931.341l10.5 13a3 3 0 0 1-.886 4.363c-6.316 3.612-9.566 5.044-17.473 9.725-4.862 2.886-16.291 12.792-22.994 16.791s-11.02-2.454-8.566-4.7a63.781 63.781 0 0 0 17.427-26.265 4.884 4.884 0 0 1 2.09-2.568z" class="cls-6" data-name="Path 1308" transform="translate(-159.639 205.501)"/>
            <path id="Path_1309" d="M348.628 406.931h20.9a1.431 1.431 0 0 1 1.477 1.272l2.272 16.541a2.976 2.976 0 0 1-2.976 3.295c-7.293-.114-10.792-.545-19.995-.545-5.657 0-17.336.591-25.152.591s-8.225-7.725-4.976-8.429c14.587-3.135 20.313-7.452 25.22-11.588a4.954 4.954 0 0 1 3.23-1.137z" class="cls-6" data-name="Path 1309" transform="translate(-236.66 238.595)"/>
            <g id="Group_4" class="cls-7" data-name="Group 4" transform="translate(111.356 555.233)">
                <path id="Path_1310" d="M248.97 303.29l.636 22.2h18.631l-.636-22.2z" data-name="Path 1310" transform="translate(-248.97 -253.917)"/>
                <path id="Path_1311" d="M314.385 281.56l-17.245 7.04 11.27 19.381 17.223-7.021z" data-name="Path 1311" transform="translate(-187.693 -281.56)"/>
            </g>
            <path id="Path_1312" d="M323.077 177.175s-8.861 3.113 8.907 112.265h75.524c-1.272-30.742-1.318-49.714 13.383-112.81a220.893 220.893 0 0 0-32.082-4.226 239.893 239.893 0 0 0-34.309 0c-14.7 1.34-31.423 4.771-31.423 4.771z" class="cls-4" data-name="Path 1312" transform="translate(-233.352 -60.526)"/>
            <path id="Path_1313" d="M377.436 172.4a239.875 239.875 0 0 0-34.309 0c-4.112.364-8.384.909-12.406 1.477-1.749 6.635-1.409 15.9 5.362 28.038a9.089 9.089 0 0 0 11.36 3.976c5.5-2.272 33.332-13.973 42.284-28.469l2.273-3.746c-4.5-.545-9.52-1.022-14.564-1.276z" class="cls-8" data-name="Path 1313" transform="translate(-221.956 -60.526)"/>
            <path id="Path_1314" d="M418.43 167.3c0 27.265-22.448 45.26-46.237 56.643-24.607 11.769-49.373-22.108-49.373-49.373a49.373 49.373 0 0 1 49.373-49.4c27.265.01 46.237 14.87 46.237 42.13z" class="cls-6" data-name="Path 1314" transform="translate(-230.868 -119.818)"/>
            <path id="Path_1315" d="M387.963 138.793c0 10.338-7.18 21.471-17.541 21.471a18.722 18.722 0 1 1 0-37.444c10.361 0 17.541 5.635 17.541 15.973z" class="cls-6" data-name="Path 1315" transform="translate(-194.13 -122.82)"/>
            <path id="Path_1316" d="M368.321 155.06c-2.272 11.02-4.34 31.264 3.385 38.626 0 0-3.022 11.2-23.516 11.2-22.562 0-10.793-11.2-10.793-11.2 12.315-2.954 12-12.088 9.861-20.653z" class="cls-3" data-name="Path 1316" transform="translate(-216.227 -81.808)"/>
            <path id="Path_1317" d="M372.405 172.4a239.877 239.877 0 0 0-34.309 0l-2.272.227a20.086 20.086 0 0 0-1 15.223 9.088 9.088 0 0 0 12.7 5.817c9.5-4.544 24.221-12.656 29.356-20.971-1.453-.11-2.98-.224-4.475-.296z" class="cls-3" data-name="Path 1317" transform="translate(-216.926 -60.526)"/>
            <path id="Path_1318" d="M352.519 158.29L340 168.992a36.054 36.054 0 0 1 1.068 6.089c4.7-.682 11.156-5.839 11.656-10.77a16.812 16.812 0 0 0-.205-6.021z" class="cls-5" data-name="Path 1318" transform="translate(-209.014 -77.699)"/>
            <path id="Path_1319" d="M378.311 154.108c3.431 18.177 5.271 25.743-1.431 37.194-10.088 17.223-33.127 17.473-41.9.7-7.907-15.064-12.178-42.216 3.522-53.735a25.175 25.175 0 0 1 39.807 15.837z" class="cls-3" data-name="Path 1319" transform="translate(-224.422 -109.484)"/>
            <path id="Path_1320" d="M333.332 223.6s-14.678 143.3-13.451 199.94c1.25 59.075 22.88 193.56 22.88 193.56h25.2s-3.976-131.123-1.75-189.061C368.617 364.852 388.7 223.55 388.7 223.55z" class="cls-6" data-name="Path 1320" transform="translate(-234.7 5.319)"/>
            <path id="Path_1321" d="M277.3 317.485h-29.519l-2.181-9.429 33.059-1.136z" class="cls-4" data-name="Path 1321" transform="translate(-141.901 305.933)"/>
            <path id="Path_1322" d="M345.143 244.218c-18.563 37.331-3.726 105.425 2.84 130.759 3.363-38.035 9.088-84.567 13.451-118.717-2.886-19.312-7.726-29.242-16.291-12.042z" class="cls-5" data-name="Path 1322" transform="translate(-213.929 20.345)"/>
            <path id="Path_1323" d="M334.54 223.57s17.109 148.981 30.037 196.809c15.337 56.8 77.683 153.662 77.683 153.662l23.471-9.588s-40.239-110.31-51.986-140.234c-24.993-63.846-3.59-159.047-23.607-200.649z" class="cls-6" data-name="Path 1323" transform="translate(-215.959 5.344)"/>
            <path id="Path_1324" d="M331.437 294.482l-29.128 11.883-6.839-7.884 33.63-15.541z" class="cls-4" data-name="Path 1324" transform="translate(-78.462 275.428)"/>
            <path id="Path_1325" d="M340.077 149.012c.363 1.454-.114 2.817-1.045 3.067s-2.022-.75-2.408-2.272.114-2.817 1.068-3.067 2.021.818 2.385 2.272z" class="cls-6" data-name="Path 1325" transform="translate(-213.476 -92.437)"/>
            <path id="Path_1326" d="M332.828 150.843c.386 1.454 0 2.84-1.045 3.067s-2.022-.75-2.386-2.272 0-2.817 1.045-3.067 2.022.817 2.386 2.272z" class="cls-6" data-name="Path 1326" transform="translate(-222.676 -90.109)"/>
            <path id="Path_1327" d="M332.1 148.57h-3.75s2.431 2.159 3.75 0z" class="cls-6" data-name="Path 1327" transform="translate(-223.834 -90.063)"/>
            <path id="Path_1328" d="M334.95 150.14a40.017 40.017 0 0 1-2.84 10.588 6.407 6.407 0 0 0 5.43-.341z" class="cls-9" data-name="Path 1328" transform="translate(-219.05 -88.066)"/>
            <path id="Path_1329" d="M340.126 160.346a17.759 17.759 0 0 1-2.113.7.477.477 0 0 1-.546-.318.455.455 0 0 1 .318-.545 12 12 0 0 0 8.271-6.816.435.435 0 1 1 .818.3 12.315 12.315 0 0 1-6.748 6.679z" class="cls-6" data-name="Path 1329" transform="translate(-212.252 -84.322)"/>
            <path id="Path_1330" d="M331.393 143.42s24.311 24.993 48.555 24.993c19.949 0 19.29-33.445-7.089-34.831s-53.076-8.521-41.466 9.838z" class="cls-6" data-name="Path 1330" transform="translate(-223.514 -112.337)"/>
            <path id="Path_1331" d="M361.317 153.167a13.472 13.472 0 0 1-5.135 8.929c-3.772 2.863-7.384 0-7.793-4.544-.364-4.022 1.159-10.361 5.635-11.36a6.066 6.066 0 0 1 7.293 6.975z" class="cls-3" data-name="Path 1331" transform="translate(-198.408 -93.274)"/>
            <path id="Path_1332" d="M345.459 145.106a.863.863 0 0 1-1.022.159c-3.613-1.863-8.293.523-8.339.545a.874.874 0 0 1-.818-1.545c.227-.136 5.544-2.84 9.975-.568a.863.863 0 0 1 .364 1.182.816.816 0 0 1-.159.227z" class="cls-6" data-name="Path 1332" transform="translate(-215.609 -97.414)"/>
            <path id="Path_1333" d="M327.768 148.319a.863.863 0 0 1-.863-.114.886.886 0 0 1-.2-1.227 8.793 8.793 0 0 1 7.134-3.749.886.886 0 0 1 .818.932.864.864 0 0 1-.909.841 7.021 7.021 0 0 0-5.612 3.022.908.908 0 0 1-.368.295z" class="cls-6" data-name="Path 1333" transform="translate(-226.137 -96.856)"/>
            <path id="Path_1334" d="M385.8 391.526h-.227a2.545 2.545 0 0 1-1.818-1.636 1.477 1.477 0 0 1 .136-1.522c1.341-1.954 8.066-1.7 8.839-1.659a.43.43 0 0 1 .272.75c-1.682 1.659-4.908 4.341-7.202 4.067zm5.817-4c-2.681 0-6.294.3-7.021 1.318a.682.682 0 0 0 0 .682 1.682 1.682 0 0 0 1.182 1.113c1.248.274 3.384-.953 5.837-3.111z" class="cls-4" data-name="Path 1334" transform="translate(-153.545 212.829)"/>
            <path id="Path_1335" d="M391.289 390.394c-2.272-.273-6.385-1.84-7.021-3.658a1.545 1.545 0 0 1 .636-1.818 2.386 2.386 0 0 1 1.909-.455c2.658.523 5.408 5.112 5.521 5.294a.455.455 0 0 1 0 .455.522.522 0 0 1-.386.227zm-4.771-5.067a1.41 1.41 0 0 0-1.068.3c-.454.341-.432.613-.341.818.432 1.227 3.772 2.749 6.021 3.045-1-1.477-2.886-3.84-4.544-4.158z" class="cls-4" data-name="Path 1335" transform="translate(-152.81 209.962)"/>
            <path id="Path_1336" d="M331.56 411a7.112 7.112 0 0 1-4.544-1.136 2.521 2.521 0 0 1-.8-2.158 1.408 1.408 0 0 1 .75-1.159c2.272-1.272 9.7 2.522 10.543 2.976a.44.44 0 0 1-.114.818 31.617 31.617 0 0 1-5.835.659zm-3.317-3.84a1.68 1.68 0 0 0-.818.159.546.546 0 0 0-.3.477 1.636 1.636 0 0 0 .5 1.409c1.136 1.022 4.2 1.181 8.316.5a23.7 23.7 0 0 0-7.7-2.545z" class="cls-4" data-name="Path 1336" transform="translate(-226.566 237.776)"/>
            <path id="Path_1337" d="M334.749 412.773h-.227c-2.272-1.022-6.612-5.021-6.271-7.134 0-.5.432-1.113 1.659-1.25a3.272 3.272 0 0 1 2.454.772c2.272 1.954 2.749 6.953 2.772 7.157a.409.409 0 0 1-.182.409.454.454 0 0 1-.205.046zm-4.549-7.543h-.227c-.8 0-.863.409-.863.5-.227 1.272 2.772 4.431 5.021 5.794a10.316 10.316 0 0 0-2.272-5.726 2.272 2.272 0 0 0-1.545-.568z" class="cls-4" data-name="Path 1337" transform="translate(-223.984 235.343)"/>
            <path id="Path_1338" d="M339.309 146.8l-3.749-.114s2.499 2.276 3.749.114z" class="cls-6" data-name="Path 1338" transform="translate(-214.662 -92.455)"/>
            <path id="Path_1339" d="M403.754 221.926l1.931 6.816c.25.545-.364 1.068-1.25 1.068h-77.751c-.682 0-1.25-.341-1.272-.75l-.682-6.816c0-.477.523-.863 1.272-.863h76.592a1.41 1.41 0 0 1 1.159.545z" class="cls-4" data-name="Path 1339" transform="translate(-228.438 2.558)"/>
            <path id="Path_1340" d="M403.754 221.926l1.931 6.816c.25.545-.364 1.068-1.25 1.068h-77.751c-.682 0-1.25-.341-1.272-.75l-.682-6.816c0-.477.523-.863 1.272-.863h76.592a1.41 1.41 0 0 1 1.159.545z" class="cls-10" data-name="Path 1340" transform="translate(-228.438 2.558)"/>
            <path id="Path_1341" d="M355.98 230.827h2.068c.409 0 .7-.2.682-.454l-.954-8.793a.773.773 0 0 0-.8-.477h-2.045c-.409 0-.727.227-.7.477l.954 8.793c0 .249.341.454.795.454z" class="cls-6" data-name="Path 1341" transform="translate(-190.912 2.2)"/>
            <path id="Path_1342" d="M329.123 230.825h2.045c.409 0 .7-.2.682-.454l-.954-8.793c0-.25-.386-.477-.8-.477h-2.045c-.409 0-.727.227-.7.477l.977 8.793c.022.249.5.454.795.454z" class="cls-6" data-name="Path 1342" transform="translate(-225.106 2.202)"/>
            <path id="Path_1343" d="M342.553 230.825h2.047c.409 0 .7-.2.682-.454l-.954-8.793c0-.25-.386-.477-.8-.477h-2.045c-.409 0-.727.227-.7.477l.977 8.793c.02.249.384.454.793.454z" class="cls-6" data-name="Path 1343" transform="translate(-208.022 2.202)"/>
            <path id="Path_1344" d="M354.629 229.789L338.27 218.11l1.522 18.858s10.906 4.885 17.018.182z" class="cls-3" data-name="Path 1344" transform="translate(-211.214 -1.602)"/>
            <path id="Path_1345" d="M400.214 183.78c1.409 11.111 2.613 22.267 3.726 33.423s2.159 22.312 3.09 33.468l.159 2.09v2.886a19.52 19.52 0 0 1-1.341 7.248 22.4 22.4 0 0 1-8.2 10 38.786 38.786 0 0 1-9.27 4.7 69.97 69.97 0 0 1-9.089 2.545 133.82 133.82 0 0 1-35.1 2l-.114-9.406c5.294-.7 10.793-1.545 16.064-2.613a116.686 116.686 0 0 0 15.587-4.044 38.854 38.854 0 0 0 12.338-6.135 5.7 5.7 0 0 0 2.136-2.954 2.89 2.89 0 0 0 0-1l-.5-3.385c-1.636-11.11-3.158-22.2-4.544-33.332s-2.795-22.267-3.931-33.423z" class="cls-3" data-name="Path 1345" transform="translate(-203.836 -45.273)"/>
            <path id="Path_1346" d="M376.553 174.155c7.566 2.272 16.677 28.356 16.677 28.356L363.852 223.5s-10.7-21.744-7.521-31.537c3.294-10.174 11.588-20.444 20.222-17.808z" class="cls-4" data-name="Path 1346" transform="translate(-188.991 -58.05)"/>
            <path id="Path_1347" d="M373.121 211.814a44.465 44.465 0 0 0-69.3 54.894l-1.977 16.314 16.336-1.954a44.465 44.465 0 0 0 54.939-69.254zm-44.556 44.533a18.518 18.518 0 1 1 13.11 5.44 18.54 18.54 0 0 1-13.11-5.44z" class="cls-4" data-name="Path 1347" transform="translate(-263.72 -26.456)"/>
            <path id="Path_1348" d="M373.121 211.814a44.465 44.465 0 0 0-69.3 54.894l-1.977 16.314 16.336-1.954a44.465 44.465 0 0 0 54.939-69.254zm-44.556 44.533a18.518 18.518 0 1 1 13.11 5.44 18.54 18.54 0 0 1-13.11-5.44z" class="cls-11" data-name="Path 1348" transform="translate(-263.72 -26.456)"/>
            <path id="Path_1349" d="M249 133.184l2.136 15.7 15.019 2.454-1.545-18.858z" class="cls-3" data-name="Path 1349" transform="translate(-137.576 84.028)"/>
        </g>
        <g id="Globe" transform="translate(18.931 244.523)">
            <path id="Path_1350" d="M356.271 644.918A254.929 254.929 0 0 1 176 209.72a2.272 2.272 0 0 1 3.2 0l27 26.97a2.281 2.281 0 0 1-3.226 3.226l-25.357-25.357c-97.789 97.774-97.789 256.309-.007 354.091s256.317 97.782 354.1 0l-25.41-25.409a2.281 2.281 0 0 1 3.227-3.227l27.015 27.015a2.272 2.272 0 0 1 0 3.226 253.317 253.317 0 0 1-180.271 74.663z" class="cls-4" data-name="Path 1350" transform="translate(-101.321 -173.139)"/>
            <circle id="Ellipse_13" cx="216.849" cy="216.849" r="216.849" class="cls-4" data-name="Ellipse 13" transform="translate(38.078)"/>
            <g id="Group_6" class="cls-12" data-name="Group 6" transform="translate(38.101)">
                <g id="Group_5" class="cls-7" data-name="Group 5" transform="translate(-80.909 28.275)">
                    <path id="Path_1351" d="M407.06 210.45l19.449 3.726c-1.7 1.3-2.885 3.294-4.658 4.544 13.905.159 28.606-1.431 42.011 2.272 12.519 3.5 23.266-.977 36.058.386 7.5.818 90.27 6.385 87.885 17.609-5.839-.909-13.474-3.817-18.972-.613l9.861 4.226c-5.226 2.886-19.313 5.339-19.245 10.315 0 3.567 4.908 5.158 6.226 8.339s.727 8.225 1.022 11.565c-4.067-3.681-15.155-10.247-16.7-15.178s7.475-14.064-5.771-12.11c-4.84.7-4.34 5.044-5.589 5.521-3.09 1.2-8.839.318-12.2.432-11.156.386-10.406 2.5-15.36 12.133 6.7 1.2 15.473 1.113 19.858 5.521s7.771 18.995 2.863 23.471c-2.408 2.272-5.862.5-7.384 1.7s-4.226 7.589-3.726 9.338c1.409 4.93 16.859 10.452 3.044 14.087-1.749-2.885-5.612-13.087-8.657-14.292-4.295-1.7-9.407 5.044-9.543-3.862l-6.18 5.271a12.269 12.269 0 0 0 12.383 4.112c-8.748 2.272-2.772 9.088-.136 12.2 4.067 4.771 4.294 4.908 4.544 10.247.477 9.815-6.248 17.677-16.337 19.9-5.067 1.113-8.748-.568-12.019 3-4.976 5.385-.136 5.817 2.658 10.293 1.954 3.158 5.93 9.52 5.271 13.337-.568 3.249-6.816 7.248-9.52 9.793-3.431-5.021-6-11.7-12.633-13.315-.591 8.293-1.341 11.474 4.544 17.9 1.818 1.977 4.067 2.976 5.317 5.112s.932 6.657 2.272 9.452c-17.359-9.316-14.655-27.083-20.608-43.556-3.953 10.088-7.793-3.7-9.52-6.816-3.908-6.816-7.975-9.088-15.677-4.544-3.726 2.159-13.769 11.7-15.246 15.609-3.408 8.952 2.795 12.565-4.544 20.449-5.5-3.885-6.816-12.406-8.861-18.177-2.272-6.316-6.294-13.337-5.68-20.222-4.044 8.657-9.77-2.068-13.5-5.226-5.5-4.544-9.089-2.545-16.427-3.226a46.206 46.206 0 0 1-8.384-2.408c1.431.386-3.272-2.772-2.613-2.5-.977-.432-2.522 1.431-3.885.909-4.294-1.681-12.315-10.361-16.109-8.2 1.636 3.226 4.885 12.451 8.2 14.291 5.158 2.875 9.094-2.965 13.07-2.265a32.419 32.419 0 0 1 7.952 7.634c.682 2.976 0 1.909-2.272 5.794a25.244 25.244 0 0 1-11.974 11.361c-4.022 2.272-13.36 8.18-18.177 8.293-6.271.136-6.157-2.545-8.839-7.589s-15.064-35.558-21.108-32.1c4.726 10.224 8.748 21.244 14.587 30.946 2.09 3.476 8.02 14.791 11.815 16.336 4.544 1.841 13.224-2.272 17.2-3.476-1.931 18.177-16.859 24.993-25.584 38.989-7.907 12.588 6.476 27.265-3.045 38.308-2.545 2.976-9.611 4.362-11.36 7.748-1.454 2.795 1.318 7.066.454 10.179-1.136 4.067-3.59 2.59-6.089 6.18-2.045 2.908-1.386 7.089-3.726 10.406a25.812 25.812 0 0 1-17.177 11.906c-10.883 2.454-11.815 2.113-15.382-7.407l-11.02-29.219c-2.772-7.384-1.613-10.315.613-18.177s3.045-9.656-.25-16.791a114.877 114.877 0 0 1-6.43-13.792c-1.2-4.044 0-7.044-.523-11.247-.454-3.317-.318-5.112-3.408-7.816-.841-.75-3.749.8-4.794.25s-2.022-3.863-3.317-4.112c-5.43-1.022-12.883 2.613-19.154 2.863-9.543.364-15.9.2-22.176-5.658s-11.747-12.519-12.247-21.335c-1.091-19.267 13.246-26.311 21.2-41.852 2.636-5.158 0-7.043 6.7-11 3.386-2.022 4.317-1.84 8.566-2.636 10.088-1.886 20.7-2.272 30.9-3.5-.886 7.68-1.522 6.521 4.726 10.293 4.976 3 10.747 5.2 15.9 7.748 1.749-10.929 16.382-2.954 24.425-2.272 12.315 1.091 10.156-4.771 12.224-15.064-4.817.25-11.156 1.681-15.746.159-6.816-2.272-5.771-5.158-6.816-11.5l-7.589 1.386a11.815 11.815 0 0 1 .523 9.952 60.891 60.891 0 0 1-7.112-7.68c-1-1.636-1.091-4.817-2-6.021-3.272-4.34-9.52-7.907-13.769-11.36-5.09 7.248 6.816 12.883 12 15.677-4.93 5.817-6.316 11.633-13.383 5.362 7.952.5 8.839-1.545 4.93-7.021-4.158-5.862-9.656-9.088-15.564-8.748-.909 0-1.613 2.477-2.522 2.567s-3.681-1.84-4.544-1.409-2.431-.545-3.2-.2.386 3.113 0 3.476c-3.476 3.09-6.021 7.816-9.088 10.974-4.067 4.249-8.429 8.066-14.655 4.544-4.544-2.658-6.226-11.7-3.226-16.45 3.658-5.794 11.724 1.431 16.973-2.477s-1.795-9.906-4.544-12.928a88.6 88.6 0 0 0 12.565-4.794c4.544-2.613 3.249-4.681 6.953-7.407 2.863-2.136 4.794-.818 6.657-3.249 2.749-3.567-3.272-7.339 4.794-7.7-4.408 11.36 15.473 9.952 21.221 5.885 1.227-.863.159-3.749 1.022-4.976a27.665 27.665 0 0 1 3.545-2.976v-3.022h3.863c2.59-1.909 4.362 1.568 5.635-3.113-5.589.954-8.793 3-12.36-.636-5.044-5.135-.727-6.362 3.749-9.952-8.2-5.862-20.267 10.724-10.224 12.2-1.886 2.272-6.953 11.474-9.747 12.065-5.567 1.2-4.544-6.544-5.294-10.315-3.726 1.477-6.248 3.317-8.77 1.727-2.908-1.818-2.817-6.68-1.977-8.18 1.727-3.067 9.634-4.112 12.633-6.5s4.544-7.316 8-9.52c11.519-7.543 34.309-4.771 44.828 3.294-4.794 2.908-10.77 1-16.041.386 3.09 4.09 7.407 9.088 13.019 7.339.7-.227 2.022-3.817 3.34-4.658 3.022-1.977 8.225-2.886 11.679-4.113 11.565-4.067 20.449-4.158 32.627-1.931-5.93-15.9 3.658-6.816 14.678-8.793 5.271-.932 10.111-5.09 15.2-6.7a152.72 152.72 0 0 1 17.675-3.405z" data-name="Path 1351" transform="translate(57.38 -199.645)"/>
                    <path id="Path_1352" d="M219.879 249.8l-13.269 2.908c1.454-2.136 5.408-5.93 5.635-8.293.454-5.021-2.272-2.408-3.09-4.272-3.772-7.771-1.727-8.021 5.294-11.929.954 3.84 1.227 9.248 3.158 12.815s7.748 5.232 2.272 8.771z" data-name="Path 1352" transform="translate(75.426 -177.04)"/>
                    <path id="Path_1353" d="M212.615 234.2c-3.863 6.635-.7 6.566-9.725 8.02 2.318-5.363 1-11.452 9.725-8.02z" data-name="Path 1353" transform="translate(70.693 -170.704)"/>
                    <path id="Path_1354" d="M263.571 223.512c-15.7-4.749 8.929-11.656 12.019-12.428-6.407 0-15.337-1.3-20.449 3.726-5.612 5.567 1.045 11.838 8.43 8.702z" data-name="Path 1354" transform="translate(134.501 -199.029)"/>
                    <path id="Path_1355" d="M231.584 214.762l5.68-4.544a28.787 28.787 0 0 0-15.9-1.75z" data-name="Path 1355" transform="translate(94.189 -202.707)"/>
                    <path id="Path_1356" d="M227.25 207.49c4.181 4.544 9.861 2.272 15.427 1.568a206.288 206.288 0 0 0-15.427-1.568z" data-name="Path 1356" transform="translate(101.682 -203.41)"/>
                    <path id="Path_1357" d="M343 269.808a28.788 28.788 0 0 0 4.931 7.2c2.272-9.884 8.452-4.84 14.928-10.838 3.5-3.226 3.249-10.043-1.409-14.655-6.544-6.521-1.318 3.522-3.931 8.134-2.909 5.001-10.77 5.228-14.519 10.159z" data-name="Path 1357" transform="translate(248.927 -150.124)"/>
                    <path id="Path_1358" d="M350.352 255.081l2.022-.75c-.318-.75-.659-1.5-1-2.272 3.726 1.363 7.453 1.341 8.589-2.726l-12.383-5.113c3.454 4.749-1.863 7.294 2.772 10.861z" data-name="Path 1358" transform="translate(254.753 -156.686)"/>
                    <path id="Path_1359" d="M354.332 255.123h3.158a157.755 157.755 0 0 0-15.677-20.9c-2.022 4.655 9.474 16.22 12.519 20.9z" data-name="Path 1359" transform="translate(247.115 -169.407)"/>
                    <path id="Path_1360" d="M339.454 268.44c-3.612 1.613-3.453 5.248-.931 8.293z" data-name="Path 1360" transform="translate(240.886 -125.876)"/>
                    <path id="Path_1361" d="M326.143 274.79h3.863c-1.182 3.613-.682 3.135-4.385 3.567z" data-name="Path 1361" transform="translate(226.818 -117.798)"/>
                    <path id="Path_1362" d="M312.27 291.48c13.337 5.612 26.379 17.5 26.379 31.605-6.93-.546-11.928-9.407-14.791-14.587s-10.202-12.088-11.588-17.018z" data-name="Path 1362" transform="translate(209.836 -96.567)"/>
                    <path id="Path_1363" d="M332.2 305.2l-3.908-.864c-3.794 10.474 8.5 20.449 16.564 12.678 3.726-3.59 2.954-10.247 3.726-14.5 1.091-5.93 3.363-7.975-2.476-12.5z" data-name="Path 1363" transform="translate(229.309 -98.424)"/>
                    <path id="Path_1364" d="M335.56 295.521c2.84-3.431 6.816-6.567 6.816-11.2-2.249 3.816-4.544 7.479-6.816 11.2z" data-name="Path 1364" transform="translate(239.463 -105.675)"/>
                    <path id="Path_1365" d="M342.087 292.469c-4.544-6.339-4.249-8.407-3.681-16.109 5.521.636 2.727 8.361 6.067 12.292 4.817 5.658 10.7 5.612 11.088 14.655.227 5.453-2.772 10.247-8.861 4.363-4.022-3.886-1.341-10.339-4.613-15.201z" data-name="Path 1365" transform="translate(242.683 -115.801)"/>
                    <path id="Path_1366" d="M352.339 296.75c-5.317 2.817-10.452-1.545-13.769 4.749 4.544-3.317 8.111-1.863 13.133-.932a16.983 16.983 0 0 0 .636-3.817z" data-name="Path 1366" transform="translate(243.292 -89.863)"/>
                    <path id="Path_1367" d="M348.157 299.16c-5.18 3.749-7.93-1.227-10.02 5.635-.841 2.749.523 8.611 3.567 8.52-.113-3.272-1.318-6.816 1.318-8.929-.659 3.953.727 6.453 5.135 4.862l-3.681-6.816c1.681.182 3.5-.7 5.18-.5z" data-name="Path 1367" transform="translate(242.43 -86.797)"/>
                    <path id="Path_1368" d="M344.988 310.439c-5.021-1.318-17-7.066-21.108-3.363 5.18 2.295 16.836 8.202 21.108 3.363z" data-name="Path 1368" transform="translate(224.605 -78.286)"/>
                    <path id="Path_1369" d="M349.424 295.44a8.043 8.043 0 0 0-1.272 9.838 12.814 12.814 0 0 0 1.272-9.838z" data-name="Path 1369" transform="translate(254.046 -91.529)"/>
                    <path id="Path_1370" d="M347.66 302.219c.614 2.976 3.863 2.272 7.271 2.613-.682-3.249-3.749-3.386-7.271-2.613z" data-name="Path 1370" transform="translate(254.855 -83.403)"/>
                    <path id="Path_1371" d="M346.83 302l1.386 1.318a3.636 3.636 0 0 1-2.635 0z" data-name="Path 1371" transform="translate(252.209 -83.184)"/>
                    <path id="Path_1372" d="M351.08 300.49c0 6.816 6.589 8.884 11.36 11.042s10.27 4.34 2.772 9.225c3.613-.523 6.7 1.863 9.543 1.613a31.266 31.266 0 0 0 4.544 0c1.181-.273 1.795-4.226 2.976-4.249 3.477 0 3.022 1.3 6.112 3.522a22.422 22.422 0 0 0 9.747 4.976c-4.2-5.089-8.838-13.269-13.973-17.177-2.272-1.727-11.906-6.135-15-6.2-3.681 0-4.771 1.409-8.316 4.09-1.358-4.57-3.445-10.864-9.765-6.842z" data-name="Path 1372" transform="translate(259.206 -86.741)"/>
                    <path id="Path_1373" d="M368.83 307.12c4 2.977 15.9 2.068 12.133-4.34-3.454 4.84-6.475 4.34-12.133 4.34z" data-name="Path 1373" transform="translate(281.785 -82.192)"/>
                    <path id="Path_1374" d="M382.228 311.861C380.524 314 376.456 321.4 374 322.2c-3.817 1.2-5.294-2.477-8.27-1.931-6.521 1.227-13.474 12.746-19.131 16.064-9.815 5.726-15.018 4.158-16.427 16.836-.5 4.658 1.908 10.065.818 14.61-1 4.2-6.816 6.112.682 8.452 7.112 2.272 21.471-5.907 28.992-7.316 4.044-.772 5.862-2.272 9.884 0 3.227 1.886 3.34 5.408 5.521 8.589 13.428 19.653 36.354.136 44.192-14.246 5.294-9.634 2.681-17.472-3.249-26.084-2.545-3.681-4.022-4.544-5.7-8.7-2.09-5.18-2.795-11.361-4.158-16.7l-8.93 18.177c-8.429-6.248-11.36-5.7-6.385-14.769z" data-name="Path 1374" transform="translate(229.717 -70.756)"/>
                    <path id="Path_1375" d="M353.64 346.64l10.611.659c-3.113 4.09-5.112 9.725-11.36 7.975z" data-name="Path 1375" transform="translate(261.508 -26.398)"/>
                    <path id="Path_1376" d="M370.65 360.616c8.134 4.294 8.225 2.772 15.9-2.272 4.135-2.726 14.814-6.18 9.088-11.724z" data-name="Path 1376" transform="translate(284.101 -26.423)"/>
                    <path id="Path_1377" d="M382.59 355.837a19.617 19.617 0 0 0 2.7 3.317c2.272-1.818 12-7.407 12.36-9.929s-5.43-7.5-7.316-9.816z" data-name="Path 1377" transform="translate(299.29 -35.595)"/>
                    <path id="Path_1378" d="M401.274 318.88a22.133 22.133 0 0 0-3.794 2.113c3.454 2.545 7.589 2.249 3.794-2.113z" data-name="Path 1378" transform="translate(318.231 -61.711)"/>
                    <path id="Path_1379" d="M382.29 322.828s10.588 8.134 9.747 5.612c-1.068-3.159-6.611-5.84-9.747-5.612z" data-name="Path 1379" transform="translate(298.908 -56.707)"/>
                    <path id="Path_1380" d="M334.52 308.31c1.454 5.249 19.7 1.181 25.13 0z" data-name="Path 1380" transform="translate(238.14 -75.157)"/>
                    <path id="Path_1381" d="M338.57 310.06c1.136 2.545 7.2 5.294 8.839 2z" data-name="Path 1381" transform="translate(243.292 -72.931)"/>
                    <path id="Path_1382" d="M271.522 313.13c-5.18 4.68-11.7 8.588-13.246 15.2-.818 3.454-3.317 17.9-.273 20.131 7.044 5.18 9.407-10.838 10.77-14.609 3.067-8.566 4.727-11.929 2.749-20.722z" data-name="Path 1382" transform="translate(138.933 -69.026)"/>
                    <path id="Path_1383" d="M201.456 222.972c5.226 1.409 7.725-.227 12.451-2.272-2.59-2.295-19.199-3.317-12.451 2.272z" data-name="Path 1383" transform="translate(66.833 -188.946)"/>
                    <path id="Path_1384" d="M214.83 387.694c-4.385 7.271-8.5 13.133-10 21.312-2 10.906.886 13.633 6.657 23.471a45.739 45.739 0 0 0 5.839 9.52c3.363 3.431 9.088 4.68 12.61 8.089 5.317 5.317 4.09 10.134 4.544 18.177 1.091 17.109.386 34.286 6.021 50.622 2.84 8.248 4.408 15.087 10.088 21.608 8.134 9.361 11.111 9.634 23.357 9.634-9.974-7.884-14.132-9.088-14.36-21.085-.227-11.042-1.159-14.223 5.658-22.721 12.815-15.9 30.56-31.81 37.4-50.781q3.363-9.339 6.7-18.677c1.3-3.59 7.157-13.474 6.2-17.268-1.341-5.294-19.336-9.27-25.72-11.679-2.7-1.045-8.475-2.09-10.406-4.158-3.635-3.863-2.408-11.679-5.817-15.746-4.544-5.476-22.994-11.815-30.173-13.905-5.158-1.5-7.044-1.272-12.951-.432-5.2.727-10.929 3.454-15.428 4.067a41.137 41.137 0 0 1-11.36-1.568c-6.453-3.363-3.431-10.088-2.522-15.337l-12.656-1.477 6.816-15.9c-5.339 1.522-6.612 3.658-10.452 5.635-2.5 1.272-7.793 4.294-10.861 2.7-6.816-3.545-5.635-18.177-1.59-23.494 3.408-4.544 16.041-7.748 22.562-8.407 12.951-1.3 12.428 4.544 16.018 14.587 4.862-6.158-.659-12.61 2.272-18.4 2.431-4.681 12.269-7.748 16.2-11.747 11.111-11.224 15.45-20.222 31.15-25.743v3.309l13.473-5.317H264.5a15.109 15.109 0 0 1 2.886-7.294l-10.111 1.5c8.5-4.544 21.562-2.886 28.788-7.475 7.68-4.885-1.886-16.973-4.7-23.062l-9.27 5.476c-3.476-4.976 2.976-6.294-5.135-9.338-6.816-2.522-7.839 0-11.5 4.181s-13.633 23.925-19.767 23.9c1.795-7.543 4.022-8.452-1.931-11.77-3.908-2.272-16.95-1.227-15.064-9.088 1.3-5.385 24.062-14.314 29.81-17.586-1.045 1.909-1.272 4.2-2.272 6.135l10.974-.159-6.816-5.976c8.566-1.068 10.111-.454 14.337-7.634-5.589-1.091-9.384 2.272-13.814 4.976 1.182-6.135-5.68-4.044-10.179-4.112l-30.946-.477c-8.02 0-16.245-.773-24.243-.364-5.976.318-12.042 2.59-17.972 2.545-15.019 0-25.266-6.475-40.284-2.976-15.9 3.681-24.993 10.974-38.33 20.153a571.406 571.406 0 0 0 4.885 5.635l-11.36 7.975c11.838-3.976 28.219-13.042 40.534-12.428 7.157.364 14.791 2.545 16.586 7.816s.568 14.61-.954 19.722c-3.454 11.633-20.653 29.106-12.519 42.284 1.045 1.7 4.544 1.909 5.68 3.726 1.931 3.067.25 9.77 1.091 13.337 1.045 4.544 4.544 14.064 10.429 13.792-3.84-8.679-6.43-14.769-7.248-24.039 6.816 1.886 13.451 18.177 14.7 23.766.545 2.454-.591 5.907.386 7.861 1.318 2.636 10.77 7.861 13.314 8.929 3.544 1.477 8.18 0 11.542 1.568 2.5 1.113 6.589 5.749 9.088 7.521 1.863 1.3 4.2 1.023 5.862 2.477s2.272 4.771 3.885 6.566c2.886 3.09 7.793 5 11.61 7.157 2.155-9.423 7.267 3.255 8.358 5.891z" data-name="Path 1384" transform="translate(-82.48 -191.372)"/>
                    <path id="Path_1385" d="M134.54 272.87c9.247-3.567 14.7 7.225 23.925 5.476-9.906-5.135-13.473-9.452-23.925-5.476z" data-name="Path 1385" transform="translate(-16.255 -122.218)"/>
                    <path id="Path_1386" d="M147.692 274.94c4.544.477 10.815-.682 12.133 4.158-5.476.977-10.088 2.567-15.155-.5 1.7 0 3.522-.682 5.226-.75z" data-name="Path 1386" transform="translate(-3.368 -117.607)"/>
                    <path id="Path_1387" d="M140.62 276.22a45.718 45.718 0 0 1 4.885 1.068 19.184 19.184 0 0 1-4.885 1.84z" data-name="Path 1387" transform="translate(-8.52 -115.979)"/>
                    <path id="Path_1388" d="M152.41 276.22a4.272 4.272 0 0 0 5.226 1.454c-1.613-.474-3.454-1.068-5.226-1.454z" data-name="Path 1388" transform="translate(6.478 -115.979)"/>
                    <path id="Path_1389" d="M176.5 237.83l-8.452 8.089 14.655 3.658c-.2-2.113.273-6.294-.773-8.225-1.247-2.409-5.905 2.158-5.43-3.522z" data-name="Path 1389" transform="translate(26.374 -164.815)"/>
                    <path id="Path_1390" d="M180.491 227.627l-14.473 6.453c4.2 1.5 13.633 6.975 17.881 6.316s11.133-8.316 14.655-10.952c-4.544-4.249-10.929-12.86-16.791-14.928a25.652 25.652 0 0 0-23.493 4.544c1.59 1.34 3.908 4.34 5.907 4.976 1.386.454 3.817-2.09 5.271-1.84 4.113.704 9.68 1.182 11.043 5.431z" data-name="Path 1390" transform="translate(13.932 -195.873)"/>
                    <path id="Path_1391" d="M167.819 218.79c-6.453 1.863-2.545 3.863 1.863 1.409z" data-name="Path 1391" transform="translate(21.743 -189.036)"/>
                    <path id="Path_1392" d="M154.728 226.779c-9.884-6.816 10.361-14.269 16.177-14.269-2.976 1.727-9.611 4.112-11.133 6.816-1.972 3.658 2.841 9.679-5.044 7.453z" data-name="Path 1392" transform="translate(6.022 -197.024)"/>
                    <path id="Path_1393" d="M138.137 226.193c0-2.726 3.863-7.316 5.2-9.793-3.931 1.045-9.725 4.726-11.361 0 7.134-2.408 11-4.317 18.04-3 8.225 1.545 10.611 3.113 19.018 1.681-1.522 3.863-3.431 6.953-2.272 11.111z" data-name="Path 1393" transform="translate(-19.511 -196.439)"/>
                    <path id="Path_1394" d="M139.73 212.529c10.247 4.862 15.9 3.363 27.265 2.068-3.863-.863-9.088-3.772-12.656-4.226-4.271-.546-10.269 1.544-14.609 2.158z" data-name="Path 1394" transform="translate(-9.652 -199.861)"/>
                    <path id="Path_1395" d="M156.329 213.143a37.306 37.306 0 0 0-6.589 1.818 14.177 14.177 0 0 0 2.7 3.976l9.429-5.794a50.136 50.136 0 0 0-5.54 0z" data-name="Path 1395" transform="translate(3.081 -196.317)"/>
                    <path id="Path_1396" d="M154.19 218.7c4.408 2.863 17.291 1.522 22.585 1.909 7.294.545 8.725 0 15.269-3.249 12.019-6.044 24.221-8.043 37.49-10.952-13.792 0-28.7-1.613-42.352 0-7.408.892-32.515 3.548-32.992 12.292z" data-name="Path 1396" transform="translate(8.742 -205.694)"/>
                    <path id="Path_1397" d="M177.8 215.187c11.838-3.658 21.63-6.521 34.082-7.339a164.186 164.186 0 0 1 36.354 1.477c-5.612 5.7-11.883 15.041-19.108 18.495-5.226 2.5-12.383 1.409-17.609 3.908-4.044 1.954-7.725 6.521-11.111 9.429-8.543 7.43-12.61-.841-11.133-9.656.591-3.635 5.135-9.929 1.091-13.633-2.887-2.34-9.34.068-12.566-2.681z" data-name="Path 1397" transform="translate(38.776 -203.473)"/>
                </g>
            </g>
            <path id="Path_1398" d="M214.8 433.926a2.272 2.272 0 0 1-2.272-2.272v-30.492a2.272 2.272 0 0 1 4.544 0v30.492a2.272 2.272 0 0 1-2.272 2.272z" class="cls-4" data-name="Path 1398" transform="translate(40.148 68.344)"/>
            <path id="Path_1399" d="M315.119 420.51c0 3.681-29.151 6.657-65.118 6.657s-65.141-2.976-65.141-6.657 29.174-12.86 65.14-12.86 65.119 9.179 65.119 12.86z" class="cls-4" data-name="Path 1399" transform="translate(4.949 79.488)"/>
        </g>
    </g>
</svg>
