<svg xmlns="http://www.w3.org/2000/svg" width="674" height="667.933" viewBox="0 0 674 667.933">
    <defs>
        <style>
            .cls-1{fill:#d3d4e9}.cls-2,.cls-5{fill:#e3e4f2}.cls-3{fill:#b5b7d6}.cls-4{fill:#fff}.cls-5{opacity:.4}.cls-6{fill:#5987e4}.cls-7{fill:#184bb8}.cls-8{fill:#3a6cd6}.cls-9{fill:none}.cls-10{fill:#b78876}.cls-11{fill:#a36957}.cls-12{fill:#e4b26d}.cls-13{fill:#14365b}
        </style>
    </defs>
    <g id="_4" data-name="4" transform="translate(0 .006)">
        <g id="Background_2" data-name="Background 2" transform="translate(29.664 -.006)">
            <path id="Path_1104" d="M215.555 49.893c-5.292-7.971-16.405-8.914-24.128-3.837s-11.576 11.411-13.495 21.2a30.462 30.462 0 0 0-12.222-22.324c-7.31-5.739-18.539-5.772-24.558 1.654a23.351 23.351 0 0 0-4.316 16.538c.5 5.838 1.885 11.94 5.242 16.422 11.99 15.959 18.77 18.985 34.547 30.644 16.538-10.237 21.9-12.734 35.142-27.585 3.721-4.167 5.623-10.138 6.615-15.909a23.483 23.483 0 0 0-2.827-16.803z" class="cls-1" data-name="Path 1104" transform="translate(-13.956 -40.804)"/>
            <path id="Path_1105" d="M79.043 91.7A9.923 9.923 0 0 0 80.7 80.865a9.377 9.377 0 1 0-17.133 7.492 9.923 9.923 0 0 0 9.211 6.1c-12.287 7.789-5.358 21.83-5.358 21.83l31.157-13.61S92.951 87.91 79.043 91.7z" class="cls-2" data-name="Path 1105" transform="translate(-62.467 -18.722)"/>
            <path id="Path_1106" d="M425.552 243.825a19.564 19.564 0 0 0 16.256-14.125c3.076-10.369-2.315-21.1-12.039-23.98s-20.077 3.192-23.153 13.561a19.547 19.547 0 0 0 6.119 20.8c-28.3-3.8-35.655 26.014-35.655 26.014l64.034 18.969s10.137-29.348-15.562-41.239z" class="cls-3" data-name="Path 1106" transform="translate(143.215 66.547)"/>
            <path id="Path_1107" d="M368.268 362.642a11.742 11.742 0 0 0-11.775-11.742l-252.281.38a11.742 11.742 0 0 0-11.742 11.775l.116 77.561a11.758 11.758 0 0 0 11.775 11.742l219.206-.331 29.057 29.437v-29.47h4.068a11.742 11.742 0 0 0 11.742-11.775z" class="cls-1" data-name="Path 1107" transform="translate(-42.852 161.925)"/>
            <path id="Path_1108" d="M118.868 409.539h.265l-.513-8.269z" class="cls-2" data-name="Path 1108" transform="translate(-25.756 194.855)"/>
            <path id="Path_1109" d="M142.008 356.09a42.2 42.2 0 0 0-23.913 76.95 206.453 206.453 0 0 1-3.308-35.192h-.215c0-.695.182-1.736.281-2.811a39.528 39.528 0 0 1 .513-3.952c4.8-20.391 22.094-24.492 25.534-24.558 3.688 0 10.088-2.266 19.68 7.574a19.167 19.167 0 0 1 4.647 20.722c.182 6.615.3 13.941.116 18.539-.4 9.724-9.923 10.948-9.923 10.948s-.463 8.368-.6 14.239a42.2 42.2 0 0 0-12.767-82.457z" class="cls-2" data-name="Path 1109" transform="translate(-38.031 165.318)"/>
            <path id="Path_1110" d="M143.336 417.612c-9.493.579-12.469-6.516-12.469-6.516a23.152 23.152 0 0 0 12.635 4.118s9.542-1.224 9.923-10.948c.182-4.6 0-11.99-.116-18.539l-1.654-1.439-13.809-3.423c1.025-3.853-.678-8.583-1.654-10.783l-.1-.083C133.612 384.6 118 386.422 118 386.422l1.042 35.374.513 8.269a42.452 42.452 0 0 0 23.368-.6c.132-5.871.6-14.239.6-14.239zm-7.343-27.6a1.24 1.24 0 1 1 1.191-1.257 1.224 1.224 0 0 1-1.191 1.257zm14.057-.265a1.24 1.24 0 1 1 1.191-1.257 1.207 1.207 0 0 1-1.191 1.257zm-1.935-3.539a3.093 3.093 0 0 1 1.935-.562 3.126 3.126 0 0 1 1.885.728c.4.347.529.661.447.728a8.271 8.271 0 0 0-2.365-.645c-1.306-.05-2.282.612-2.415.447s.166-.366.513-.697zm-5.705.711a51.094 51.094 0 0 1 2.646 7.029l.91 2.778a2.2 2.2 0 0 1 .149 1.406.827.827 0 0 1-.562.5 1.788 1.788 0 0 1-.562 0 8.151 8.151 0 0 1-2.15-.083 8.04 8.04 0 0 1 2.133-.331c.331 0 .645-.083.711-.314a2.051 2.051 0 0 0-.215-1.075l-.943-2.762a49.236 49.236 0 0 1-2.117-7.144zm2.5 15.148a3.589 3.589 0 0 1-4.316 1.356 2.828 2.828 0 0 1-2.051-3.456c-1.34-.876 3.7 2.15 6.367 2.1zm-11.279-15.529a3.142 3.142 0 0 1 1.951-.546 3.043 3.043 0 0 1 1.869.728c.4.331.529.645.463.728a8.066 8.066 0 0 0-2.365-.645c-1.306-.033-2.282.612-2.431.43s.097-.447.51-.695z" class="cls-1" data-name="Path 1110" transform="translate(-26.162 174.412)"/>
            <path id="Path_1111" d="M137.84 380.44a1.24 1.24 0 1 0 0 2.481 1.207 1.207 0 0 0 1.191-1.257 1.224 1.224 0 0 0-1.191-1.224z" class="cls-3" data-name="Path 1111" transform="translate(-14.002 181.238)"/>
            <path id="Path_1112" d="M138.32 380.322c1.306 0 2.216.81 2.365.645s0-.38-.447-.728a3.125 3.125 0 0 0-1.885-.728 3.093 3.093 0 0 0-1.935.562c-.43.314-.579.612-.513.695a6.049 6.049 0 0 1 2.415-.446z" class="cls-3" data-name="Path 1112" transform="translate(-14.465 180.628)"/>
            <path id="Path_1113" d="M129.34 380.6a1.24 1.24 0 1 0 1.24 1.224 1.24 1.24 0 0 0-1.24-1.224z" class="cls-3" data-name="Path 1113" transform="translate(-19.559 181.342)"/>
            <path id="Path_1114" d="M129.577 380.442c1.306 0 2.216.81 2.365.645s0-.4-.463-.728a3.043 3.043 0 0 0-1.869-.728 3.142 3.142 0 0 0-1.951.546c-.413.314-.579.612-.513.695a8.816 8.816 0 0 1 2.431-.43z" class="cls-3" data-name="Path 1114" transform="translate(-20.192 180.706)"/>
            <path id="Path_1115" d="M135.819 390.176a2.05 2.05 0 0 1 .215 1.075c0 .232-.38.3-.711.314a8.039 8.039 0 0 0-2.133.331 8.155 8.155 0 0 0 2.15.083 1.787 1.787 0 0 0 .562 0 .827.827 0 0 0 .562-.5 2.2 2.2 0 0 0-.149-1.406l-.91-2.778a51.11 51.11 0 0 0-2.646-7.029 49.235 49.235 0 0 0 2.117 7.21z" class="cls-3" data-name="Path 1115" transform="translate(-16.512 181.127)"/>
            <path id="Path_1116" d="M132.559 391.64a3.589 3.589 0 0 0 4.316-1.356c-2.663 0-7.707-2.977-6.367-2.1a2.828 2.828 0 0 0 2.051 3.456z" class="cls-4" data-name="Path 1116" transform="translate(-18.13 186.195)"/>
            <path id="Path_1117" d="M125.78 394.85s2.977 7.095 12.469 6.516l.165-2.4a23.152 23.152 0 0 1-12.635-4.118z" class="cls-3" data-name="Path 1117" transform="translate(-21.076 190.658)"/>
            <path id="Path_1118" d="M124.047 391.478s15.612-1.819 18.092-16.422l.1.083c.959 2.2 2.663 6.929 1.654 10.783l13.941 3.423 1.654 1.439a19.167 19.167 0 0 0-4.73-20.689c-9.592-9.84-15.992-7.64-19.68-7.574-3.44 0-20.738 4.168-25.534 24.558a39.519 39.519 0 0 0-.513 3.952c-.1 1.075-.2 2.117-.281 2.811h.215a206.456 206.456 0 0 0 3.307 35.192 42.174 42.174 0 0 0 13.048 6.036l-.248-8.186z" class="cls-3" data-name="Path 1118" transform="translate(-32.209 169.356)"/>
            <path id="Rectangle_46" d="M0 0h132.648v7.31H0z" class="cls-2" data-name="Rectangle 46" transform="rotate(180 146.813 275.075)"/>
            <path id="Rectangle_47" d="M0 0h132.648v7.31H0z" class="cls-2" data-name="Rectangle 47" transform="rotate(180 146.823 284.485)"/>
            <path id="Rectangle_48" d="M0 0h65.754v7.31H0z" class="cls-2" data-name="Rectangle 48" transform="rotate(180 146.824 293.624)"/>
            <path id="Path_1119" d="M388.211 180.556a5.722 5.722 0 0 0-7.988.463 9.791 9.791 0 0 0-2.811 7.723 9.922 9.922 0 0 0-5.474-6.268 5.788 5.788 0 0 0-7.723 2.266 7.69 7.69 0 0 0-.232 5.573 10.568 10.568 0 0 0 2.845 4.961c4.961 4.25 7.326 4.746 13.23 7.359 4.6-4.449 6.1-5.623 9.294-11.3a10.55 10.55 0 0 0 .992-5.54 7.673 7.673 0 0 0-2.133-5.242z" class="cls-2" data-name="Path 1119" transform="translate(134.382 49.642)"/>
            <path id="Path_1120" d="M96.962 50.49l2.166 4.416 4.879.711-3.523 3.423.827 4.862-4.349-2.3L92.6 63.9l.827-4.862-3.527-3.421 4.879-.711z" class="cls-3" data-name="Path 1120" transform="translate(29.11 33.019)"/>
            <path id="Path_1121" d="M50.281 113.67l3.952 7.988 8.815 1.273-6.384 6.218 1.5 8.781-7.883-4.13-7.872 4.134 1.5-8.781-6.384-6.218 8.815-1.273z" class="cls-3" data-name="Path 1121" transform="translate(-5.128 74.324)"/>
            <path id="Path_1122" d="M80.623 116.95l1.091 2.2 2.431.364-1.753 1.72.413 2.431-2.183-1.158-2.166 1.158.413-2.431-1.77-1.72 2.431-.364z" class="cls-3" data-name="Path 1122" transform="translate(20.741 76.468)"/>
        </g>
        <g id="Background_1" data-name="Background 1" transform="translate(47.193 60.186)">
            <path id="Path_1123" d="M75.371 264.637C93.81 409.837 166.328 513.23 379.2 552.953c118.376 22.094 334.242-48.472 320-177.3C683.393 232.587 534.356 292.5 411.448 246.4 337.856 218.811 298.629 68.7 179.343 77.58 85.045 84.592 65.5 186.91 75.371 264.637z" class="cls-5" data-name="Path 1123" transform="translate(-73.067 -77.201)"/>
        </g>
        <g id="Objects" transform="translate(0 34.684)">
            <path id="Path_1124" d="M361.307 499.21c-34.068-23.8-41.791-67.97-40.451-107.676.232-6.615-.5-13.627 2.646-19.432s10.518-9.79 16.538-7.012c4.961 2.332 7.062 8.054 9.823 12.784a38.714 38.714 0 0 0 15.545 14.884c4.217 2.183 9.443 3.523 13.594 1.224 5.722-3.142 6.4-11.047 6.35-17.646q-.1-18.423-.215-36.862c0-6.615 0-13.313 1.984-19.564s6.615-12.072 12.85-13.842 14.024 1.869 15.347 8.269c.562 2.679 0 5.474.2 8.269s1.455 5.772 4.052 6.532 5.276-1.091 7.244-3.026c6.8-6.615 11.411-15.231 15.727-23.748s8.5-17.265 14.685-24.525 14.718-13.015 24.145-13.544 19.514 5.292 21.9 14.553-3.026 18.737-8.93 26.245a147.036 147.036 0 0 1-30.649 29.207c-2.067 1.488-4.333 3.076-5.127 5.524-1.422 4.382 2.745 8.748 7.078 10.2 4.961 1.654 10.237 1.125 15.38 1.654s10.716 2.878 12.651 7.74c2.712 6.731-2.927 13.792-8.467 18.423a126 126 0 0 1-37.309 21.5c-4.862 1.786-9.923 3.308-13.875 6.747s-6.268 9.327-3.9 13.974 8.434 6.135 13.511 5.193 9.625-3.7 14.47-5.524c9.046-3.423 20.755-2.795 26.559 4.961 3.8 5.143 4.151 12.321 2.216 18.456s-5.838 11.411-9.923 16.29c-14.52 17.034-33.075 30.743-54.128 38.036s-40.484 9.261-61.371 1.654" class="cls-6" data-name="Path 1124" transform="translate(136.029 70.594)"/>
            <path id="Path_1125" d="M344.94 526.477a290.428 290.428 0 0 1 10.766-54.326 592.538 592.538 0 0 1 23.45-63.6l7.012-16.356c2.315-5.358 4.6-10.683 7.161-15.744a296.276 296.276 0 0 1 16.389-28.251c5.656-8.732 11.328-16.819 16.7-24.343s10.518-14.4 15.479-20.507a234.31 234.31 0 0 1 25.518-26.973q4.961-4.415 7.624-6.615l2.034-1.654a3.5 3.5 0 0 1 .728-.529 4.618 4.618 0 0 1-.645.612l-1.935 1.736a318.513 318.513 0 0 0-7.475 6.764 248.841 248.841 0 0 0-25.137 27.221c-4.961 6.1-9.923 13.015-15.33 20.54s-10.964 15.628-16.538 24.36a297.258 297.258 0 0 0-16.273 28.114c-2.547 5.044-4.812 10.3-7.111 15.694l-7 16.339a603.825 603.825 0 0 0-23.5 63.438 294.263 294.263 0 0 0-10.981 54.094" class="cls-7" data-name="Path 1125" transform="translate(151.867 72.764)"/>
            <path id="Path_1126" d="M378.215 362.054a14.023 14.023 0 0 1-.645-2.811c-.347-1.819-.761-4.465-1.224-7.756-.926-6.615-1.9-15.678-2.944-25.716s-2.15-19.118-3.175-25.65c-.513-3.307-.943-5.9-1.273-7.723a13 13 0 0 1-.364-2.878 14.021 14.021 0 0 1 .827 2.778c.463 1.786 1.042 4.416 1.654 7.673 1.24 6.516 2.5 15.611 3.539 25.666s1.9 18.886 2.6 25.749c.331 3.092.612 5.689.827 7.789a12.961 12.961 0 0 1 .182 2.878z" class="cls-7" data-name="Path 1126" transform="translate(167.328 87.108)"/>
            <path id="Path_1127" d="M459.133 323.844a18.074 18.074 0 0 1-3.308.414c-2.183.2-5.325.446-9.211.909-7.756.827-18.439 2.365-30.148 4.564s-22.227 4.7-29.768 6.714c-3.787.976-6.83 1.836-8.93 2.431a17.945 17.945 0 0 1-3.307.81 17.909 17.909 0 0 1 3.175-1.273c2.067-.728 5.077-1.654 8.831-2.811 7.525-2.216 18.043-4.829 29.768-7.078a290.781 290.781 0 0 1 30.3-4.234c3.9-.331 7.078-.463 9.261-.513a18.773 18.773 0 0 1 3.341.066z" class="cls-7" data-name="Path 1127" transform="translate(171.166 109.475)"/>
            <path id="Path_1128" d="M368.95 433.119a7.369 7.369 0 0 1-.6-1.025c-.347-.695-.86-1.836-1.439-3.059-1.257-2.679-2.96-6.615-4.961-11.444-4.085-9.708-9.311-23.3-14.884-38.367s-10.666-28.711-14.531-38.484c-1.9-4.763-3.473-8.666-4.63-11.576-.5-1.257-.91-2.3-1.24-3.159a4.447 4.447 0 0 1-.364-1.125 4.634 4.634 0 0 1 .579 1.025c.4.827.876 1.836 1.455 3.076 1.24 2.663 2.944 6.615 4.961 11.427 4.085 9.708 9.311 23.3 14.884 38.384s10.65 28.693 14.537 38.467c1.9 4.763 3.456 8.666 4.631 11.576.5 1.257.909 2.3 1.24 3.159a5.537 5.537 0 0 1 .364 1.125z" class="cls-7" data-name="Path 1128" transform="translate(139.681 110.225)"/>
            <path id="Path_1129" d="M464.724 368.38a4.189 4.189 0 0 1-1.125.463l-3.307 1.108-12.072 3.9c-10.171 3.307-24.195 8.021-39.69 13.23s-29.536 9.923-39.806 12.932c-5.127 1.555-9.278 2.762-12.172 3.539l-3.308.876a3.967 3.967 0 0 1-1.174.215 4.579 4.579 0 0 1 1.108-.463l3.308-1.091 12.006-3.919c10.187-3.308 24.195-8.021 39.69-13.23s29.553-9.84 39.806-12.932c5.127-1.555 9.294-2.762 12.188-3.539l3.308-.876a5.708 5.708 0 0 1 1.24-.213z" class="cls-7" data-name="Path 1129" transform="translate(156.528 138.663)"/>
            <path id="Path_1130" d="M422.524 686.553L213.9 687.909a45.412 45.412 0 0 1-45.727-45.115l-3.655-523a45.462 45.462 0 0 1 45.148-45.76L418.34 72.66a45.429 45.429 0 0 1 45.677 45.214l3.655 523a45.462 45.462 0 0 1-45.148 45.677z" class="cls-8" data-name="Path 1130" transform="translate(33.915 -54.667)"/>
            <path id="Path_1131" d="M412.725 83.58l-40.451.265a10.038 10.038 0 0 0-9.74 10.355v7.326a10.055 10.055 0 0 1-9.757 10.336l-78.818.529a10.038 10.038 0 0 1-9.923-10.2v-7.332a10.071 10.071 0 0 0-9.923-10.2l-14.222.083-35.39.248a31.8 31.8 0 0 0-31.62 32.033l3.555 510.477a31.819 31.819 0 0 0 32.033 31.6l208.192-1.356a31.835 31.835 0 0 0 31.62-32.05l-3.556-510.483a31.835 31.835 0 0 0-32-31.631z" class="cls-4" data-name="Path 1131" transform="translate(39.38 -47.528)"/>
            <path id="Path_1132" d="M285.4 208.834c-5.92.695-10.022-2.53-11.014-6.284h-.116l-.38 9.774a3.059 3.059 0 0 1 1.058.1 81.674 81.674 0 0 1 8.914 1.34 16.321 16.321 0 0 1 1.538-4.93z" class="cls-9" data-name="Path 1132" transform="translate(105.417 30.25)"/>
            <path id="Path_1133" d="M291.651 213.717a9.179 9.179 0 0 0-.711-4.961v-.116a17.234 17.234 0 0 1 0 6.946h.232a9.661 9.661 0 0 0 .479-1.869z" class="cls-9" data-name="Path 1133" transform="translate(116.563 34.231)"/>
            <path id="Path_1134" d="M288.172 173.31v.976a97.95 97.95 0 0 1-.992 18.291A35.161 35.161 0 0 0 289.115 181a33.963 33.963 0 0 0-.943-7.69z" class="cls-9" data-name="Path 1134" transform="translate(114.105 11.134)"/>
            <path id="Path_1135" d="M282.66 424.832l2.927.447v-.179l-4.167-.447z" class="cls-10" data-name="Path 1135" transform="translate(110.34 175.451)"/>
            <path id="Path_1136" d="M263.469 438.4c0-.413-.1-.843-.132-1.24a64.876 64.876 0 0 1-.132-10.634c.1-1.24.231-2.216.347-2.861a7.227 7.227 0 0 1 .182-.926 1343.013 1343.013 0 0 0-16.339-1.654l-9.195-.926 1.439 18.423z" class="cls-10" data-name="Path 1136" transform="translate(82.084 172.515)"/>
            <path id="Path_1137" d="M269.134 423.4c-5.408-.612-10.551-1.191-15.347-1.654 0 .314-.1 1.654-.149 3.82a76.605 76.605 0 0 0 .48 10.518 8.865 8.865 0 0 0 .182 1.307l52.193-.347c-1.555-4.961-2.5-8.07-2.646-8.748a3.828 3.828 0 0 1 0-.529l-2.993-.38c-8.204-1.122-19.4-2.544-31.72-3.987z" class="cls-10" data-name="Path 1137" transform="translate(92.163 173.555)"/>
            <path id="Path_1138" d="M253.8 425.51c0-2.183.182-3.506.149-3.82a7.217 7.217 0 0 0-.182.926 32.079 32.079 0 0 0-.347 2.861 64.877 64.877 0 0 0 .132 10.634c0 .4.1.827.132 1.24h.794a11.817 11.817 0 0 0-.182-1.307 76.6 76.6 0 0 1-.5-10.535z" class="cls-11" data-name="Path 1138" transform="translate(91.933 173.515)"/>
            <path id="Path_1139" d="M235.751 291.525L227.366 282l.81-.827c-6.1 4.7-10.634 7.558-11.031 6.053-7.326-26.741-6.433-61.189-5.739-74.32.711-1.158 1.5-2.431 2.464-3.82a17.844 17.844 0 0 1 4.068-4.2 26.363 26.363 0 0 1 6.268-3.737c2.133-.678 2.415-3.556.513-4.2S216.881 198 211.49 202.8s-3.473-6.284-2.828-10.319 2.018-16.653.926-17.811c-1.654-1.654-3.754-.248-4.3 3.82s-3.026 16.124-5.16 15.727 1.439-20.953 1.439-20.953 1.472-4.283-.976-4.812c-4.4-.943-6.615 21.152-6.7 23.268-.1 1.455-2.431 1.125-2.233-.447s4-20.457-.48-21.5c-3.423-.761-1.918 18.191-4.879 21.714s.331-14.52-2.993-15.132c-1.224-.232-2.183-.215-2.58 10.369a232.747 232.747 0 0 0 1.654 25.518c-2.1 29.123-5.309 118.194 34.729 114.01 16.438-1.654 28.329-7.376 36.879-14.024l-17.828-20.275z" class="cls-10" data-name="Path 1139" transform="translate(44.512 7.939)"/>
            <path id="Path_1140" d="M270.17 318.984l33.423.976c.149-10.187.3-20.11.446-29.669a13.636 13.636 0 0 1-.48-1.389v-1.472c-9.625-.232-20.672-.5-32.629-.81q-.43 15.661-.76 32.364z" class="cls-12" data-name="Path 1140" transform="translate(102.985 85.212)"/>
            <path id="Path_1141" d="M267.554 286.546L248.371 286c-.4 10.419-.794 21.251-1.191 32.348l17.679.463 19.481.529c.232-11.13.513-21.945.81-32.364z" class="cls-12" data-name="Path 1141" transform="translate(87.955 84.807)"/>
            <path id="Path_1142" d="M302.438 387.827L269.76 387c0 2.828 0 5.623.083 8.269l.347 24.294 32.579.976c-.083-6.218-.232-13.23-.265-21.085-.033-3.654-.049-7.493-.066-11.627z" class="cls-12" data-name="Path 1142" transform="translate(102.717 150.836)"/>
            <path id="Path_1143" d="M290.208 423.543c0 4.4.116 7.839.149 10.2v3.572s2.778-11.676 6.317-29.47l-6.615-.149c-.082 6.173.067 11.498.149 15.847z" class="cls-12" data-name="Path 1143" transform="translate(115.972 164.369)"/>
            <path id="Path_1144" d="M289.937 399.2c0 7.806.1 14.884.149 21.1l6.78.215a1089.464 1089.464 0 0 0 6-32.744l-12.949-.265q.003 6.073.02 11.694z" class="cls-12" data-name="Path 1144" transform="translate(115.897 151.17)"/>
            <path id="Path_1145" d="M303.277 434.071c0-2.381-.182-5.8-.314-10.22s-.265-9.675-.347-15.843c-9.1-.2-20.209-.463-32.6-.777 0 4.812.132 9.079.182 12.668 0 4.449.116 7.888.149 10.286v3.308a950.174 950.174 0 0 1 18.506 2.547l4.167.446 10.4 1.141v-.91c.006-.596-.093-1.505-.143-2.646z" class="cls-12" data-name="Path 1145" transform="translate(102.887 164.062)"/>
            <path id="Path_1146" d="M304.977 318.3c-6.4-20.937-11.1-24.062-13.66-28.445-.116 9.046-.248 18.406-.4 28.015z" class="cls-12" data-name="Path 1146" transform="translate(116.55 87.33)"/>
            <path id="Path_1147" d="M284.8 327.169l-21.7-.579-16.207-.43c-.447 11.146-.86 21.945-1.257 32.331l14.752.4 24.178.661c.034-10.504.119-21.252.234-32.383z" class="cls-12" data-name="Path 1147" transform="translate(86.948 111.062)"/>
            <path id="Path_1148" d="M290.782 327.845q-.1 6-.182 11.907l20.622.678a117.057 117.057 0 0 0-3.126-23.153 230.839 230.839 0 0 0-2.745-9.774l-14.239-.314a8974.52 8974.52 0 0 1-.33 20.656z" class="cls-12" data-name="Path 1148" transform="translate(116.341 98.66)"/>
            <path id="Path_1149" d="M284.827 307.082l-19.5-.513-17.679-.48-.4 10.733q-.413 11-.843 21.615l16.207.413 21.7.6q.1-7.839.215-15.843l.3-16.525z" class="cls-12" data-name="Path 1149" transform="translate(87.451 97.941)"/>
            <path id="Path_1150" d="M303.384 327.59c-9.641-.215-21-.5-33.439-.81-.132 11.13-.215 21.945-.265 32.381 12.436.347 23.732.678 33.224.976.132-10.485.38-21.417.48-32.547z" class="cls-12" data-name="Path 1150" transform="translate(102.665 111.467)"/>
            <path id="Path_1151" d="M303.785 307.51c-9.724-.215-21.069-.5-33.423-.81l-.3 16.538q-.132 8.021-.215 15.86l33.439.976c0-3.953.116-7.9.2-11.907l.299-20.657z" class="cls-12" data-name="Path 1151" transform="translate(102.776 98.339)"/>
            <path id="Path_1152" d="M290.786 217.635c.083 2.381.182 5.8.314 10.22 0 1.5.1 3.192.132 4.961 0 .562.083 1.108.1 1.654l21.5.645c-3.7-10.667-11.957-17.563-20.854-21.945a10.092 10.092 0 0 1-1.257 2.1c-.001.596.032 1.373.065 2.365z" class="cls-12" data-name="Path 1152" transform="translate(116.42 37.193)"/>
            <path id="Path_1153" d="M292.576 216.782V214.5c-.1.132-.2.281-.314.413a6.331 6.331 0 0 1-.48.463 16.357 16.357 0 0 1-4.052 5.507 16.935 16.935 0 0 1 5.061 8.533v-2.431a593.906 593.906 0 0 1-.215-10.203z" class="cls-12" data-name="Path 1153" transform="translate(114.465 38.062)"/>
            <path id="Path_1154" d="M261.269 244.517l-28.775-.827c-.364 3.308-.761 6.615-1.141 9.923-.331 3.01-.661 5.97-.992 8.864a50.011 50.011 0 0 0 3.622 16.538l25.931.645c.478-12.685.941-24.476 1.355-35.143z" class="cls-12" data-name="Path 1154" transform="translate(76.959 57.146)"/>
            <path id="Path_1155" d="M272.09 256.238l11.576.314a12.6 12.6 0 0 1 1.736-.265c-.265-.38-.38-.711-.265-.794a.232.232 0 0 1 .232 0 7.293 7.293 0 0 1-2.2-5.044c0-3.919 2.712-7.392 5.276-10.584a22.706 22.706 0 0 1-3.142-13.528l-11.824-.3c-.331 7.194-.728 15.678-1.174 25.3-.066 1.61-.132 3.247-.215 4.901z" class="cls-12" data-name="Path 1155" transform="translate(104.24 45.607)"/>
            <path id="Path_1156" d="M269.822 266.48L249.1 266c-.364 10.253-.761 21.069-1.191 32.348l19.2.5 17.58.48c.331-11.3.678-22.127 1.058-32.348z" class="cls-12" data-name="Path 1156" transform="translate(88.432 71.731)"/>
            <path id="Path_1157" d="M290.991 212.86a4.365 4.365 0 0 1-.281 1.108 7.617 7.617 0 0 0 .513-1.042z" class="cls-12" data-name="Path 1157" transform="translate(116.413 36.99)"/>
            <path id="Path_1158" d="M277.111 275.6a21.664 21.664 0 0 1-10.253-4.25 18.187 18.187 0 0 1-2.5-2.282 3.674 3.674 0 0 1-.728-.992c.116-.116 1.29 1.207 3.589 2.778a22.706 22.706 0 0 0 18.291 3.456c.413-10.452.827-20.225 1.24-29.139l-20.126-.513-16.684-.458c-.4 10.667-.827 22.458-1.29 35.126l20.705.546 15.942.43c0-1.77.132-3.506.2-5.242a21.781 21.781 0 0 1-8.385.546z" class="cls-12" data-name="Path 1158" transform="translate(88.916 57.479)"/>
            <path id="Path_1159" d="M291.07 226.824c0 2.613.116 5.424.165 8.451.083 6.3.232 13.478.265 21.4v.165c11.213.347 20.374.645 26.576.876-.81-6.036-2.067-14.272-3.986-25.567a40.319 40.319 0 0 0-1.257-5.143l-21.731-.5a2.263 2.263 0 0 1-.033.314z" class="cls-12" data-name="Path 1159" transform="translate(116.648 45.914)"/>
            <path id="Path_1160" d="M303.846 259.046v-13.511l-12.6-.3a5.226 5.226 0 0 1-1.654 0h-1.24c.116.149.182.265.132.331s-.43 0-.893-.149a1.735 1.735 0 0 1 .083.314 4.169 4.169 0 0 1 .447.562 8.385 8.385 0 0 1 .364 8.5 5.9 5.9 0 0 1-.777 1.092c-.232.215-.38.314-.413.281s0-.2.132-.48.314-.662.513-1.158a10.1 10.1 0 0 0 .661-4 10.468 10.468 0 0 0-.546-2.795 13.858 13.858 0 0 1-7.706 14.04l.827-3.87a6.069 6.069 0 0 1-4.432 2.034 14.882 14.882 0 0 1 1.455-5.044L275.2 256.1a11.99 11.99 0 0 1 3.192-8.418 11.676 11.676 0 0 1 3.671-2.6l-9.426-.248c-.364 8.864-.744 18.555-1.108 28.924a19.955 19.955 0 0 0 1.654-.5c2.629-.91 4.118-1.885 4.184-1.753s-.3.347-.959.777a18.183 18.183 0 0 1-3.01 1.555 23.92 23.92 0 0 1-1.869.661c0 1.8-.132 3.605-.182 5.457l32.033.926.281-20.97c-9.393-.827-16.29-1.571-16.273-1.77s6.949.194 16.458.905z" class="cls-12" data-name="Path 1160" transform="translate(103.756 57.898)"/>
            <path id="Path_1161" d="M291.413 258.827l4.961.413c12.2 1.025 22.078 2.034 22.061 2.282a4.815 4.815 0 0 1-1.257 0l2.084.149s.678-1.174-1.307-15.86c-6.2-.1-15.38-.3-26.626-.562.051 4.334.071 8.865.084 13.578z" class="cls-12" data-name="Path 1161" transform="translate(116.818 58.166)"/>
            <path id="Path_1162" d="M249.45 255.66l16.686.43 20.126.562c.083-1.654.165-3.307.232-4.961.463-9.608.91-18.092 1.29-25.286l-7.525-.2-29.768-.827c-.215 6.251-.463 13.346-.728 21.185-.081 2.995-.197 6.005-.313 9.097z" class="cls-12" data-name="Path 1162" transform="translate(89.439 45.175)"/>
            <path id="Path_1163" d="M234 234.908c7.723.165 16.538.38 26.2.628.248-5.92.463-11.064.645-15.281s.347-7.789.463-10.138v-1.406a61.652 61.652 0 0 0-24.624 4.8c-.447 3.456-1.009 7.9-1.654 13.23-.319 2.494-.683 5.259-1.03 8.167z" class="cls-12" data-name="Path 1163" transform="translate(79.338 34.275)"/>
            <path id="Path_1164" d="M258.3 266.218l-25.534-.728a14.358 14.358 0 0 0 .761 1.406l12.37 20.44-2.018 10.915 13.23.331c.368-11.282.848-22.094 1.191-32.364z" class="cls-12" data-name="Path 1164" transform="translate(78.534 71.398)"/>
            <path id="Path_1165" d="M270.65 298.914l32.629.926.413-32.5c-9.542-.215-20.391-.5-32.05-.794-.413 10.224-.678 21.054-.992 32.368z" class="cls-12" data-name="Path 1165" transform="translate(103.299 72.091)"/>
            <path id="Path_1166" d="M256.579 317.012q.232-5.408.413-10.733l-18.969-.529a309.247 309.247 0 0 0-7.194 32.265l24.955.612q.398-10.617.795-21.615z" class="cls-12" data-name="Path 1166" transform="translate(77.266 97.718)"/>
            <path id="Path_1167" d="M299.386 209.88a81.675 81.675 0 0 0-8.914-1.34 5.473 5.473 0 0 1-1.538.215c-1.009 0-2.448.149-4.25.2-3.589.132-8.533.182-14.007.165l-14.007-.1a37.372 37.372 0 0 1-5.722-.165v1.389c0 2.348-.165 5.755-.3 10.138s-.331 9.36-.529 15.264l29.768.777 7.558.2c.248-4.382.48-8.269.678-11.576.281-4.432.5-7.872.645-10.253.083-1.158.149-2.034.182-2.663a5.822 5.822 0 0 1 .1-.91v.91a25.151 25.151 0 0 1-.116 2.663c-.1 2.381-.265 5.838-.48 10.27-.149 3.308-.331 7.194-.529 11.576l11.874.331a23.632 23.632 0 0 1 4.961-12.071 17.3 17.3 0 0 1-5.374-15.02z" class="cls-12" data-name="Path 1167" transform="translate(89.877 34.166)"/>
            <path id="Path_1168" d="M295.119 255.432c0-7.921-.1-15.1-.132-21.383v-5.639a17.4 17.4 0 0 1-6.069 9.923 15.579 15.579 0 0 1-.777 13.23 9.162 9.162 0 0 1-3.44 3.7l10.468.314z" class="cls-12" data-name="Path 1168" transform="translate(112.484 47.156)"/>
            <path id="Path_1169" d="M249.622 429.5c8.153.661 19.4 1.654 31.8 3.159 4.118.463 8.087.959 11.891 1.439v-.645c0-.628 0-1.522-.1-2.663-.083-2.381-.182-5.838-.314-10.27-.116-3.589-.215-7.872-.331-12.684l-29.371-.761-14.421-.4c0 1.654-.149 3.308-.2 4.8-.2 4.382-.364 7.789-.463 10.138q-.1 1.654-.149 2.629a3.7 3.7 0 0 1-.083.893v-3.523c.083-2.365.182-5.772.314-10.138 0-1.488.1-3.109.149-4.812l-13.474-.362c2.216 16.422 2.778 22.293 2.778 22.293l1.753.182h.6c2.245.182 5.536.397 9.621.725z" class="cls-12" data-name="Path 1169" transform="translate(79.907 163.454)"/>
            <path id="Path_1170" d="M255.354 286.144l-13.23-.364-4.7 25.17a252.78 252.78 0 0 0-2.117 7.111l18.787.463c.433-11.129.863-21.945 1.26-32.38z" class="cls-12" data-name="Path 1170" transform="translate(80.195 84.663)"/>
            <path id="Path_1171" d="M290.065 367.43c-.1 11.676-.165 22.624-.165 32.612l13.015.43a825.26 825.26 0 0 0 4.845-32.695 2084.31 2084.31 0 0 1-17.695-.347z" class="cls-12" data-name="Path 1171" transform="translate(115.884 138.042)"/>
            <path id="Path_1172" d="M250.191 419.075l1.075-31.62v-.893L232 386a2794.424 2794.424 0 0 1 4.647 32.695z" class="cls-12" data-name="Path 1172" transform="translate(78.031 150.183)"/>
            <path id="Path_1173" d="M302.583 367.727c-9.294-.2-20.49-.463-32.943-.777 0 11.659.1 22.508.182 32.414 12.486.347 23.616.678 32.695.976-.033-9.989-.017-20.94.066-32.613z" class="cls-12" data-name="Path 1173" transform="translate(102.638 137.728)"/>
            <path id="Path_1174" d="M254.937 378.865c.364-10.171.761-20.986 1.191-32.348l-27.436-.777a221.277 221.277 0 0 0 .744 32.48z" class="cls-12" data-name="Path 1174" transform="translate(75.683 123.862)"/>
            <path id="Path_1175" d="M253.275 398.909c.364-9.757.761-20.589 1.191-32.348l-25.385-.711c.3 2.861.645 5.722 1.091 8.583 1.34 8.864 2.53 16.819 3.589 23.98z" class="cls-12" data-name="Path 1175" transform="translate(76.122 137.009)"/>
            <path id="Path_1176" d="M258.666 366.654l-13.329-.364c-.463 11.758-.876 22.59-1.257 32.348l11.874.314 29.933.827c-.132-9.923-.232-20.771-.281-32.414z" class="cls-12" data-name="Path 1176" transform="translate(85.928 137.297)"/>
            <path id="Path_1177" d="M286.433 387.438l-29.983-.777-11.874-.331v.91c-.529 12.635-.959 23.3-1.306 31.6l14.4.38 29.371.794c-.165-6.979-.314-15.1-.463-24.261a684.328 684.328 0 0 1-.145-8.315z" class="cls-12" data-name="Path 1177" transform="translate(85.399 150.398)"/>
            <path id="Path_1178" d="M290.78 327.28c-.165 11.179-.331 22.061-.48 32.563 8.55.265 15.578.5 20.556.678a296.044 296.044 0 0 0 .579-32.811z" class="cls-12" data-name="Path 1178" transform="translate(116.145 111.794)"/>
            <path id="Path_1179" d="M290.46 347.35c-.116 7.69-.232 15.182-.331 22.425 0 3.456 0 6.83-.1 10.171 7.227.215 13.23.43 17.728.6 1.389-11 2.53-22.078 3.308-32.778-5.043-.068-12.055-.22-20.605-.418z" class="cls-12" data-name="Path 1179" transform="translate(115.969 124.915)"/>
            <path id="Path_1180" d="M285.063 347.255l-24.178-.628-14.768-.4c-.447 11.345-.86 22.16-1.257 32.331l13.23.347 26.907.744c.049-10.233.033-21.082.066-32.394z" class="cls-12" data-name="Path 1180" transform="translate(86.438 124.183)"/>
            <path id="Path_1181" d="M256.019 358.769c.4-10.386.794-21.2 1.191-32.348l-25.054-.711a285.574 285.574 0 0 0-3.556 32.381z" class="cls-12" data-name="Path 1181" transform="translate(75.808 110.767)"/>
            <path id="Path_1182" d="M302.894 347.654c-9.476-.215-20.771-.48-33.224-.794v32.4l32.943.976c0-3.308 0-6.7.083-10.154.016-7.23.099-14.722.198-22.428z" class="cls-12" data-name="Path 1182" transform="translate(102.658 124.594)"/>
            <path id="Path_1183" d="M241.853 232.921c.4-2.944.777-5.705 1.141-8.269.728-5.209 1.373-9.575 1.885-12.932a45.263 45.263 0 0 0-15.892 11.58 715.537 715.537 0 0 1-8.087 9.162c5.276.112 12.4.261 20.953.459z" class="cls-12" data-name="Path 1183" transform="translate(70.774 36.245)"/>
            <path id="Path_1184" d="M241.048 253.916q.579-4.961 1.141-9.923a6995.853 6995.853 0 0 1-27.949-.893l17.794 20.341 1.571 1.77 6.946-7.277c.182-1.339.331-2.679.497-4.018z" class="cls-12" data-name="Path 1184" transform="translate(66.42 56.76)"/>
            <path id="Path_1185" d="M217.315 254.857c7.111.132 16.885.347 28.445.628 1.323-11.179 2.646-21.5 3.837-30.28-8.7-.265-15.926-.5-21.2-.695-9.641 10.749-16.438 17.745-18.654 19.994l-.81.827z" class="cls-12" data-name="Path 1185" transform="translate(62.948 44.607)"/>
            <path id="Path_1186" d="M231.71 255.181c8.682.2 18.373.447 28.709.711.116-3.093.232-6.135.347-9.046q.5-11.758.876-21.168L235.4 225c-1.11 8.7-2.384 19-3.69 30.181z" class="cls-12" data-name="Path 1186" transform="translate(77.841 44.927)"/>
            <path id="Path_1187" d="M270.271 326.78h-.86c-.116 11.13-.2 21.945-.232 32.381h.827c.05-10.436.133-21.251.265-32.381z" class="cls-13" data-name="Path 1187" transform="translate(102.338 111.467)"/>
            <path id="Path_1188" d="M271.008 262.945c0 1.736-.132 3.473-.2 5.242h.761c0-1.852.116-3.655.182-5.457z" class="cls-13" data-name="Path 1188" transform="translate(103.403 69.593)"/>
            <path id="Path_1189" d="M271.208 266.547c-.38 10.22-.728 21.052-1.058 32.348h.827c.314-11.312.645-22.144.992-32.364z" class="cls-13" data-name="Path 1189" transform="translate(102.972 72.078)"/>
            <path id="Path_1190" d="M270.46 286.61c-.3 10.419-.579 21.234-.81 32.364h.86q.347-16.7.777-32.364z" class="cls-13" data-name="Path 1190" transform="translate(102.645 85.205)"/>
            <path id="Path_1191" d="M274.148 213.732c0-1.141.083-2.034.116-2.663a6.1 6.1 0 0 0 0-.91 6.426 6.426 0 0 1-.1.91c-.1.612-.1 1.5-.182 2.663-.149 2.381-.364 5.821-.645 10.253a2998 2998 0 0 0-.678 11.576h.562c.2-4.382.38-8.269.529-11.576.134-4.415.299-7.871.398-10.253z" class="cls-13" data-name="Path 1191" transform="translate(104.613 35.225)"/>
            <path id="Path_1192" d="M271.71 256.254h.628c.083-1.654.149-3.307.215-4.961.447-9.625.843-18.109 1.174-25.3h-.5c-.38 7.194-.827 15.678-1.29 25.286a383.272 383.272 0 0 1-.227 4.975z" class="cls-13" data-name="Path 1192" transform="translate(103.992 45.574)"/>
            <path id="Path_1193" d="M270.7 306.7h-.86l-.3 16.538q-.116 8.021-.215 15.843h.86q.1-7.839.215-15.86.154-8.351.3-16.521z" class="cls-13" data-name="Path 1193" transform="translate(102.436 98.339)"/>
            <path id="Path_1194" d="M270.94 273.923l.761-.2c.364-10.369.744-20.06 1.108-28.924h-.628c-.414 8.901-.828 18.672-1.241 29.124z" class="cls-13" data-name="Path 1194" transform="translate(103.488 57.871)"/>
            <path id="Path_1195" d="M270 346.86h-.827v32.4h.761c-.003-10.24.013-21.088.066-32.4z" class="cls-13" data-name="Path 1195" transform="translate(102.331 124.594)"/>
            <path id="Path_1196" d="M269.19 366.94c0 11.576.149 22.508.281 32.414h.645c-.083-9.923-.149-20.755-.182-32.414z" class="cls-13" data-name="Path 1196" transform="translate(102.344 137.722)"/>
            <path id="Path_1197" d="M270.54 430.184c0-2.4-.083-5.838-.149-10.286 0-3.589-.116-7.855-.182-12.668h-.48c.116 4.812.215 9.1.331 12.684.132 4.432.232 7.888.314 10.27 0 1.141.083 2.034.1 2.663v.645-.645a20.71 20.71 0 0 0 .066-2.663z" class="cls-13" data-name="Path 1197" transform="translate(102.697 164.062)"/>
            <path id="Path_1198" d="M270.015 387h-.645c0 2.844.083 5.639.116 8.269.149 9.162.3 17.282.463 24.261h.5l-.347-24.294a915.932 915.932 0 0 1-.087-8.236z" class="cls-13" data-name="Path 1198" transform="translate(102.462 150.836)"/>
            <path id="Path_1199" d="M291.273 318.529c.149-9.608.281-18.969.4-28.015a13.37 13.37 0 0 1-.843-1.654c-.149 9.559-.3 19.481-.447 29.669z" class="cls-13" data-name="Path 1199" transform="translate(116.197 86.676)"/>
            <path id="Path_1200" d="M291.459 307.2h-.893c-.1 6.78-.2 13.644-.3 20.639-.083 4-.149 7.955-.2 11.907h.876q0-5.9.182-11.907c.12-6.995.236-13.859.335-20.639z" class="cls-13" data-name="Path 1200" transform="translate(115.995 98.666)"/>
            <path id="Path_1201" d="M291.072 256.557v.149h.612v-.165c0-7.921-.182-15.1-.265-21.4 0-3.026-.1-5.838-.165-8.451a18.186 18.186 0 0 1-.364 2.828v5.639c.017 6.301.182 13.543.182 21.4z" class="cls-13" data-name="Path 1201" transform="translate(116.531 46.032)"/>
            <path id="Path_1202" d="M291 258.784h.678c0-4.713 0-9.245-.083-13.544H291z" class="cls-13" data-name="Path 1202" transform="translate(116.603 58.159)"/>
            <path id="Path_1203" d="M290.832 216.811a19.493 19.493 0 0 0-.083-2.381l-.1.116v2.282c0 2.365 0 5.8.149 10.2v2.431a18.719 18.719 0 0 1 .43 2.448c0-1.736 0-3.423-.132-4.961-.082-4.33-.181-7.753-.264-10.135z" class="cls-13" data-name="Path 1203" transform="translate(116.374 38.017)"/>
            <path id="Path_1204" d="M291.126 327.28h-.876a9053.956 9053.956 0 0 0-.48 32.546h.876c.154-10.485.315-21.433.48-32.546z" class="cls-13" data-name="Path 1204" transform="translate(115.799 111.794)"/>
            <path id="Path_1205" d="M290.557 433.747c0-2.365-.083-5.8-.149-10.2s-.165-9.674-.2-15.843h-.48c0 6.169.215 11.494.347 15.843s.248 7.839.314 10.22c0 1.141.083 2.018.1 2.646s0 .91 0 .91v-.91c.002-.599.084-1.525.068-2.666z" class="cls-13" data-name="Path 1205" transform="translate(115.772 164.369)"/>
            <path id="Path_1206" d="M290.328 367.43h-.761c-.083 11.676-.1 22.624 0 32.612h.661c-.028-9.989.1-20.936.1-32.612z" class="cls-13" data-name="Path 1206" transform="translate(115.621 138.042)"/>
            <path id="Path_1207" d="M290.182 387.51h-.661v11.709c0 7.806.182 14.884.265 21.085h.5c0-6.235-.165-13.23-.149-21.1q.045-5.604.045-11.694z" class="cls-13" data-name="Path 1207" transform="translate(115.635 151.17)"/>
            <path id="Path_1208" d="M290.767 347.35h-.876c-.1 7.69-.182 15.2-.248 22.425 0 3.456 0 6.83-.083 10.154h.777c0-3.307 0-6.714.1-10.171.099-7.226.214-14.718.33-22.408z" class="cls-13" data-name="Path 1208" transform="translate(115.661 124.915)"/>
            <path id="Path_1209" d="M247.2 326.16h-.827c-.4 11.146-.794 21.962-1.191 32.348h.761q.593-15.608 1.257-32.348z" class="cls-13" data-name="Path 1209" transform="translate(86.647 111.062)"/>
            <path id="Path_1210" d="M249.07 255.624h.628c.116-3.093.232-6.135.331-9.03.265-7.839.513-14.884.728-21.185h-.463c-.248 6.251-.546 13.329-.876 21.168a3884.08 3884.08 0 0 0-.348 9.047z" class="cls-13" data-name="Path 1210" transform="translate(89.19 45.195)"/>
            <path id="Path_1211" d="M247.927 286c-.4 10.435-.827 21.251-1.257 32.348h.843c.4-11.1.794-21.929 1.191-32.348z" class="cls-13" data-name="Path 1211" transform="translate(87.621 84.807)"/>
            <path id="Path_1212" d="M248.707 265.93c-.4 10.27-.827 21.085-1.257 32.364h.761c.43-11.279.827-22.094 1.191-32.348z" class="cls-13" data-name="Path 1212" transform="translate(88.131 71.685)"/>
            <path id="Path_1213" d="M250.475 220.24c-.182 4.217-.4 9.36-.645 15.281h.447c.2-5.9.38-11.047.529-15.264s.232-7.789.3-10.138v-1.389h-.083v1.406c-.201 2.348-.35 5.656-.548 10.104z" class="cls-13" data-name="Path 1213" transform="translate(89.687 34.29)"/>
            <path id="Path_1214" d="M249.586 244.19c-.413 10.667-.876 22.458-1.356 35.126h.695c.463-12.668.893-24.459 1.29-35.126z" class="cls-13" data-name="Path 1214" transform="translate(88.641 57.473)"/>
            <path id="Path_1215" d="M247.971 306.09h-.843q-.2 5.342-.413 10.733-.4 11-.794 21.615h.81q.43-10.634.843-21.615.132-5.408.397-10.733z" class="cls-13" data-name="Path 1215" transform="translate(87.131 97.941)"/>
            <path id="Path_1216" d="M244.727 386.36h-.612v.893c-.43 12.651-.794 23.318-1.075 31.62h.38c.347-8.269.777-18.969 1.306-31.6a8.35 8.35 0 0 1 .001-.913z" class="cls-13" data-name="Path 1216" transform="translate(85.248 150.418)"/>
            <path id="Path_1217" d="M244.9 366.28c-.43 11.758-.827 22.59-1.191 32.348h.612c.38-9.757.794-20.589 1.257-32.348z" class="cls-13" data-name="Path 1217" transform="translate(85.686 137.29)"/>
            <path id="Path_1218" d="M245.641 346.21c-.43 11.361-.827 22.177-1.191 32.348h.678c.4-10.171.81-20.986 1.257-32.331z" class="cls-13" data-name="Path 1218" transform="translate(86.17 124.169)"/>
            <path id="Path_1219" d="M243.034 411.326c-.132 4.366-.232 7.773-.314 10.138v3.523a7.314 7.314 0 0 1 .083-.893c.083-.6 0-1.5.149-2.629.1-2.348.265-5.755.463-10.138 0-1.472.132-3.109.2-4.8h-.43c-.002 1.69-.101 3.311-.151 4.799z" class="cls-13" data-name="Path 1219" transform="translate(85.039 163.604)"/>
            <path id="Path_1220" d="M233.57 233.039h.711c.364-2.911.728-5.672 1.042-8.269.695-5.276 1.257-9.724 1.654-13.23l-.413.182a900.866 900.866 0 0 0-1.885 12.932c-.398 2.679-.712 5.446-1.109 8.385z" class="cls-13" data-name="Path 1220" transform="translate(79.057 36.127)"/>
            <path id="Path_1221" d="M232.618 243.69h-.843q-.562 4.812-1.141 9.923c-.165 1.34-.314 2.679-.463 4.019l.165-.165s0 2.067.149 5.094c.331-2.894.661-5.854.992-8.864.38-3.442.777-6.766 1.141-10.007z" class="cls-13" data-name="Path 1221" transform="translate(76.834 57.146)"/>
            <path id="Path_1222" d="M235.738 225h-.711c-1.191 8.8-2.514 19.1-3.837 30.28h.86c1.306-11.28 2.58-21.58 3.688-30.28z" class="cls-13" data-name="Path 1222" transform="translate(77.501 44.927)"/>
            <path id="Path_1223" d="M291.1 226.817l21.73.5-.248-.628-21.5-.645a6.033 6.033 0 0 1 .018.773z" class="cls-13" data-name="Path 1223" transform="translate(116.655 45.607)"/>
            <path id="Path_1224" d="M241.891 225.368h.711l26.245.761h.463l29.768.827 7.525.2h.5l11.824.3a2.759 2.759 0 0 1 .083-.827l-11.874-.331h-.48l-7.558-.2-29.768-.777h-.447c-9.625-.248-18.473-.463-26.2-.628h-.695c-8.55-.2-15.678-.347-20.953-.43l-.347.38c5.278.229 12.505.457 21.203.725z" class="cls-13" data-name="Path 1224" transform="translate(70.637 44.443)"/>
            <path id="Path_1225" d="M289.286 245.493l20.126.513h.628l9.427.248a11.8 11.8 0 0 1 2.183-.761l-11.576-.314h-.628l-20.126-.48-16.686-.43H272c-10.336-.265-20.027-.513-28.709-.711h-.86a4890.59 4890.59 0 0 0-28.445-.628l.413.463c7.062.248 16.637.546 27.949.893h.843l28.775.827h.628z" class="cls-13" data-name="Path 1225" transform="translate(66.256 56.649)"/>
            <path id="Path_1226" d="M281.805 245.255h1.24a6.616 6.616 0 0 1-1.836-.645 4.97 4.97 0 0 1 .6.645z" class="cls-13" data-name="Path 1226" transform="translate(110.202 57.747)"/>
            <path id="Path_1227" d="M295.982 244.964l-10.468-.314a6.134 6.134 0 0 1-1.439.6 5.073 5.073 0 0 1-.695.116l12.6.3h.612c11.246.265 20.424.463 26.626.562v-.38c-6.2-.232-15.363-.529-26.576-.877z" class="cls-13" data-name="Path 1227" transform="translate(111.621 57.773)"/>
            <path id="Path_1228" d="M259.142 266.654l20.722.562 15.926.413h.761c11.659.3 22.508.579 32.05.794v-.711l-32.017-1.058h-.761l-15.942-.43-20.705-.546h-.695L232.55 265c.116.265.232.5.364.744l25.534.728z" class="cls-13" data-name="Path 1228" transform="translate(78.39 71.077)"/>
            <path id="Path_1229" d="M253.49 286.458l19.184.513 17.6.463h.827c11.957.314 23 .579 32.629.81v-.711l-32.629-.926h-.827l-17.579-.48-19.2-.5h-.761L239.5 285.3l-.149.794 13.23.364z" class="cls-13" data-name="Path 1229" transform="translate(82.836 84.349)"/>
            <path id="Path_1230" d="M254.992 306.6l17.679.48 19.5.513h.86c12.354.314 23.7.6 33.423.81h.893l14.239.314a1.723 1.723 0 0 0-.165-.546l-14.057-.43h-.893l-33.423-.976h-.86l-19.481-.529-17.679-.463h-.843l-18.785-.463c-.083.248-.149.513-.215.777l18.969.529z" class="cls-13" data-name="Path 1230" transform="translate(80.11 97.431)"/>
            <path id="Path_1231" d="M256.625 326.729l16.207.43 21.7.579h.86c12.436.314 23.8.6 33.439.81h.876l20.655.43a3.435 3.435 0 0 1 0-.413l-20.622-.678h-.877l-33.439-.976h-.86l-21.7-.6-16.207-.413h-.81l-24.955-.612a3.91 3.91 0 0 1-.132.744l25.054.711z" class="cls-13" data-name="Path 1231" transform="translate(77.22 110.493)"/>
            <path id="Path_1232" d="M256.009 346.811h.744l14.768.4 24.178.628h.827c12.453.314 23.748.579 33.224.794h.876c8.55.2 15.562.347 20.556.413v-.364c-4.961-.182-12.006-.413-20.556-.678h-.876c-9.493-.3-20.788-.628-33.224-.976h-.826l-24.178-.662-14.752-.4h-.761l-27.419-.678v.744z" class="cls-13" data-name="Path 1232" transform="translate(75.801 123.568)"/>
            <path id="Path_1233" d="M254.518 366.868h.678l13.329.364 26.94.711h.744c12.453.314 23.649.579 32.943.777h.728c7.21.165 13.23.281 17.7.347v-.367c-4.482-.165-10.5-.38-17.728-.6h-.777l-32.943-.976h-.761l-26.824-.728-13.23-.347h-.678L229 365.38a2.493 2.493 0 0 0 .083.777z" class="cls-13" data-name="Path 1233" transform="translate(76.069 136.702)"/>
            <path id="Path_1234" d="M251.418 386.88h.612l11.874.331 29.983.777h.645l32.678.761h.662l12.949.265a3.858 3.858 0 0 0 0-.43l-13.015-.43h-.661c-9.079-.3-20.209-.628-32.695-.976h-.65l-29.933-.827-11.867-.315h-.612l-19.514-.5.116.81z" class="cls-13" data-name="Path 1234" transform="translate(77.946 149.882)"/>
            <path id="Path_1235" d="M248.38 406.984h.38l14.421.4 29.4.761h.446c12.387.314 23.5.579 32.6.777h.48l6.615.149a.885.885 0 0 1 .116-.529l-6.78-.215h-.5l-32.579-.976h-.5l-29.222-.81-14.4-.38h-.48l-13.61-.347.1.827z" class="cls-13" data-name="Path 1235" transform="translate(79.842 163.134)"/>
            <path id="Path_1236" d="M256.381 209.078l14.007.1c5.474 0 10.419 0 14.007-.165 1.8 0 3.308-.132 4.25-.2a5.474 5.474 0 0 0 1.538-.215 3.059 3.059 0 0 0-1.058-.1v.083l-32.05-.132h-.711c-1.8 0-3.308.132-4.25.215a5.69 5.69 0 0 0-1.555.2h.083a42.736 42.736 0 0 0 5.739.214z" class="cls-8" data-name="Path 1236" transform="translate(90.165 34.107)"/>
            <path id="Path_1237" d="M271.3 265.307a23.153 23.153 0 0 1-10.005-3.886c-2.3-1.571-3.473-2.894-3.589-2.778a3.671 3.671 0 0 0 .728.992 18.191 18.191 0 0 0 2.5 2.282 21.5 21.5 0 0 0 18.638 3.7l.744-.2c.678-.215 1.306-.43 1.869-.662a18.188 18.188 0 0 0 3.01-1.555c.661-.43.992-.728.959-.777s-1.555.843-4.184 1.753a15.285 15.285 0 0 1-1.654.5l-.761.2a23.153 23.153 0 0 1-8.252.43z" class="cls-8" data-name="Path 1237" transform="translate(94.839 66.917)"/>
            <path id="Path_1238" d="M325.208 256.554c0-.248-9.923-1.257-22.061-2.282l-4.961-.413h-.678c-9.46-.744-16.538-1.158-16.538-.959s6.88.943 16.273 1.77l5.788.513c9.658.81 17.861 1.373 20.87 1.455a4.814 4.814 0 0 0 1.307-.084z" class="cls-8" data-name="Path 1238" transform="translate(110.046 63.134)"/>
            <path id="Path_1239" d="M274.19 211.932c.992 3.754 5.094 6.979 11.014 6.284a16.322 16.322 0 0 0-1.555 4.961 17.3 17.3 0 0 0 5.342 15.016 23.632 23.632 0 0 0-4.961 12.072 2.868 2.868 0 0 1-.083.827 22.707 22.707 0 0 0 3.142 13.528c-2.563 3.192-5.243 6.615-5.276 10.584a7.293 7.293 0 0 0 2.2 5.044 5.922 5.922 0 0 1 1.323.926l.48.413a6.616 6.616 0 0 0 1.836.645 5.226 5.226 0 0 0 1.654 0 5.084 5.084 0 0 0 .695-.116 6.134 6.134 0 0 0 1.439-.6 9.163 9.163 0 0 0 3.44-3.7 15.579 15.579 0 0 0 .777-13.23 17.4 17.4 0 0 0 6.069-9.923 18.2 18.2 0 0 0 .364-2.828 2.268 2.268 0 0 0 0-.314v-.777a9.163 9.163 0 0 0-.1-1.654 18.726 18.726 0 0 0-.413-2.5 16.935 16.935 0 0 0-5.061-8.533 16.355 16.355 0 0 0 4.052-5.507 9.923 9.923 0 0 1-3.109 2.117 8.353 8.353 0 0 1-2.878.678 4.053 4.053 0 0 1-.81 0h-.281a.67.67 0 0 0 .281-.1c.182-.1.43 0 .761-.149a10.32 10.32 0 0 0 5.921-3.456 8.7 8.7 0 0 0 1.009-1.488c.1-.364.215-.728.281-1.108a17.23 17.23 0 0 0 0-6.946 10.566 10.566 0 0 0-2.315-3.307 18.952 18.952 0 0 0-3.208-2.166h.281a3.786 3.786 0 0 1 .777.215 8.1 8.1 0 0 1 2.563 1.488 9.161 9.161 0 0 1 1.191 1.207 15.876 15.876 0 0 0-3.9-6.053 26.063 26.063 0 0 0-2.6-25.286c-2.465 10.638-8.253 20.825-20.342 23.736zm18.969 26.642c0 .232-.943.2-1.985.3s-1.918.232-2 0 .728-.794 1.935-.876 2.116.344 2.05.576zm-3.01 26.163c-1.654-.265-3.159-.281-3.192-.529a4.779 4.779 0 0 1 3.308-.331c1.852.281 3.175 1.058 3.076 1.273s-1.472-.166-3.192-.414zm-.943-50.175a5.143 5.143 0 0 1 3.456-.2c0 .248-1.472.513-3.225 1.025s-3.142 1.075-3.307.86 1.207-1.158 3.076-1.687z" class="cls-13" data-name="Path 1239" transform="translate(105.613 20.869)"/>
            <path id="Path_1240" d="M258.87 163.627a28.923 28.923 0 0 0 2.911 7.492 26.888 26.888 0 0 0 2.646 3.936 27.2 27.2 0 0 0 3.523 3.671 29.6 29.6 0 0 0 4.167 2.911 27.851 27.851 0 0 0 4.316 1.984 29.071 29.071 0 0 0 7.855 1.654h.728v-5.557s-22.309-1.951-27.006-22.458v.893a30.228 30.228 0 0 0 .86 5.474z" class="cls-10" data-name="Path 1240" transform="translate(95.035 .641)"/>
            <path id="Path_1241" d="M294.019 242.293l.38-9.774h-.116l.331-33.389v-.083a20.5 20.5 0 0 1 .116-4.829l.083-7.988h-.744a28 28 0 0 1-16.868-6.615 28.838 28.838 0 0 1-3.622-3.787 27.017 27.017 0 0 1-2.679-4.085 27.352 27.352 0 0 1-2.811-7.74 24.159 24.159 0 0 1-.513-5.524 13.814 13.814 0 0 1 .1-1.5.415.415 0 0 0 0-.132v-.083l-.132.132c-1.307 3.308-3.589 10.27-1.918 15.876l-20.275 5.606-2.249 2.166c0 9.592.149 20.441.628 27.155.992 14.239 15.016 15.611 15.016 15.611a33.985 33.985 0 0 0 18.34-6.615s-4.068 10.518-17.993 10.071l-.347-3.506s1.141 15.049 1.025 18.836h2.266l32.05.132zM248 186.379a1.819 1.819 0 1 1 1.819-1.819 1.819 1.819 0 0 1-1.819 1.819zm3.473-4.283c-.2.265-1.654-.695-3.556-.546s-3.225 1.29-3.456 1.058 0-.562.645-1.092a4.581 4.581 0 0 1 2.795-1.207 4.531 4.531 0 0 1 2.861.728c.562.513.81.926.711 1.058zm3.489 17.1a1.207 1.207 0 0 1-.827-.711 3.192 3.192 0 0 1 .165-2.067c.38-1.306.777-2.679 1.207-4.118a73.384 73.384 0 0 1 3.572-10.386 71.721 71.721 0 0 1-2.778 10.65c-.447 1.422-.876 2.778-1.273 4.085a2.8 2.8 0 0 0-.265 1.654c.1.347.562.413 1.058.447a11.923 11.923 0 0 1 3.126.38 11.38 11.38 0 0 1-3.142.215 3.14 3.14 0 0 1-.843-.149zm7.475 6.8a5.242 5.242 0 0 1-6.367-1.786c3.9 0 11.146-4.7 9.228-3.308 0-.05 1.207 3.274-2.861 5.094zm6.169-19.845a1.819 1.819 0 1 1 1.819-1.819 1.819 1.819 0 0 1-1.825 1.815zm4.1-4.184c-.2.265-1.654-.695-3.556-.546s-3.225 1.29-3.456 1.058.083-.579.645-1.091a4.6 4.6 0 0 1 2.729-1.158 4.647 4.647 0 0 1 2.861.744c.608.344.856.774.771.989z" class="cls-10" data-name="Path 1241" transform="translate(85.288 .314)"/>
            <path id="Path_1242" d="M246.726 172.47a1.819 1.819 0 1 0 1.8 1.8 1.819 1.819 0 0 0-1.8-1.8z" class="cls-13" data-name="Path 1242" transform="translate(86.458 10.585)"/>
            <path id="Path_1243" d="M250.139 171.8a4.531 4.531 0 0 0-2.795-.794 4.581 4.581 0 0 0-2.729 1.141c-.579.529-.744.992-.645 1.091a12.1 12.1 0 0 1 3.456-1.058c1.918-.132 3.308.81 3.556.546s-.214-.483-.843-.926z" class="cls-13" data-name="Path 1243" transform="translate(85.839 9.622)"/>
            <path id="Path_1244" d="M259.232 172.34a1.819 1.819 0 1 0 1.786 1.8 1.819 1.819 0 0 0-1.786-1.8z" class="cls-13" data-name="Path 1244" transform="translate(94.623 10.5)"/>
            <path id="Path_1245" d="M262.995 171.649a4.647 4.647 0 0 0-2.861-.744 4.6 4.6 0 0 0-2.729 1.158c-.562.513-.744.976-.645 1.092a12.733 12.733 0 0 1 3.456-1.058c1.918-.132 3.308.81 3.556.546s-.149-.564-.777-.994z" class="cls-13" data-name="Path 1245" transform="translate(94.201 9.554)"/>
            <path id="Path_1246" d="M251.5 188.755c-.5 0-.959-.1-1.058-.447a2.8 2.8 0 0 1 .265-1.654c.4-1.306.827-2.662 1.273-4.085a71.72 71.72 0 0 0 2.778-10.65 73.381 73.381 0 0 0-3.572 10.386c-.43 1.439-.827 2.811-1.207 4.118a3.192 3.192 0 0 0-.165 2.067 1.207 1.207 0 0 0 .827.711 3.139 3.139 0 0 0 .843 0 11.378 11.378 0 0 0 3.142-.215 11.924 11.924 0 0 0-3.126-.232z" class="cls-13" data-name="Path 1246" transform="translate(89.609 10.225)"/>
            <path id="Path_1247" d="M250.94 186.873a5.243 5.243 0 0 0 6.367 1.786c4.068-1.819 2.861-5.143 2.861-5.143 1.918-1.34-5.325 3.324-9.228 3.357z" class="cls-4" data-name="Path 1247" transform="translate(90.413 17.648)"/>
            <path id="Path_1248" d="M270.86 193.08a33.985 33.985 0 0 1-18.34 6.615l.347 3.506c13.925.399 17.993-10.121 17.993-10.121z" class="cls-11" data-name="Path 1248" transform="translate(91.446 24.059)"/>
            <path id="Path_1249" d="M266.482 180.244c-1.654-5.606.612-12.618 1.918-15.876l.132-.132v.083a1.241 1.241 0 0 1 .083-.38v1.125c4.7 20.507 27.006 22.458 27.006 22.458v5.557a29.039 29.039 0 0 0 4.713-.116 10.656 10.656 0 0 0 1.488-.182 2.148 2.148 0 0 1 .529 0 1.985 1.985 0 0 1-.5.182 14.053 14.053 0 0 1-1.472.331 24.13 24.13 0 0 1-4.779.364l-.083 7.988a12.084 12.084 0 0 1 .4-1.521 6.02 6.02 0 0 1 4.516-4.125 5.044 5.044 0 0 1 5.325 4.068 6.251 6.251 0 0 1-2.993 6.268 7.773 7.773 0 0 1-4.961.943v.265a3.322 3.322 0 1 0 6.582.893 6.961 6.961 0 0 0-.331-2.315 2.9 2.9 0 0 1 .943 2.348 3.771 3.771 0 0 1-1.141 2.646 3.953 3.953 0 0 1-6.268-.843 3.77 3.77 0 0 1-.38-2.861 1.139 1.139 0 0 1 0-.215 9.265 9.265 0 0 1-1.654-.463l-.165-.182-.331 33.389h.232c12.089-2.911 17.794-13.1 20.44-23.748.165-.711.331-1.422.48-2.133-.1.2-.2.43-.314.628a28.016 28.016 0 0 1-2.547 4.085 6.036 6.036 0 0 1-1.174 1.34c-.132-.1 1.455-2.067 3.175-5.689a32.6 32.6 0 0 0 1.455-3.572 97.937 97.937 0 0 0 .992-18.291v-.976a34.614 34.614 0 0 0-2.646-7.392c-1.786-3.605-3.39-5.54-3.308-5.639a6.251 6.251 0 0 1 1.174 1.307 28.919 28.919 0 0 1 2.63 4.052 32.748 32.748 0 0 1 2 4.531v-2.117a55.914 55.914 0 0 0-.926-5.772c-7.888-29.652-33.406-34.927-38.433-34.878-5.408 0-14.884-2.894-28.511 11.94s-5.92 30.429-5.92 30.429l2.249-2.166z" class="cls-13" data-name="Path 1249" transform="translate(84.364 -7.078)"/>
            <path id="Path_1250" d="M285.148 245.14a3.688 3.688 0 0 1-.744-.81 12.609 12.609 0 0 0-1.736.265 12.2 12.2 0 0 0-5.854 3.307 11.99 11.99 0 0 0-3.192 8.418l2.993-1.207a14.882 14.882 0 0 0-1.455 5.044 6.069 6.069 0 0 0 4.432-2.034l-.827 3.87a13.859 13.859 0 0 0 7.707-14.04 9.281 9.281 0 0 0-.463-1.125c-.463-.959-.877-1.488-.777-1.654s.413.182.86.711a1.738 1.738 0 0 0-.083-.314 4.315 4.315 0 0 1-.861-.431z" class="cls-13" data-name="Path 1250" transform="translate(105.239 57.564)"/>
            <path id="Path_1251" d="M280.018 243.859c-.116.083 0 .413.265.794a3.688 3.688 0 0 0 .744.81 4.316 4.316 0 0 0 .86.546c.463.215.827.281.893.149s0-.182-.132-.331a4.968 4.968 0 0 0-.6-.612l-.48-.413a5.92 5.92 0 0 0-1.323-.926.232.232 0 0 0-.227-.017z" class="cls-8" data-name="Path 1251" transform="translate(109.394 57.241)"/>
            <path id="Path_1252" d="M285.218 234.061a4.78 4.78 0 0 0-3.308.331c0 .248 1.472.265 3.192.529s3.093.645 3.192.413-1.274-1.058-3.076-1.273z" class="cls-8" data-name="Path 1252" transform="translate(110.66 50.75)"/>
            <path id="Path_1253" d="M283.253 219.2c.083.215.959 0 2 0s1.935 0 1.985-.3-.843-.662-2.051-.562-2.033.644-1.934.862z" class="cls-8" data-name="Path 1253" transform="translate(111.533 40.56)"/>
            <path id="Path_1254" d="M284.7 205.128c1.753-.513 3.225-.777 3.225-1.025a5.143 5.143 0 0 0-3.456.2c-1.869.529-3.142 1.488-3.026 1.654s1.505-.333 3.257-.829z" class="cls-8" data-name="Path 1254" transform="translate(110.35 31.129)"/>
            <path id="Path_1255" d="M289.82 185.952a14.058 14.058 0 0 0 1.472-.331 1.985 1.985 0 0 0 .5-.182h-.529c-.331 0-.843.132-1.488.182a29.035 29.035 0 0 1-4.713.116h-.728a29.073 29.073 0 0 1-7.855-1.654 27.851 27.851 0 0 1-4.316-1.985 29.6 29.6 0 0 1-4.167-2.911 27.208 27.208 0 0 1-3.523-3.671 26.883 26.883 0 0 1-2.646-3.936 28.922 28.922 0 0 1-2.911-7.492 30.228 30.228 0 0 1-.777-5.391V156.68a1.24 1.24 0 0 0-.083.38.415.415 0 0 1 0 .132 13.79 13.79 0 0 0-.1 1.5 24.163 24.163 0 0 0 .513 5.524 27.356 27.356 0 0 0 2.811 7.74 27.023 27.023 0 0 0 2.679 4.085 28.842 28.842 0 0 0 3.622 3.787 27.718 27.718 0 0 0 4.316 2.993 28.114 28.114 0 0 0 12.552 3.572h.744a24.127 24.127 0 0 0 4.63-.447z" class="cls-13" data-name="Path 1255" transform="translate(94.993 .262)"/>
            <path id="Path_1256" d="M285.387 166.736a6.251 6.251 0 0 0-1.174-1.306c-.132.1 1.472 2.034 3.308 5.639a34.611 34.611 0 0 1 2.646 7.392 33.955 33.955 0 0 1 .976 7.69 35.161 35.161 0 0 1-1.935 11.576 32.58 32.58 0 0 1-1.455 3.572c-1.654 3.622-3.308 5.59-3.175 5.689a6.035 6.035 0 0 0 1.174-1.34 28.015 28.015 0 0 0 2.547-4.085c.116-.2.215-.43.314-.628a32.7 32.7 0 0 0 2.133-23.483c-.2-.744-.447-1.455-.678-2.133a32.748 32.748 0 0 0-2-4.531 28.928 28.928 0 0 0-2.681-4.052z" class="cls-13" data-name="Path 1256" transform="translate(112.161 5.982)"/>
            <path id="Path_1257" d="M292.31 207.083a8.1 8.1 0 0 0-2.563-1.488 3.788 3.788 0 0 0-.777-.215h-.281a18.95 18.95 0 0 1 3.208 2.166 10.567 10.567 0 0 1 2.315 3.308v.116a9.178 9.178 0 0 1 .711 4.961 9.658 9.658 0 0 1-.579 1.968 7.6 7.6 0 0 1-.513 1.042 8.693 8.693 0 0 1-1.009 1.488 10.32 10.32 0 0 1-5.921 3.456 2.451 2.451 0 0 0-.761.149c-.165.05-.281 0-.281.1s.1 0 .281 0a4.055 4.055 0 0 0 .81 0 8.351 8.351 0 0 0 2.877-.678 9.922 9.922 0 0 0 3.109-2.117 6.35 6.35 0 0 0 .48-.463c.116-.132.215-.281.314-.413l.1-.116a10.09 10.09 0 0 0 1.257-2.1 9.361 9.361 0 0 0 .678-2.282 9.79 9.79 0 0 0-2.315-7.673 9.168 9.168 0 0 0-1.14-1.209z" class="cls-13" data-name="Path 1257" transform="translate(113.242 32.1)"/>
            <path id="Path_1258" d="M280.646 244.913c-.1.1.314.628.777 1.654a9.279 9.279 0 0 1 .463 1.125 10.467 10.467 0 0 1 .546 2.795 10.1 10.1 0 0 1-.661 4c-.2.5-.38.893-.513 1.158s-.182.446-.132.48.182 0 .413-.281a5.906 5.906 0 0 0 .777-1.091 8.384 8.384 0 0 0-.364-8.5 4.164 4.164 0 0 0-.447-.562c-.446-.629-.805-.828-.859-.778z" class="cls-13" data-name="Path 1258" transform="translate(109.824 57.941)"/>
            <path id="Path_1259" d="M276.095 187.222c.5-1.439 1.439-1.885 1.455-1.8a10.335 10.335 0 0 0-.876 1.885 7.773 7.773 0 0 0 4.961-.943 6.251 6.251 0 0 0 2.993-6.268 5.044 5.044 0 0 0-5.325-4.068 6.02 6.02 0 0 0-4.515 4.118 12.093 12.093 0 0 0-.4 1.521 20.506 20.506 0 0 0-.116 4.829v.083l.165.182a9.261 9.261 0 0 0 1.658.461zm3.308-8.451a2.563 2.563 0 0 1 2.166.364 2.944 2.944 0 0 1 .959 2.5 4.035 4.035 0 0 1-.893 2.431 3.027 3.027 0 0 1-1.869 1.058c-1.257.149-1.869-.513-1.753-.6a5.67 5.67 0 0 0 1.654-.149 2.878 2.878 0 0 0 1.852-2.778 2.183 2.183 0 0 0-.513-1.654 1.951 1.951 0 0 0-1.406-.38c-.959.116-1.654.4-1.654.232s.232-.662 1.373-1.025z" class="cls-10" data-name="Path 1259" transform="translate(105.61 12.9)"/>
            <path id="Path_1260" d="M278.068 178.482a1.951 1.951 0 0 1 1.406.38 2.183 2.183 0 0 1 .513 1.654 2.878 2.878 0 0 1-1.852 2.778c-.893.3-1.521 0-1.654.149s.5.744 1.753.6a3.027 3.027 0 0 0 1.869-1.058 4.035 4.035 0 0 0 .893-2.431 2.944 2.944 0 0 0-.959-2.5 2.563 2.563 0 0 0-2.166-.364c-1.141.364-1.654.86-1.555.976a6.326 6.326 0 0 0 1.752-.184z" class="cls-11" data-name="Path 1260" transform="translate(106.994 13.933)"/>
            <path id="Path_1261" d="M275.39 183.5a1.144 1.144 0 0 0 0 .215 3.771 3.771 0 0 0 .38 2.861 3.953 3.953 0 0 0 6.268.843 3.771 3.771 0 0 0 1.141-2.646c0-1.654-.91-2.431-.943-2.348a6.964 6.964 0 0 1 .331 2.315 3.323 3.323 0 1 1-6.582-.893v-.265a10.33 10.33 0 0 1 .876-1.885 2.856 2.856 0 0 0-1.471 1.803z" class="cls-12" data-name="Path 1261" transform="translate(106.314 16.619)"/>
            <path id="Path_1262" d="M265.3 422.991c4.8.513 9.923 1.092 15.347 1.654a2015.783 2015.783 0 0 1 31.686 3.936l2.993.38 6.615.86 2.613.3a3.315 3.315 0 0 0 .926 0 4.968 4.968 0 0 0-.893-.215l-2.6-.463c-1.654-.3-3.919-.662-6.615-1.075l-2.927-.447-1.24-.182a949.105 949.105 0 0 0-18.506-2.547c-3.8-.48-7.773-.976-11.891-1.439-12.4-1.439-23.649-2.5-31.8-3.159a450.045 450.045 0 0 0-9.658-.695h-.6l-2.034-.1a4.369 4.369 0 0 0-.926 0 3.8 3.8 0 0 0 .91.165l2.613.3h.447l9.195.926c4.573.61 10.163 1.14 16.345 1.801z" class="cls-8" data-name="Path 1262" transform="translate(80.515 172.264)"/>
            <path id="Path_1263" d="M294.079 248.006s-22.508-4.316-54.855-33.687-48.257-69.16-52.11-68.863-20.9-7.028-50.919 63.488-16.968 86.326-10.6 86 49.266-13.577 76.354-11.279 62.2 15.4 62.2 15.4z" class="cls-6" data-name="Path 1263" transform="translate(3.002 -7.136)"/>
            <path id="Path_1264" d="M286.529 251.034l-7.229 14.719-3.308 6.615a18.919 18.919 0 0 1-24.443 9.079l-48.422-15.33 26.113-64.5 48.637 24.161a18.969 18.969 0 0 1 8.649 25.253z" class="cls-7" data-name="Path 1264" transform="translate(59.157 29.642)"/>
            <path id="Path_1265" d="M271.079 249.825L256.641 280.2l-7.707-1.9-48.734 42.008-14.72-26.908s29.123-13.544 34.282-24.211-1.224-12.883-1.224-12.883l13.445-16.157z" class="cls-7" data-name="Path 1265" transform="translate(47.618 54.831)"/>
            <path id="Path_1266" d="M137.181 211.41c-15.959 38.2-22.094 72-13.693 75.511s28.114-24.608 44.089-62.843 22.061-71.955 13.792-75.461-28.213 24.608-44.188 62.793z" class="cls-7" data-name="Path 1266" transform="translate(4.629 -5.203)"/>
            <path id="Path_1267" d="M217.064 210.9l-13.114-3.721 7.607-15.512 9.906 5.772z" class="cls-7" data-name="Path 1267" transform="translate(133.335 90.627)"/>
            <path id="Path_1268" d="M166.28 202.71l35.556 21.284 4.118-8.666z" class="cls-13" data-name="Path 1268" transform="translate(108.708 97.845)"/>
            <path id="Path_1269" d="M211.557 191.67l-7.607 15.512 2.7.761 6.086-15.578z" class="cls-13" data-name="Path 1269" transform="translate(133.335 90.627)"/>
            <path id="Path_1270" d="M207.864 259.382s-9.178-3.076-8.881-2.993 28.445-51.879 28.445-51.879l2.233 1.009-20.887 52.143" class="cls-8" data-name="Path 1270" transform="translate(56.441 31.531)"/>
            <path id="Path_1271" d="M259.045 239.512c-.182.43-6.731-1.9-14.636-5.226s-14.189-6.334-14.007-6.747 6.731 1.9 14.652 5.209 14.173 6.334 13.991 6.764z" class="cls-8" data-name="Path 1271" transform="translate(76.983 46.556)"/>
            <path id="Path_1272" d="M260.2 233.86c-.182.413-6.119-1.9-13.23-5.16s-12.767-6.251-12.569-6.615 6.135 1.9 13.23 5.16 12.735 6.185 12.569 6.615z" class="cls-8" data-name="Path 1272" transform="translate(79.598 42.996)"/>
            <path id="Path_1273" d="M255.164 244.9c0 .232-1.654-.083-4.1-.777-1.24-.347-2.712-.777-4.349-1.29s-3.308-1.34-5.11-2.084c-7.194-3.109-12.717-6.185-12.552-6.615s6.069 1.951 13.23 4.961c1.786.744 3.456 1.654 4.961 2.183s2.977 1.125 4.151 1.654c2.38 1.038 3.819 1.749 3.769 1.968z" class="cls-8" data-name="Path 1273" transform="translate(76.101 50.863)"/>
            <path id="Path_1274" d="M163.931 181.8s-19.845-11.576-29.685 15.066 10.683 30.3 10.683 30.3a175.1 175.1 0 0 0 19.002-45.366z" class="cls-8" data-name="Path 1274" transform="translate(12.377 15.048)"/>
            <path id="Path_1275" d="M183.8 161.52a29.985 29.985 0 0 1-.612 4.961c-.529 3.308-1.273 7.9-2.348 13.66-.744 2.844-1.555 5.954-2.431 9.278-.43 1.654-.893 3.39-1.356 5.16-.232.893-.48 1.786-.728 2.7s-.612 1.8-.926 2.712c-1.29 3.655-2.663 7.492-4.068 11.461-.347.992-.711 2-1.075 3.01s-.86 1.968-1.29 2.977l-2.712 6.069-2.729 6.036c-.463.992-.86 2-1.389 2.944l-1.538 2.795-5.9 10.634c-.48.843-.91 1.654-1.406 2.5l-1.555 2.315-2.977 4.449-5.358 8.021c-3.589 4.6-6.615 8.269-8.666 10.783a32.73 32.73 0 0 1-3.308 3.8 27.352 27.352 0 0 1 2.861-4.217c1.985-2.679 4.8-6.466 8.269-11.1l5.143-8.021 2.861-4.482 1.5-2.315c.48-.81.91-1.654 1.373-2.5l5.772-10.617 1.521-2.778c.529-.926.91-1.935 1.373-2.927.876-1.968 1.786-3.969 2.7-5.987s1.819-4.035 2.712-6c.43-.992.926-1.935 1.273-2.944s.728-2 1.092-2.977a3317.59 3317.59 0 0 1 4.134-11.361c.314-.893.678-1.786.959-2.679l.744-2.663 1.439-5.11c.926-3.308 1.8-6.367 2.6-9.178l2.861-13.511a29.286 29.286 0 0 1 1.191-4.9z" class="cls-7" data-name="Path 1275" transform="translate(12.282 3.426)"/>
            <path id="Path_1276" d="M337.429 252.84s-19.084 35.341-24.211 35.887c-28.312 2.944-58.642-6.35-69.276-10.038a89.805 89.805 0 0 1-3.688-4.515 17.8 17.8 0 0 1-2.679-5.193 27.387 27.387 0 0 1-1.538-7.161 2.2 2.2 0 0 0-3.82-1.753c-1.224 1.654-1.521 7.872 1.29 14.537s-7.095 1.439-10.733-.4-15.182-6.962-16.637-6.251c-2.117 1.025-1.455 3.539 2.233 5.292s14.355 7.773 13.23 9.708-19.465-7.69-19.465-7.69-3.605-2.712-4.961-.513c-2.332 3.953 18.009 12.668 19.961 13.445 1.356.546.281 2.679-1.141 2.034s-18.191-10.022-20.573-6.02c-1.836 3.076 16.67 7.343 19.068 11.246s-13.71-4.7-15.363-1.654c-.612 1.125-.91 2.051 9.046 5.623a203.158 203.158 0 0 0 22.177 5.557v.1s95.587 44.652 120.725.347c16.438-28.924 17.976-32.6 23.8-48.935" class="cls-10" data-name="Path 1276" transform="translate(54.033 63.128)"/>
            <path id="Path_1277" d="M49.26 289.37h186.23a4.746 4.746 0 0 1 4.73 4.746v37.739c1.24 16.025 0 19.994-18.274 21.3v17.034l-16.753-16.753H49.26a4.73 4.73 0 0 1-4.73-4.73v-54.573a4.746 4.746 0 0 1 4.73-4.763z" class="cls-7" data-name="Path 1277" transform="translate(-44.53 87.01)"/>
            <path id="Rectangle_49" d="M0 0h98.465v4.217H0z" class="cls-6" data-name="Rectangle 49" transform="translate(61.553 396.44)"/>
            <path id="Rectangle_50" d="M0 0h98.465v4.217H0z" class="cls-6" data-name="Rectangle 50" transform="translate(61.553 405.287)"/>
            <path id="Rectangle_51" d="M0 0h49.911v4.217H0z" class="cls-6" data-name="Rectangle 51" transform="translate(61.553 414.813)"/>
            <path id="Rectangle_52" d="M0 0h27.502v27.502H0z" class="cls-13" data-name="Rectangle 52" transform="translate(25.336 394.555)"/>
            <path id="Path_1278" d="M327.708 39.99l5.639 11.427 12.618 1.836-9.129 8.9 2.15 12.552-11.279-5.92-11.278 5.915 2.15-12.552-9.129-8.9 12.618-1.836z" class="cls-12" data-name="Path 1278" transform="translate(202.307 -8.535)"/>
            <path id="Path_1279" d="M380.879 147.25l2.828 5.722 6.3.91-4.564 4.449 1.075 6.284-5.639-2.96-5.639 2.96 1.075-6.284-4.564-4.449 6.317-.91z" class="cls-12" data-name="Path 1279" transform="translate(243.036 61.587)"/>
            <path id="Path_1280" d="M59.312 228.6l2.828 5.722 6.3.926-4.563 4.452 1.075 6.268-5.64-2.968-5.639 2.96 1.075-6.268-4.548-4.444 6.3-.926z" class="cls-12" data-name="Path 1280" transform="translate(32.819 114.771)"/>
            <path id="Path_1281" d="M531.283 124.419a8.269 8.269 0 0 0-8.269-8.269l-206.075 1.009a8.269 8.269 0 0 0-8.269 8.269l.314 65.009a8.269 8.269 0 0 0 8.351 8.269h4.465l.132 23.8 23.252-23.913 178.16-.876a8.269 8.269 0 0 0 8.269-8.269z" class="cls-7" data-name="Path 1281" transform="translate(128.155 -26.235)"/>
            <path id="Path_1282" d="M411.6 165.9c-.132-3.738 0-9.245 0-14.156a15.5 15.5 0 0 1 3.655-16.753c7.674-8 12.866-6.251 15.843-6.218s16.769 3.308 20.738 19.7a28.469 28.469 0 0 1 .43 3.192c.083.81.165 1.654.232 2.15a17.266 17.266 0 0 0 9.046 14.173 33.669 33.669 0 0 0 2.828-13.743 34.068 34.068 0 1 0-51.272 29.529 48.686 48.686 0 0 1-1.5-17.874z" class="cls-6" data-name="Path 1282" transform="translate(185.396 -23.524)"/>
            <path id="Path_1283" d="M434.993 140.57v.132h-.182c0 6.615-.744 28.99-11.791 33.075a34.134 34.134 0 0 0 21.019-18.936 17.265 17.265 0 0 1-9.046-14.271z" class="cls-13" data-name="Path 1283" transform="translate(202.912 -10.27)"/>
            <path id="Path_1284" d="M405.639 148.68v-.81a48.685 48.685 0 0 0 1.5 17.894 33.172 33.172 0 0 0 7.161 3.192c-.132-4.746-.562-11.576-.562-11.576a9.278 9.278 0 0 1-8.1-8.7z" class="cls-13" data-name="Path 1284" transform="translate(191.385 -5.498)"/>
            <path id="Path_1285" d="M434.083 144.76s-12.6-1.373-14.7-13.23c-.761 1.786-2.117 5.623-1.257 8.732l-11.246 2.828-1.257 1.174c-.116 4.961-.165 10.419 0 14.156v.81a9.278 9.278 0 0 0 8.07 8.781 18.654 18.654 0 0 0 10.187-3.311s-2.365 5.739-10.038 5.325l-.149-1.935s.43 6.747.562 11.576a33.669 33.669 0 0 0 10.22 1.521 34.727 34.727 0 0 0 8.649-1.187zm-15.483 1.985a.976.976 0 1 1 .959 1.025.992.992 0 0 1-.959-1.025zm-.232-1.654a2.513 2.513 0 0 1 1.5-.6 2.613 2.613 0 0 1 1.571.43c.347.248.48.5.413.562a7.208 7.208 0 0 0-1.951-.347c-1.058.05-1.786.678-1.9.546s.033-.347.364-.628zm-11.692-.149a2.53 2.53 0 0 1 1.521-.6 2.481 2.481 0 0 1 1.555.447c.347.248.48.48.413.546a7.207 7.207 0 0 0-1.951-.347c-1.058.05-1.786.678-1.9.546s0-.347.364-.628zm.562 1.654a1 1 0 1 1 0 .017zm4.647 8.153a.6.6 0 0 1-.446-.4 1.752 1.752 0 0 1 .116-1.141c.215-.711.463-1.455.711-2.249a40.263 40.263 0 0 1 2.1-5.672 41.248 41.248 0 0 1-1.654 5.821q-.4 1.158-.744 2.233a1.554 1.554 0 0 0-.165.877c0 .182.3.232.579.248a6.284 6.284 0 0 1 1.654.265 7.524 7.524 0 0 1-1.736 0 1.655 1.655 0 0 1-.413.033zm4.035 3.837a2.878 2.878 0 0 1-3.489-1.058c2.15 0 6.2-2.448 5.127-1.654a2.3 2.3 0 0 1-1.637 2.729z" class="cls-8" data-name="Path 1285" transform="translate(191.469 -16.18)"/>
            <path id="Path_1286" d="M408.535 141.052a.992.992 0 1 0-.992.992.992.992 0 0 0 .992-.992z" class="cls-13" data-name="Path 1286" transform="translate(192.145 -10.603)"/>
            <path id="Path_1287" d="M409.861 140.254s0-.3-.413-.546a2.48 2.48 0 0 0-1.555-.447 2.53 2.53 0 0 0-1.521.6c-.331.281-.43.529-.364.6a7.189 7.189 0 0 1 1.9-.546c1.043-.058 1.854.57 1.953.339z" class="cls-13" data-name="Path 1287" transform="translate(191.778 -11.128)"/>
            <path id="Path_1288" d="M415.381 141.136a.976.976 0 1 0-.976.976.976.976 0 0 0 .976-.976z" class="cls-13" data-name="Path 1288" transform="translate(196.643 -10.538)"/>
            <path id="Path_1289" d="M416.931 140.394a.727.727 0 0 0-.413-.562 2.613 2.613 0 0 0-1.571-.43 2.514 2.514 0 0 0-1.5.6c-.331.281-.43.529-.364.6a6.953 6.953 0 0 1 1.9-.546 5.334 5.334 0 0 1 1.948.338z" class="cls-13" data-name="Path 1289" transform="translate(196.4 -11.036)"/>
            <path id="Path_1290" d="M411.745 149.3a6.285 6.285 0 0 0-1.654-.265c-.281 0-.529 0-.579-.248a1.554 1.554 0 0 1 .165-.877q.347-1.058.744-2.233a41.247 41.247 0 0 0 1.654-5.821 40.238 40.238 0 0 0-2.1 5.672c-.248.794-.5 1.538-.711 2.249a1.753 1.753 0 0 0-.116 1.141.6.6 0 0 0 .446.4 1.655 1.655 0 0 0 .463 0 7.524 7.524 0 0 0 1.687-.017z" class="cls-13" data-name="Path 1290" transform="translate(193.813 -10.734)"/>
            <path id="Path_1291" d="M409.7 148a2.878 2.878 0 0 0 3.489 1.058 2.3 2.3 0 0 0 1.654-2.795c1.057-.713-2.993 1.767-5.143 1.737z" class="cls-4" data-name="Path 1291" transform="translate(194.204 -6.634)"/>
            <path id="Path_1292" d="M420.607 151.62a18.654 18.654 0 0 1-10.187 3.308l.149 1.935c7.673.496 10.038-5.243 10.038-5.243z" class="cls-7" data-name="Path 1292" transform="translate(194.675 -3.046)"/>
            <path id="Path_1293" d="M446.664 150.653h.182v-.132c0-.562-.149-1.34-.232-2.15a28.49 28.49 0 0 0-.43-3.192c-3.969-16.438-17.96-19.663-20.738-19.7s-8.17-1.786-15.843 6.218a15.5 15.5 0 0 0-3.655 16.753l1.257-1.174 11.246-2.828c-.86-3.109.5-6.946 1.257-8.732 2.1 11.791 14.7 13.23 14.7 13.23l-1.025 35.209c.463-.132.943-.232 1.406-.38 11.13-4.131 11.941-26.589 11.875-33.122z" class="cls-13" data-name="Path 1293" transform="translate(191.06 -20.254)"/>
            <path id="Rectangle_53" d="M0 0h107.098v5.904H0z" class="cls-6" data-name="Rectangle 53" transform="rotate(-.28 23741.486 -94492.065)"/>
            <path id="Rectangle_54" d="M0 0h107.098v5.904H0z" class="cls-6" data-name="Rectangle 54" transform="rotate(-.28 26847.98 -94503.095)"/>
            <path id="Rectangle_55" d="M0 0h53.086v5.904H0z" class="cls-6" data-name="Rectangle 55" transform="rotate(-.28 29866.671 -94507.179)"/>
            <path id="Path_1294" d="M455.319 70.528v21.384a8.765 8.765 0 0 1-8.765 8.765h-36.878v12.188l-6.615-11.659a7.773 7.773 0 0 1-7.21-7.756V70.528a8.748 8.748 0 0 1 8.749-8.748h41.956a8.748 8.748 0 0 1 8.765 8.748z" class="cls-6" data-name="Path 1294" transform="translate(185.15 -61.78)"/>
            <circle id="Ellipse_11" cx="3.605" cy="3.605" r="3.605" class="cls-7" data-name="Ellipse 11" transform="translate(620.359 16.951)"/>
            <circle id="Ellipse_12" cx="3.605" cy="3.605" r="3.605" class="cls-7" data-name="Ellipse 12" transform="translate(606.683 16.951)"/>
            <path id="Path_1295" d="M403.1 75.638a3.589 3.589 0 1 0 1.039-2.576 3.605 3.605 0 0 0-1.039 2.576z" class="cls-7" data-name="Path 1295" transform="translate(189.889 -55.099)"/>
        </g>
    </g>
</svg>
