<svg xmlns="http://www.w3.org/2000/svg" width="670.449" height="623.267" viewBox="0 0 670.449 623.267">
    <defs>
        <style>
            .cls-1{fill:#3a6cd6}.cls-2{fill:#fff}.cls-3{fill:#5987e4}.cls-4{fill:#e4b26d}.cls-5{fill:#14365b}.cls-6{fill:#b78876}.cls-7{fill:#a36957}.cls-8{fill:#184bb8}.cls-9{fill:#e5baab}.cls-10{fill:#d78776}
        </style>
    </defs>
    <g id="_2" data-name="2" transform="translate(.012 -69.749)">
        <g id="Objects" transform="translate(-.012 69.749)">
            <path id="Path_842" d="M392.36 638.569l-183.087-.862a39.861 39.861 0 0 1-39.7-40.037l1.953-459A39.9 39.9 0 0 1 211.577 99l183.087.844a39.9 39.9 0 0 1 39.7 40.055l-1.935 458.949a39.914 39.914 0 0 1-40.069 39.721z" class="cls-1" data-name="Path 842" transform="translate(31.569 -99)"/>
            <path id="Path_843" d="M389.155 108.809l-35.5-.158a8.8 8.8 0 0 0-8.655 8.971v6.438a8.8 8.8 0 0 1-8.655 8.971l-69.238-.317a8.8 8.8 0 0 1-8.584-9.059v-6.438a8.8 8.8 0 0 0-8.584-9.059H237.45L206.438 108a27.935 27.935 0 0 0-28.058 27.811l-1.9 448.007a27.952 27.952 0 0 0 27.811 28.058l182.718.844a27.934 27.934 0 0 0 28.058-27.811l1.9-448.007a27.952 27.952 0 0 0-27.811-28.093z" class="cls-2" data-name="Path 843" transform="translate(36.815 -92.168)"/>
            <path id="Path_844" d="M243.6 364.415a3.835 3.835 0 1 1-3.835-3.835 3.835 3.835 0 0 1 3.835 3.835z" class="cls-3" data-name="Path 844" transform="translate(81.943 99.565)"/>
            <path id="Path_845" d="M251.88 364.415a3.835 3.835 0 1 1-3.835-3.835 3.835 3.835 0 0 1 3.835 3.835z" class="cls-3" data-name="Path 845" transform="translate(88.229 99.565)"/>
            <path id="Path_846" d="M260.16 364.415a3.835 3.835 0 1 1-3.835-3.835 3.835 3.835 0 0 1 3.835 3.835z" class="cls-3" data-name="Path 846" transform="translate(94.514 99.565)"/>
            <path id="Path_847" d="M197 185.323v-.968a12.7 12.7 0 0 1 2.586-7.036 13.088 13.088 0 0 1 4.943-4.081 16.06 16.06 0 0 1 7.969-1.319h33.282l140.728.281h1.038l-.721.756-18.031 18.963.123-.3v31.4a23.542 23.542 0 0 1-.457 6.245 13.475 13.475 0 0 1-2.973 5.541 13.633 13.633 0 0 1-5.066 3.624 15.112 15.112 0 0 1-6.086 1.038h-57.417l-76.89-.158h-8.092a15.251 15.251 0 0 1-7.547-1.354 13.51 13.51 0 0 1-7.6-11.241v-22.341c0-6.141 0-10.854.088-14.073v14.073c0 6.069 0 13.633.123 22.305a12.964 12.964 0 0 0 7.353 10.748 14.565 14.565 0 0 0 7.283 1.267h8.391l76.978-.088h57.382a14.072 14.072 0 0 0 5.735-.968 12.93 12.93 0 0 0 4.75-3.377 12.472 12.472 0 0 0 2.744-5.172 22.586 22.586 0 0 0 .44-6.016v-31.61l.123-.123 18.048-18.963.334.756-140.728-.6-23.642-.123h-9.657a15.831 15.831 0 0 0-7.81 1.214 12.912 12.912 0 0 0-4.89 3.94 13.457 13.457 0 0 0-2.146 4.116 20.018 20.018 0 0 0-.688 3.644z" class="cls-3" data-name="Path 847" transform="translate(52.232 -43.697)"/>
            <path id="Path_848" d="M283.738 125.984l-131.528-.6.018-4.046 131.528.616z" class="cls-3" data-name="Path 848" transform="translate(115.564 26.882)"/>
            <path id="Path_849" d="M283.738 133.544l-131.528-.6.018-4.046 131.528.616z" class="cls-3" data-name="Path 849" transform="translate(115.564 32.621)"/>
            <path id="Rectangle_34" d="M0 0h4.046v52.034H0z" class="cls-3" data-name="Rectangle 34" transform="rotate(-89.72 263.493 -85.047)"/>
            <path id="Path_850" d="M380.315 235.859v40.459a13.246 13.246 0 0 1-13.228 13.246h-144.95a13.246 13.246 0 0 1-13.246-13.246v-34.18l-18.031-18.963 176.156-.545a13.228 13.228 0 0 1 13.3 13.228z" class="cls-3" data-name="Path 850" transform="translate(47.731 -5.152)"/>
            <path id="Path_851" d="M158.028 176.642l131.528-.616-.018-4.046-131.528.62z" class="cls-2" data-name="Path 851" transform="translate(119.967 65.323)"/>
            <path id="Path_852" d="M158.028 184.184l131.528-.6-.018-4.046-131.528.616z" class="cls-2" data-name="Path 852" transform="translate(119.967 71.062)"/>
            <path id="Rectangle_35" d="M0 0h52.034v4.046H0z" class="cls-2" data-name="Rectangle 35" transform="rotate(-.28 54199.492 -56748.177)"/>
            <path id="Path_853" d="M260.035 147.984a7.036 7.036 0 0 0 4.222-6.579 6.667 6.667 0 1 0-13.316 0 7.036 7.036 0 0 0 4.24 6.632c-10.256 1.548-9.8 12.7-9.8 12.7l24.258.106s.561-11.311-9.604-12.859z" class="cls-3" data-name="Path 853" transform="translate(89.116 -72.131)"/>
            <path id="Path_854" d="M252.465 148.053a7.142 7.142 0 0 0 4.239-6.579 6.685 6.685 0 1 0-13.334 0 7.036 7.036 0 0 0 4.239 6.632c-10.256 1.548-9.8 12.7-9.8 12.7l24.258.106s.565-11.312-9.602-12.859z" class="cls-1" data-name="Path 854" transform="translate(83.369 -72.2)"/>
            <path id="Rectangle_36" d="M0 0h65.21v8.092H0z" class="cls-1" data-name="Rectangle 36" transform="rotate(.26 -20416.172 67857.874)"/>
            <path id="Path_855" d="M198.737 285.657a4.819 4.819 0 0 1 0-.95 6.789 6.789 0 0 1 .9-2.691 7.143 7.143 0 0 1 3.518-3.008 17.593 17.593 0 0 1 6.262-.545h40.333l135.82.281h1.038l-.774.721-17.767 19.069.123-.317v15.568a7.441 7.441 0 0 1-5 6.667 8.058 8.058 0 0 1-2.867.422h-59.95l-69.344-.141H207.3a13.664 13.664 0 0 1-3.043-.176 7.283 7.283 0 0 1-5.629-5.875 16.655 16.655 0 0 1-.106-2.621v-9.183c0-5.506 0-9.781.088-12.736 0 2.955 0 7.23.088 12.736v9.183a15.188 15.188 0 0 0 .123 2.533 6.773 6.773 0 0 0 5.277 5.471 14.573 14.573 0 0 0 2.938.141h23.994l69.414-.106h59.936a7.178 7.178 0 0 0 2.551-.369 6.614 6.614 0 0 0 3.764-3.36 6.474 6.474 0 0 0 .633-2.5v-15.689l.123-.123 17.8-19.033.317.756-135.8-.58-40.336-.264a16.886 16.886 0 0 0-6.157.457 7.036 7.036 0 0 0-4.363 5.453 7.928 7.928 0 0 1-.176.809z" class="cls-3" data-name="Path 855" transform="translate(53.54 37.173)"/>
            <path id="Path_856" d="M287.088 228.664l-131.528-.6.018-4.046 131.528.6z" class="cls-3" data-name="Path 856" transform="translate(118.107 104.826)"/>
            <path id="Rectangle_37" d="M0 0h4.046v53.371H0z" class="cls-3" data-name="Rectangle 37" transform="rotate(-89.72 349.877 -3.664)"/>
            <path id="Path_857" d="M376.524 326.577v27.706a7.036 7.036 0 0 1-7.036 7.036H214.581a7.036 7.036 0 0 1-7.036-7.036v-15.146L189.76 320.1l179.727-.563a7.036 7.036 0 0 1 7.037 7.04z" class="cls-3" data-name="Path 857" transform="translate(46.896 68.412)"/>
            <path id="Path_858" d="M153.778 269.684l131.528-.616-.018-4.028-131.528.6z" class="cls-2" data-name="Path 858" transform="translate(116.741 135.965)"/>
            <path id="Path_859" d="M153.778 277.092l131.528-.616-.018-4.046-131.528.616z" class="cls-2" data-name="Path 859" transform="translate(116.741 141.574)"/>
            <circle id="Ellipse_9" cx="20.634" cy="20.634" r="20.634" class="cls-4" data-name="Ellipse 9" transform="translate(614.792 21.584)"/>
            <path id="Path_860" d="M413.124 119.64c.774 0 1.478.827 1.548 1.953s-.51 2.093-1.3 2.128-1.478-.827-1.548-1.953.509-2.093 1.3-2.128z" class="cls-5" data-name="Path 860" transform="translate(215.459 -83.332)"/>
            <path id="Path_861" d="M416.645 116.9c0 .3-1.759.211-3.518.88s-3.184 1.759-3.4 1.548.862-1.759 3.043-2.533 3.963-.161 3.875.105z" class="cls-5" data-name="Path 861" transform="translate(213.856 -85.779)"/>
            <path id="Path_862" d="M424.934 122.443c-.229.176-1.337-1.02-3.114-1.2s-3.114.721-3.29.51.141-.51.721-.915a4.275 4.275 0 0 1 2.691-.633 4.116 4.116 0 0 1 2.48 1.2c.495.528.618.95.512 1.038z" class="cls-5" data-name="Path 862" transform="translate(220.519 -82.916)"/>
            <path id="Path_863" d="M426.69 120.278c-.158.246-1.759-.616-4.063-.686s-3.976.633-4.116.352a4.767 4.767 0 0 1 4.151-1.39c2.568.088 4.204 1.531 4.028 1.724z" class="cls-5" data-name="Path 863" transform="translate(220.54 -84.199)"/>
            <path id="Path_864" d="M431.143 122.77a6.526 6.526 0 0 1-1.3 3.958 10.449 10.449 0 0 1-17.591.545 6.262 6.262 0 0 1-1.53-3.87 24.749 24.749 0 0 0 2.111 3.518 10.132 10.132 0 0 0 16.342-.51 29.541 29.541 0 0 0 1.968-3.641z" class="cls-5" data-name="Path 864" transform="translate(214.626 -80.956)"/>
            <path id="Path_865" d="M113.264 343.4a29.025 29.025 0 1 1-28.146-29.9 29.025 29.025 0 0 1 28.146 29.9z" class="cls-4" data-name="Path 865" transform="translate(-55.228 63.814)"/>
            <path id="Path_866" d="M74.735 326.1a3.237 3.237 0 0 0-4.468-.651 5.559 5.559 0 0 0-2.41 3.94 5.682 5.682 0 0 0-2.322-4.081 3.29 3.29 0 0 0-4.521.387 4.362 4.362 0 0 0-.739 3.043 6.016 6.016 0 0 0 1 3.008 22.867 22.867 0 0 0 6.456 5.541 21.268 21.268 0 0 0 6.386-5.172 6.052 6.052 0 0 0 1.179-2.938 4.31 4.31 0 0 0-.563-3.078z" class="cls-5" data-name="Path 866" transform="translate(-51.423 72.245)"/>
            <path id="Path_867" d="M89.256 326.509a3.219 3.219 0 0 0-4.468-.633 5.453 5.453 0 0 0-2.41 3.94 5.682 5.682 0 0 0-2.322-4.081 3.272 3.272 0 0 0-4.521.387 4.327 4.327 0 0 0-.739 3.043 5.84 5.84 0 0 0 1 3.008 22.867 22.867 0 0 0 6.456 5.541 21.811 21.811 0 0 0 6.386-5.172 6.1 6.1 0 0 0 1.179-2.955 4.345 4.345 0 0 0-.563-3.078z" class="cls-5" data-name="Path 867" transform="translate(-40.402 72.561)"/>
            <path id="Path_868" d="M85.309 334.43a9.569 9.569 0 0 1-19.069-.88z" class="cls-2" data-name="Path 868" transform="translate(-46.868 79.047)"/>
            <path id="Path_869" d="M139.862 364.275c.51-2.973-.616-13.844-.616-13.844s-11.4-1.214-12.085-12.507 0-37.363 0-37.363l20.757-10.15 22.869 17.289-3.518 56.52z" class="cls-6" data-name="Path 869" transform="translate(-.854 46.299)"/>
            <path id="Path_870" d="M128.82 307.543a1.442 1.442 0 1 0 1.442-1.443 1.442 1.442 0 0 0-1.442 1.443z" class="cls-5" data-name="Path 870" transform="translate(.636 58.21)"/>
            <path id="Path_871" d="M127.634 307.092c.176.176 1.249-.721 2.8-.809s2.727.668 2.9.457-.123-.44-.633-.792a3.8 3.8 0 0 0-2.322-.616 3.906 3.906 0 0 0-2.234.9c-.459.403-.617.768-.511.86z" class="cls-5" data-name="Path 871" transform="translate(-.288 57.622)"/>
            <circle id="Ellipse_10" cx="1.442" cy="1.442" r="1.442" class="cls-5" data-name="Ellipse 10" transform="translate(146.291 364.028)"/>
            <path id="Path_872" d="M137.191 306.925c.193.194 1.249-.721 2.815-.792s2.727.668 2.885.457-.106-.44-.616-.792a3.816 3.816 0 0 0-4.556.281c-.476.406-.619.775-.528.846z" class="cls-5" data-name="Path 872" transform="translate(6.972 57.508)"/>
            <path id="Path_873" d="M135.857 319.42a9.832 9.832 0 0 0-2.551-.317c-.387 0-.774-.088-.862-.369a2.252 2.252 0 0 1 .229-1.267l1.055-3.219a56.383 56.383 0 0 0 2.375-8.408 62.19 62.19 0 0 0-2.973 8.215c-.369 1.126-.7 2.216-1.02 3.237a2.427 2.427 0 0 0-.158 1.636.967.967 0 0 0 .668.563 2.27 2.27 0 0 0 .668 0 10.661 10.661 0 0 0 2.569-.071z" class="cls-5" data-name="Path 873" transform="translate(2.957 58.012)"/>
            <path id="Path_874" d="M140.327 314.4a17.187 17.187 0 0 1-7.547 2.586 4.328 4.328 0 0 0 5.172 1.46c3.324-1.39 2.375-4.046 2.375-4.046z" class="cls-2" data-name="Path 874" transform="translate(3.642 64.51)"/>
            <path id="Path_875" d="M133.9 326.716a28.145 28.145 0 0 0 14.97-5.066s-3.4 8.3-14.724 7.846z" class="cls-7" data-name="Path 875" transform="translate(4.492 70.014)"/>
            <path id="Path_876" d="M167.848 305.273s4.609 26.052-17.4 30.749l.651-31.382z" class="cls-5" data-name="Path 876" transform="translate(17.056 57.101)"/>
            <path id="Path_877" d="M186.55 318.914a39.614 39.614 0 0 0-7.529-15.269c3.166 1.319 5.277 2.639 5.717 2.216s-.369-1.214-1.759-2.392a18.769 18.769 0 0 0-6.086-3.325l-1.038-.281a12.1 12.1 0 0 0 3.905-2.516 9.112 9.112 0 0 0 2.2-10.115 8.373 8.373 0 0 0-8.25-4.31 10.555 10.555 0 0 0-7.81 5.436 12.521 12.521 0 0 0-.932 2.181 30.907 30.907 0 0 1 .387-3.729c.7-4.345 2.322-7.6 2.058-7.74a15.339 15.339 0 0 0-3.008 7.582 9.428 9.428 0 0 1-.158 1.231 25.348 25.348 0 0 0-1.267-3.29c-1.073-2.269-2.093-3.518-2.392-3.325-.616.3 1.39 5.066 2.216 11.5a22.869 22.869 0 0 0-6.122-1.143c-3.835 0-10.2-1.759-19.209 5.471a27.547 27.547 0 0 0-7.758 7.441 27.846 27.846 0 0 0-4.838 14.741 24.362 24.362 0 0 0 .3 4.732 5.278 5.278 0 0 0 .44 1.671c.176 0-.334-2.445 0-6.368a28.252 28.252 0 0 1 1.917-8.479 21.461 21.461 0 0 0 .844 14.2l20.142-3.149c-1.3-4.415-.352-11.417.264-14.847 3.518 16.448 17.679 24.346 17.679 24.346l21.2-3.325c-.304-1.916-.655-7.421-1.113-9.145z" class="cls-5" data-name="Path 877" transform="translate(-2.368 37.691)"/>
            <path id="Path_878" d="M187.65 451.225c.651.317 52.615 10.555 50.7 3.518s-50.24-18.084-50.24-18.084z" class="cls-1" data-name="Path 878" transform="translate(45.294 157.318)"/>
            <path id="Path_879" d="M201.218 442.33c.246 0 .616 1.2.6 2.762s-.387 2.8-.633 2.762-.3-1.267-.281-2.762.068-2.744.314-2.762z" class="cls-8" data-name="Path 879" transform="translate(55.351 161.622)"/>
            <path id="Path_880" d="M199.787 441.79c.229 0 .686 1.39.51 3.219s-.827 3.166-1.055 3.078 0-1.46.141-3.166.14-3.096.404-3.131z" class="cls-8" data-name="Path 880" transform="translate(54.02 161.212)"/>
            <path id="Path_881" d="M197.725 441.63c.246 0 .6 1.372.633 3.131s-.264 3.166-.51 3.149-.369-1.407-.4-3.131.031-3.131.277-3.149z" class="cls-8" data-name="Path 881" transform="translate(52.722 161.09)"/>
            <path id="Path_882" d="M194.023 438.742a2.571 2.571 0 0 1 .809.088 13.569 13.569 0 0 1 2.287.475c1.988.422 4.855 1.108 8.356 2.076s7.652 2.181 12.191 3.729c2.269.774 4.679 1.566 7.036 2.6a22.869 22.869 0 0 1 6.931 4.38 2.812 2.812 0 0 1 .756.932 1.179 1.179 0 0 1-.44 1.46 4.273 4.273 0 0 1-2.2.475 77.933 77.933 0 0 1-3.993.193c-2.621 0-5.154 0-7.564-.193-4.8-.3-9.095-.9-12.683-1.46s-6.473-1.126-8.461-1.53l-2.287-.475a2.818 2.818 0 0 1-.792-.229 20.017 20.017 0 0 1 3.131.352l8.5 1.231c3.518.493 7.881 1.02 12.648 1.284 2.392.123 4.89.193 7.494.123 1.284 0 2.621-.088 3.94-.193a3.694 3.694 0 0 0 1.759-.334c.158-.123.176-.193.123-.352a2.62 2.62 0 0 0-.545-.633 22.217 22.217 0 0 0-6.667-4.2c-2.357-1.02-4.75-1.759-7.036-2.639-4.521-1.566-8.637-2.867-12.1-3.905s-6.315-1.759-8.268-2.357a23.336 23.336 0 0 1-2.92-.9z" class="cls-8" data-name="Path 882" transform="translate(50.092 158.895)"/>
            <path id="Path_883" d="M210.093 443.13c.246.088-.264 2.058 0 4.486s.932 4.31.686 4.433a8.356 8.356 0 0 1-.616-8.919z" class="cls-8" data-name="Path 883" transform="translate(61.621 162.229)"/>
            <path id="Path_884" d="M111.283 439.09c-.721 0-53.16 7.23-49.1 13.123s53.389.721 53.389.721z" class="cls-1" data-name="Path 884" transform="translate(-50.115 159.162)"/>
            <path id="Path_885" d="M78.908 448.172c-.211.106-.968-.95-1.46-2.428s-.475-2.744-.3-2.744a6.948 6.948 0 0 1 1.161 2.533c.476 1.425.827 2.516.599 2.639z" class="cls-8" data-name="Path 885" transform="translate(-38.673 162.13)"/>
            <path id="Path_886" d="M80.551 448.579c-.211.123-1.108-1.091-1.548-2.867s-.246-3.272 0-3.272.475 1.39.9 3.043.877 2.973.648 3.096z" class="cls-8" data-name="Path 886" transform="translate(-37.379 161.705)"/>
            <path id="Path_887" d="M82.6 448.012c-.229.105-1-1.108-1.618-2.762s-.792-3.078-.545-3.149.809 1.231 1.407 2.832.985 2.973.756 3.079z" class="cls-8" data-name="Path 887" transform="translate(-36.173 161.446)"/>
            <path id="Path_888" d="M103.811 452.108a2.677 2.677 0 0 1-.792.176l-2.322.3c-2.023.246-4.943.528-8.567.756s-7.951.422-12.753.457c-2.41 0-4.925 0-7.564-.158a22.1 22.1 0 0 1-7.969-1.865 2.939 2.939 0 0 1-1.038-.633 1.2 1.2 0 0 1 0-1.513 4.134 4.134 0 0 1 1.917-1.179c1.249-.545 2.48-1.02 3.712-1.5 2.463-.9 4.89-1.636 7.212-2.287 4.644-1.284 8.9-2.111 12.472-2.744s6.491-1.056 8.5-1.319l2.322-.3a2.57 2.57 0 0 1 .809 0 20.066 20.066 0 0 1-3.078.686l-8.426 1.6c-3.518.721-7.775 1.618-12.314 2.92-2.3.669-4.7 1.407-7.036 2.322-1.214.475-2.445.95-3.677 1.478a3.7 3.7 0 0 0-1.53.88c-.106.176-.106.229 0 .369a2.481 2.481 0 0 0 .739.422 21.689 21.689 0 0 0 7.652 1.759c2.568.211 5.1.193 7.494.211 4.785 0 9.095-.106 12.718-.246s6.544-.352 8.567-.475a22.234 22.234 0 0 1 2.955-.123z" class="cls-8" data-name="Path 888" transform="translate(-49.679 160.059)"/>
            <path id="Path_889" d="M71.229 451.552c-.281 0-.422-2.023-1.407-4.257s-2.287-3.782-2.093-3.958 1.917 1.143 2.938 3.518a6.368 6.368 0 0 1 .562 4.697z" class="cls-8" data-name="Path 889" transform="translate(-45.753 162.374)"/>
            <path id="Path_890" d="M258.811 403.875h-26.686l-98.51 2.551-28.146-3.641c-4.38-.967-7.265-1.372-8.2-1.073a23.941 23.941 0 0 0-9.622 7.318c-10.73 12.806-3.976 32.543 12.173 36.941l15.163 4.116-33.173 10.66 11.205 31.8s49.536-10.713 97.577-22.024l76.873 20.793 11.082-35.692-13.035-4.239c8.18-2.5 13.352-4.468 14.073-5.664 4.838-7.494 13.4-42.342-20.9-41.814" class="cls-3" data-name="Path 890" transform="translate(-35.049 130.715)"/>
            <path id="Path_891" d="M162.888 368.05l-57.136 23.66-17.292-4.662z" class="cls-1" data-name="Path 891" transform="translate(67.172 214.159)"/>
            <path id="Path_892" d="M45.57 342.49l73.161 20.951 55.693-19z" class="cls-1" data-name="Path 892" transform="translate(34.614 194.757)"/>
            <path id="Path_893" d="M100.082 466.226a25.3 25.3 0 0 1-2.34-4.591c-1.3-2.9-2.99-7.036-4.644-11.54s-3.008-8.8-3.87-11.821a26.177 26.177 0 0 1-1.179-5.013 31.47 31.47 0 0 1 1.759 4.82c1.02 3.008 2.445 7.16 4.1 11.7s3.254 8.637 4.4 11.592a33.882 33.882 0 0 1 1.777 4.855z" class="cls-1" data-name="Path 893" transform="translate(-30.312 154.737)"/>
            <path id="Path_894" d="M274.448 409.641a1.762 1.762 0 0 1-.457.194l-1.372.51-5.277 1.865-19.508 6.632c-16.553 5.524-39.457 13-64.84 20.969s-48.464 14.916-65.194 19.841l-19.843 5.735-5.4 1.5-1.425.369a1.936 1.936 0 0 1-.493.088l.475-.176 1.39-.457 5.277-1.671 19.755-6.016c16.694-5.066 39.72-12.12 65.087-20.089s48.3-15.339 64.893-20.7l19.667-6.35 5.365-1.759 1.39-.422a1.761 1.761 0 0 1 .51-.053z" class="cls-1" data-name="Path 894" transform="translate(-28.346 136.806)"/>
            <path id="Path_895" d="M214.093 408.91a5.1 5.1 0 0 1-1.126.475l-3.272 1.2c-2.85 1.02-7.036 2.463-12.138 4.2-10.273 3.518-24.5 8.162-40.248 13.211s-30.063 9.5-40.459 12.63c-5.277 1.566-9.411 2.8-12.314 3.624l-3.36.932a8.912 8.912 0 0 1-1.2.264 5.274 5.274 0 0 1 1.143-.44l3.307-1.091 12.314-3.905 40.36-12.876 40.319-12.965 12.226-3.923 3.342-1.038a5.389 5.389 0 0 1 1.106-.298z" class="cls-1" data-name="Path 895" transform="translate(-21.256 136.253)"/>
            <path id="Path_896" d="M173.584 425.254c0 .246-16.412-4.222-36.519-9.974s-36.325-10.555-36.255-10.854 16.412 4.222 36.5 9.974 36.344 10.608 36.274 10.854z" class="cls-1" data-name="Path 896" transform="translate(-20.626 132.838)"/>
            <path id="Path_897" d="M193.39 430.94a184 184 0 0 1-6.3 17.5c-3.712 9.569-6.913 17.239-7.142 17.151a180.906 180.906 0 0 1 6.3-17.485c3.711-9.566 6.913-17.254 7.142-17.166z" class="cls-1" data-name="Path 897" transform="translate(39.449 152.975)"/>
            <path id="Path_898" d="M195.965 442.607a125.7 125.7 0 0 1-14.372-3.36 119.207 119.207 0 0 1-14.073-4.257 123.9 123.9 0 0 1 14.372 3.36 119.184 119.184 0 0 1 14.073 4.257z" class="cls-1" data-name="Path 898" transform="translate(30.013 156.05)"/>
            <path id="Path_899" d="M150.336 432.335a18 18 0 0 1-2.727-.545l-7.353-1.759c-6.192-1.583-14.759-3.729-24.1-6.544a191.748 191.748 0 0 1-23.484-8.6c-2.9-1.337-5.277-2.5-6.79-3.36a14.353 14.353 0 0 1-2.392-1.427 17.888 17.888 0 0 1 2.551 1.108c1.618.756 3.958 1.759 6.9 3.078a234.088 234.088 0 0 0 23.484 8.321c9.323 2.815 17.855 5.049 24.012 6.79l7.265 2.093a13.823 13.823 0 0 1 2.639.844z" class="cls-1" data-name="Path 899" transform="translate(-33.774 137.156)"/>
            <path id="Path_900" d="M186.852 334.744h-2.164l-.317-7.494-29.711 1.759s.3 3.518.281 5.963c-18.295 1.759-47.619 11.153-48.322 52.333l23.466.545c-1.988 18.893-1.759 30.169-3.677 37.258-3.272 11.716-13.633 36.449-11.557 37.7s98.369 3.026 102.96.528-3.764-34.777-5.858-43.538c-1.319-5.594-1.6-18.4-1.636-28.3l26.949-1.214s1.955-55.698-50.414-55.54z" class="cls-4" data-name="Path 900" transform="translate(-16.216 74.265)"/>
            <path id="Path_901" d="M163.891 331.365a18.569 18.569 0 0 1-4.363.739c-2.727.317-6.491.616-10.66.7a102.152 102.152 0 0 1-10.66-.246 20.037 20.037 0 0 1-4.4-.563 22.5 22.5 0 0 1 4.415-.088h10.557c4.081 0 7.9-.281 10.555-.422a23.721 23.721 0 0 1 4.556-.123z" class="cls-5" data-name="Path 901" transform="translate(4.424 77.345)"/>
            <path id="Path_902" d="M137.2 328.11c.264 0 .457 1.443.457 3.219s-.194 3.237-.457 3.237-.457-1.442-.457-3.237.12-3.219.457-3.219z" class="cls-5" data-name="Path 902" transform="translate(6.648 74.917)"/>
            <path id="Path_903" d="M141.66 327.79c.246 0 .493 1.583.545 3.518a7.6 7.6 0 0 1-.352 3.518c-.264 0-.51-1.583-.563-3.518a7.318 7.318 0 0 1 .369-3.518z" class="cls-5" data-name="Path 903" transform="translate(10.049 74.675)"/>
            <path id="Path_904" d="M146.266 327.63c.246 0 .6 1.548.633 3.518s-.229 3.518-.493 3.518a8.585 8.585 0 0 1-.422-3.518c.053-1.9.053-3.5.282-3.518z" class="cls-5" data-name="Path 904" transform="translate(13.64 74.553)"/>
            <path id="Path_905" d="M149.645 327.47c.264 0 .44 1.548.686 3.43s.44 3.43.194 3.518-.862-1.425-1.091-3.4-.034-3.565.211-3.548z" class="cls-5" data-name="Path 905" transform="translate(16.207 74.432)"/>
            <path id="Path_906" d="M122.333 369.041a43.464 43.464 0 0 1-.528-8.8 41.075 41.075 0 0 1 .387-8.8 44.749 44.749 0 0 1 .528 8.8 44.224 44.224 0 0 1-.387 8.8z" class="cls-5" data-name="Path 906" transform="translate(-4.751 92.635)"/>
            <path id="Path_907" d="M165.733 371.356a52.215 52.215 0 0 1-1.267-9.5 49.081 49.081 0 0 1-.334-9.587 102.315 102.315 0 0 1 1.6 19.086z" class="cls-5" data-name="Path 907" transform="translate(27.368 93.257)"/>
            <path id="Path_908" d="M133.927 361.807a20.023 20.023 0 0 1-4.046.123h-19.4a19.768 19.768 0 0 1-4.028-.123 16.2 16.2 0 0 1 4.011-.51c2.48-.193 5.928-.334 9.728-.317s7.247.141 9.728.334a17.06 17.06 0 0 1 4.011.492z" class="cls-5" data-name="Path 908" transform="translate(-16.345 99.868)"/>
            <path id="Path_909" d="M193.241 363.341a110.315 110.315 0 0 1-14.337.457 110.488 110.488 0 0 1-14.354-.457 114.331 114.331 0 0 1 14.354-.457 114.2 114.2 0 0 1 14.337.457z" class="cls-5" data-name="Path 909" transform="translate(27.759 101.272)"/>
            <path id="Path_910" d="M211.647 363.25s7.036 65.667-13.088 72.123-59.809-24.117-59.809-24.117l11.434-23.15s26.386 18.33 32.086 14.2S185 363.25 185 363.25z" class="cls-6" data-name="Path 910" transform="translate(8.174 101.592)"/>
            <path id="Path_911" d="M107.345 361.543s-7.16 65 12.947 71.472S180.1 408.88 180.1 408.88l-11.452-23.15S142.1 402.706 136.6 398.413c-3.184-2.5-3.272-36.536-3.272-36.536-9.36-.405-18.028-.809-25.983-.334z" class="cls-6" data-name="Path 911" transform="translate(-16.606 100.133)"/>
            <path id="Path_912" d="M218.4 369.15l-13.352 65.439s-82.044-.633-82.889-.88-8.8-64.559-8.8-64.559z" class="cls-5" data-name="Path 912" transform="translate(-11.099 106.071)"/>
            <path id="Path_913" d="M139.575 389.982a4.925 4.925 0 1 0 4.925-4.591 4.785 4.785 0 0 0-4.925 4.591z" class="cls-2" data-name="Path 913" transform="translate(8.792 118.398)"/>
            <path id="Path_914" d="M149.56 306.72a5.277 5.277 0 0 1 5-.3 5.154 5.154 0 0 1 1.865 3.272 6.808 6.808 0 0 1-1.5 5.963 4.644 4.644 0 0 1-5.805.792" class="cls-6" data-name="Path 914" transform="translate(16.046 58.082)"/>
            <path id="Path_915" d="M150.775 313.659c0-.141.563-.229 1.214-.721a2.867 2.867 0 0 0 1.3-2.6 2.92 2.92 0 0 0-1.671-2.357c-.739-.352-1.3-.334-1.319-.475s.563-.4 1.548-.158a3.36 3.36 0 0 1 .581 6.21c-1.02.382-1.653.294-1.653.101z" class="cls-7" data-name="Path 915" transform="translate(16.942 59.077)"/>
            <path id="Path_916" d="M396.5 443.936l-3.518-18.576-33.335 5.911 4.837 27.846 2.093-.229c9.306-1.108 47.073-6.878 52.879-9.921 6.565-3.395-22.956-5.031-22.956-5.031z" class="cls-1" data-name="Path 916" transform="translate(175.859 148.74)"/>
            <path id="Path_917" d="M418.01 437.743c0 .317-12.314 2.867-27.723 5.7s-27.864 4.872-27.917 4.557 12.314-2.85 27.706-5.682 27.824-4.874 27.934-4.575z" class="cls-8" data-name="Path 917" transform="translate(177.924 158.117)"/>
            <path id="Path_918" d="M381.408 439.657c-.3-.106-.246-1.126.3-2.217s1.3-1.759 1.566-1.6 0 1.073-.545 2.093-1.022 1.847-1.321 1.724z" class="cls-8" data-name="Path 918" transform="translate(192.238 156.678)"/>
            <path id="Path_919" d="M382.781 440.417c-.317 0-.369-1.179 0-2.463s1.179-2.128 1.46-1.988 0 1.179-.369 2.357-.772 2.147-1.091 2.094z" class="cls-8" data-name="Path 919" transform="translate(193.222 156.78)"/>
            <path id="Path_920" d="M372.559 444.7c-.123.123-.7-.281-1.583-.967a21.115 21.115 0 0 0-3.518-2.375 7.723 7.723 0 0 0-3.694-.95c-1.038 0-1.671.334-1.759.176s.457-.686 1.654-.985a6.755 6.755 0 0 1 4.538.686 12.316 12.316 0 0 1 3.518 2.832c.633.807 1.002 1.475.844 1.583z" class="cls-8" data-name="Path 920" transform="translate(177.639 159.448)"/>
            <path id="Path_921" d="M382.3 436.033c.211.229-.246.985-1.126 1.513s-1.759.563-1.865.264.51-.792 1.284-1.267 1.527-.721 1.707-.51z" class="cls-8" data-name="Path 921" transform="translate(190.77 156.784)"/>
            <path id="Path_922" d="M382.256 435.171c0 .317-.756.739-1.882.967s-2.058.141-2.093-.176.809-.739 1.865-.95 2.022-.14 2.11.159z" class="cls-8" data-name="Path 922" transform="translate(190.001 155.975)"/>
            <path id="Path_923" d="M466.61 368.063c-10.326-20.845-65.667-101.483-65.667-101.483l-29.535 3.1v-.18l-33.053 3.624-18.224 2.005 65.984 288.193 45.631-.827-10.977-53.318c7.546-18.91 51.558-129.577 45.841-141.114zM419.537 380.5l-16.307 43.783-18.471-89.714z" class="cls-5" data-name="Path 923" transform="translate(145.859 28.21)"/>
            <path id="Path_924" d="M371.012 223.756c-.422-3.008 1.2-15.515 1.2-15.515s11.487-.844 12.56-12.173 1.2-37.557 1.2-37.557l-20.536-10.871-23.519 16.641-6.086 15.832 8.022 19.667-.246 6.509v14.9z" class="cls-9" data-name="Path 924" transform="translate(157.777 -62.077)"/>
            <path id="Path_925" d="M364.72 165.266a1.46 1.46 0 1 1-1.407-1.5 1.443 1.443 0 0 1 1.407 1.5z" class="cls-5" data-name="Path 925" transform="translate(177.491 -49.833)"/>
            <path id="Path_926" d="M366.006 164.548c-.193.194-1.249-.756-2.8-.9s-2.762.581-2.92.369.123-.44.651-.774a3.817 3.817 0 0 1 2.357-.528 3.764 3.764 0 0 1 2.2.95c.459.443.6.813.512.883z" class="cls-5" data-name="Path 926" transform="translate(176.311 -50.646)"/>
            <path id="Path_927" d="M354 163.732a1.46 1.46 0 1 1-2.04.317 1.46 1.46 0 0 1 2.04-.317z" class="cls-5" data-name="Path 927" transform="translate(169.809 -50.076)"/>
            <path id="Path_928" d="M356.136 164.244c-.193.176-1.231-.774-2.8-.9s-2.762.58-2.92.352.123-.422.651-.756a3.888 3.888 0 0 1 2.357-.545 3.817 3.817 0 0 1 2.217.967c.459.424.601.794.495.882z" class="cls-5" data-name="Path 928" transform="translate(168.818 -50.887)"/>
            <path id="Path_929" d="M356.62 176.958a10.448 10.448 0 0 1 2.568-.246c.4 0 .792 0 .9-.334a2.428 2.428 0 0 0-.194-1.284c-.3-1.038-.616-2.128-.967-3.272a59.209 59.209 0 0 1-2.111-8.532 11.819 11.819 0 0 1 .915 2.41 107.902 107.902 0 0 1 1.759 5.946c.317 1.143.633 2.252.915 3.289a2.5 2.5 0 0 1 .105 1.654.933.933 0 0 1-.686.528 2.4 2.4 0 0 1-.686 0 10.662 10.662 0 0 1-2.516-.158z" class="cls-5" data-name="Path 929" transform="translate(173.559 -50.197)"/>
            <path id="Path_930" d="M353.773 171.884c-1.566-1.091 4.275 2.762 7.476 2.85a4.345 4.345 0 0 1-5.277 1.319c-3.255-1.53-2.199-4.169-2.199-4.169z" class="cls-2" data-name="Path 930" transform="translate(171.199 -43.821)"/>
            <path id="Path_931" d="M362.932 184.489a28.357 28.357 0 0 1-14.882-5.559s3.131 8.444 14.548 8.338z" class="cls-10" data-name="Path 931" transform="translate(167.053 -38.325)"/>
            <path id="Path_932" d="M343.118 171.16a3.892 3.892 0 0 1-.44.281 1.759 1.759 0 0 1-1.267.088 4.134 4.134 0 0 1-2.146-3.624 5.558 5.558 0 0 1 .317-2.445 1.918 1.918 0 0 1 1.2-1.355.844.844 0 0 1 1.02.387c.141.264.088.475.141.475s.211-.176.106-.563a1.055 1.055 0 0 0-.422-.581 1.231 1.231 0 0 0-.95-.193 2.375 2.375 0 0 0-1.671 1.6 5.824 5.824 0 0 0-.422 2.744 4.415 4.415 0 0 0 2.722 4.026 1.759 1.759 0 0 0 1.513-.352c.299-.312.334-.47.299-.488z" class="cls-10" data-name="Path 932" transform="translate(159.847 -49.958)"/>
            <path id="Path_933" d="M390.489 165.884a7.351 7.351 0 0 1-1.917.369 12.19 12.19 0 0 0 5.049-4.978 9.674 9.674 0 0 0 0-9.64 6.861 6.861 0 0 0-8.8-2.463 5.541 5.541 0 0 0-1.953-7.036 9.059 9.059 0 0 0-7.81-.686 27.055 27.055 0 0 0-7.036 4.011 5.77 5.77 0 0 0-3.219-4.222 8.954 8.954 0 0 0-5.383-.686 13.105 13.105 0 0 0-10.678 10.555 6.931 6.931 0 0 0-11.54 2.656 1.294 1.294 0 0 1 0 .246 5.523 5.523 0 0 0-2.533 2.216 6.632 6.632 0 0 0-.545 5.629 9.076 9.076 0 0 0 3.518 4.415 7.25 7.25 0 0 1 1.618 1.566 3.8 3.8 0 0 1 .616 1.759c-.158 3.8-2.093 7.388-3.043 11.118-1.3 5.172 1.566 12.226 3.219 17.292s2.234 7.036 5.453 7.441l.495-13.615c-3.518 2.885-8.215-7.036-5.137-10.994s6.35-2.6 6.913-.106a24.309 24.309 0 0 0 .827 2.832h3.518l-.387-2.973s-.721-13.211 5.594-14.073a6.385 6.385 0 0 1 4.785.88 13.422 13.422 0 0 0 6.421.9c2.252 0 5.277-2.568 5.277-4.8a12.314 12.314 0 0 0 10.555 4.239 11.468 11.468 0 0 0 2.973-.721 6.245 6.245 0 0 0 3.624-.088 6.157 6.157 0 0 0 3.026-2.164c.563-.792.668-1.39.563-1.442a11.5 11.5 0 0 1-4.063 2.563zm-52.421-.422a8.532 8.532 0 0 1-3.131-4.046 5.893 5.893 0 0 1 .4-4.873 4.857 4.857 0 0 1 1.566-1.759c-.6 3.993 2.005 8.039 2.691 12.208a8.8 8.8 0 0 0-1.46-1.53z" class="cls-4" data-name="Path 933" transform="translate(156.19 -67.568)"/>
            <path id="Path_934" d="M400.38 168.288v22.675a9.306 9.306 0 0 0 9.306 9.306h39.281v12.965l7.036-12.4a8.268 8.268 0 0 0 7.67-8.25v-24.296a9.306 9.306 0 0 0-9.429-9.288h-44.558a9.306 9.306 0 0 0-9.306 9.288z" class="cls-3" data-name="Path 934" transform="translate(206.777 -53.454)"/>
            <path id="Path_935" d="M415.84 173.065a3.835 3.835 0 1 1-3.84-3.835 3.835 3.835 0 0 1 3.84 3.835z" class="cls-2" data-name="Path 935" transform="translate(212.691 -45.688)"/>
            <path id="Path_936" d="M424.12 173.065a3.835 3.835 0 1 1-3.835-3.835 3.835 3.835 0 0 1 3.835 3.835z" class="cls-2" data-name="Path 936" transform="translate(218.976 -45.688)"/>
            <path id="Path_937" d="M432.4 173.065a3.835 3.835 0 1 1-3.835-3.835 3.835 3.835 0 0 1 3.835 3.835z" class="cls-2" data-name="Path 937" transform="translate(225.261 -45.688)"/>
            <path id="Path_938" d="M492.179 214.175c-.792-1.759-50.75 42.342-60.707 43.854l-29.131-37.961s-6.051-9.587-19.051-26.017c-8.373-10.555-31.505-8.408-37.592 4.521-10.326 21.936-10.678 51.014-18.664 97.736l-6.754 39.632s9.974-1.179 9.939-1.091l70.927-7.371 1.759-47.5c14.073 14.213 18.365 17.186 25.665 16.061 18.347-2.85 82.537-60.583 82.537-60.583s-18.154-19.486-18.928-21.281z" class="cls-3" data-name="Path 938" transform="translate(145.973 -31.95)"/>
            <path id="Path_939" d="M432.425 229.406a18.4 18.4 0 0 1-3.518-2.779 79.159 79.159 0 0 1-14.214-16.676 17.874 17.874 0 0 1-2.164-4.011 29.686 29.686 0 0 1 2.586 3.624c1.618 2.269 3.923 5.365 6.685 8.6s5.436 6 7.423 7.969a27.634 27.634 0 0 1 3.2 3.272z" class="cls-5" data-name="Path 939" transform="translate(216 -17.822)"/>
            <path id="Path_940" d="M381.88 242.56a65.508 65.508 0 0 1 2.674-15.04 63.075 63.075 0 0 1-2.674 15.04z" class="cls-5" data-name="Path 940" transform="translate(192.734 -1.44)"/>
            <path id="Path_941" d="M387.049 240.911a26.064 26.064 0 0 1-2.234-6.526 25.5 25.5 0 0 1-1.355-6.755 26.935 26.935 0 0 1 2.234 6.526 26.384 26.384 0 0 1 1.355 6.755z" class="cls-5" data-name="Path 941" transform="translate(193.933 -1.357)"/>
            <path id="Path_942" d="M290.6 149.75l36.923 69.8.827-20.7z" class="cls-1" data-name="Path 942" transform="translate(220.616 48.448)"/>
            <path id="Path_943" d="M344.48 209.74a16.325 16.325 0 0 1 1.759 2.111l4.4 5.893c3.712 5 8.9 11.839 14.724 19.35l14.952 19.157 4.486 5.84a15.826 15.826 0 0 1 1.548 2.217 16.31 16.31 0 0 1-1.759-1.988 845.532 845.532 0 0 0-4.714-5.664c-3.94-4.82-9.341-11.5-15.163-19s-10.942-14.425-14.53-19.508c-1.759-2.551-3.219-4.626-4.169-6.087a15.356 15.356 0 0 1-1.534-2.321z" class="cls-5" data-name="Path 943" transform="translate(164.343 -14.937)"/>
            <path id="Path_944" d="M353.414 228.228a9.357 9.357 0 0 1-.651-2.128c-.352-1.39-.809-3.378-1.355-5.823l.545.264-7.265 3.923-.493.264-.158-.545c-.264-.95-.545-1.953-.844-2.973l-1.267-4.556.651.264-7.159 4.028-.44.246v-.492a42.641 42.641 0 0 1-.739-6.579 42.589 42.589 0 0 1 1.407 6.473l-.51-.246 7.036-4.2.493-.3.158.563c.4 1.46.844 2.99 1.284 4.556.3 1.02.581 2.023.844 2.973l-.651-.264 7.335-3.817.44-.246.088.493c.457 2.445.827 4.468 1.038 5.875a8.972 8.972 0 0 1 .211 2.252z" class="cls-5" data-name="Path 944" transform="translate(156.57 -11.612)"/>
            <path id="Path_945" d="M360.257 201.972a8.46 8.46 0 0 1-1.97-1.073 249.98 249.98 0 0 1-5-3.237l.563-.194c-.739 2.34-1.566 5.013-2.463 7.881l-.176.545-.493-.281-2.674-1.566-4.081-2.392.651-.264-2.34 7.881-.141.475-.387-.3a43.408 43.408 0 0 1-5.1-4.222 45.011 45.011 0 0 1 5.506 3.677l-.528.176c.616-2.322 1.337-5 2.128-7.916l.158-.563.492.3 4.1 2.357 2.674 1.566-.651.246 2.575-7.868.176-.475.4.281c2.023 1.442 3.677 2.639 4.82 3.518a9.237 9.237 0 0 1 1.761 1.448z" class="cls-5" data-name="Path 945" transform="translate(158.4 -24.813)"/>
            <path id="Path_946" d="M375.071 210.32a8.8 8.8 0 0 1-1.671-1.5c-1.02-1-2.463-2.463-4.187-4.257h.6c-1.231 2.129-2.639 4.538-4.134 7.16l-.281.475-.422-.387-2.269-2.093-3.518-3.219.7-.123a1620.165 1620.165 0 0 1-4.011 7.16l-.246.44-.317-.369a44.284 44.284 0 0 1-4.046-5.277 44.9 44.9 0 0 1 4.574 4.785h-.563l3.817-7.265.281-.51.422.387 3.518 3.219 2.252 2.111h-.686l4.257-7.036.264-.422.334.369c1.759 1.759 3.026 3.377 3.94 4.468a8.423 8.423 0 0 1 1.39 1.882z" class="cls-1" data-name="Path 946" transform="translate(169.498 -19.598)"/>
            <path id="Path_947" d="M413.691 235.805a17.107 17.107 0 0 1-1.478-1.671 172.477 172.477 0 0 1-3.606-4.75h.6l-5 6.579-.352.44-.352-.422-2.005-2.375-3.008-3.624h.7l-4.873 6.6-.3.4-.264-.4a45.151 45.151 0 0 1-3.36-5.7 42.648 42.648 0 0 1 3.923 5.277h-.563a873.151 873.151 0 0 0 4.714-6.72l.334-.457.369.44 3.043 3.624 1.988 2.375h-.7l5.119-6.473.317-.4.281.4a300.482 300.482 0 0 1 3.36 4.943 10.18 10.18 0 0 1 1.108 1.917z" class="cls-5" data-name="Path 947" transform="translate(199.201 -.666)"/>
            <path id="Path_948" d="M389.861 233.239a9.833 9.833 0 0 1-1.759-1.284 298.932 298.932 0 0 1-4.644-3.729l.58-.141-3.342 7.529-.211.51-.457-.334-2.516-1.759-3.817-2.815.686-.194c-1.161 2.815-2.216 5.277-3.149 7.582l-.193.475-.352-.352a41.764 41.764 0 0 1-4.626-4.714 43.543 43.543 0 0 1 5.084 4.222l-.545.123c.862-2.252 1.865-4.838 2.955-7.652l.211-.545.457.334 3.835 2.779 2.5 1.759-.686.194 3.413-7.529.211-.457.369.317c1.865 1.654 3.4 3.008 4.451 3.976a6.471 6.471 0 0 1 1.545 1.705z" class="cls-1" data-name="Path 948" transform="translate(180.725 -1.653)"/>
            <path id="Path_949" d="M421.715 231.779a9.3 9.3 0 0 1-.457-2.181 429.208 429.208 0 0 1-.809-5.911l.528.3-7.6 3.272-.51.211-.105-.545c-.176-.985-.369-2.005-.563-3.043-.3-1.618-.58-3.166-.844-4.662l.616.317-7.476 3.448-.457.194v-.493a41.711 41.711 0 0 1-.123-6.614 41.954 41.954 0 0 1 .792 6.579l-.475-.3 7.406-3.518.51-.264.106.581c.281 1.5.581 3.043.88 4.644.193 1.055.369 2.076.545 3.043l-.616-.334 7.652-3.114.475-.194v.493c.229 2.48.4 4.521.493 5.946a9.476 9.476 0 0 1 .035 2.146z" class="cls-1" data-name="Path 949" transform="translate(209.401 -10.132)"/>
            <path id="Path_950" d="M369.985 214.34a9.745 9.745 0 0 1-1.865 1.161c-1.231.7-3.026 1.759-5.277 2.867l.106-.6 5.751 5.932.387.4-.475.3-2.639 1.6-4.046 2.463v-.7l5.805 5.805.352.369-.457.194a42.648 42.648 0 0 1-6.139 2.463 44.976 44.976 0 0 1 5.858-3.1l-.088.563-5.946-5.664-.422-.387.493-.3 4.046-2.48 2.639-1.6v.686a1207.606 1207.606 0 0 1-5.647-6.034l-.352-.369.457-.211c2.234-1.091 4.081-1.988 5.365-2.568a8.41 8.41 0 0 1 2.093-.792z" class="cls-5" data-name="Path 950" transform="translate(176.8 -11.445)"/>
            <path id="Path_951" d="M388.266 236.07a9.341 9.341 0 0 1-1.882 1.214c-1.231.7-3.026 1.759-5.277 2.85l.088-.58 5.77 5.928.387.387-.475.3-2.639 1.618-4.064 2.445.088-.686 5.8 5.805.352.352-.457.193a45.407 45.407 0 0 1-6.139 2.48 44.985 44.985 0 0 1 5.963-3.079l-.106.563-5.928-5.664-.422-.4.493-.3 4.028-2.463 2.656-1.618-.088.7-5.647-6.034-.352-.369.44-.211a208.062 208.062 0 0 1 5.383-2.586 8.48 8.48 0 0 1 2.028-.845z" class="cls-1" data-name="Path 951" transform="translate(190.798 5.05)"/>
            <path id="Path_952" d="M356.3 241.853a10.215 10.215 0 0 1-.651-2.146c-.352-1.39-.809-3.378-1.355-5.805l.545.246-7.336 3.958-.492.281-.141-.545c-.281-.967-.563-1.97-.844-2.99-.44-1.566-.879-3.1-1.284-4.556l.651.264-7.142 4.028-.44.246v-.493a45.719 45.719 0 0 1-.739-6.561 41.3 41.3 0 0 1 1.407 6.456l-.51-.246 7.036-4.2.493-.281.158.545c.4 1.46.844 2.99 1.3 4.556l.827 2.991-.651-.282 7.336-3.817.44-.229.105.475a265.3 265.3 0 0 1 1.038 5.875 9.482 9.482 0 0 1 .249 2.23z" class="cls-1" data-name="Path 952" transform="translate(158.719 -1.243)"/>
            <path id="Path_953" d="M372.927 251.293a9.768 9.768 0 0 1-.651-2.146c-.352-1.39-.809-3.377-1.355-5.8l.545.246-7.248 3.958-.493.281-.158-.545c-.281-.967-.563-1.97-.844-2.973-.44-1.583-.862-3.114-1.284-4.574l.651.264-7.142 4.028-.44.246v-.478a46.06 46.06 0 0 1-.739-6.579 41.949 41.949 0 0 1 1.407 6.456l-.51-.229 7.036-4.2.492-.3.158.563c.422 1.46.844 2.973 1.3 4.538l.827 2.99-.633-.281 7.318-3.817.457-.229.088.475a265.3 265.3 0 0 1 1.038 5.875 8.433 8.433 0 0 1 .176 2.234z" class="cls-5" data-name="Path 953" transform="translate(171.396 5.923)"/>
            <path id="Path_954" d="M348.469 272.042a9.359 9.359 0 0 1-.651-2.128c-.352-1.39-.809-3.378-1.355-5.805l.545.246-7.247 3.958-.493.264-.158-.545c-.281-.95-.563-1.953-.844-2.973L337 260.5l.633.264-7.124 4.1-.44.246v-.493a45.576 45.576 0 0 1-.739-6.579 42.584 42.584 0 0 1 1.407 6.474l-.51-.246 7.036-4.2.493-.3.158.563c.422 1.46.844 2.99 1.3 4.556l.827 2.973-.633-.264 7.318-3.817.457-.246.088.493a265.3 265.3 0 0 1 1.038 5.875 7.471 7.471 0 0 1 .158 2.146z" class="cls-1" data-name="Path 954" transform="translate(152.843 21.727)"/>
            <path id="Path_955" d="M350.968 246.733a8.8 8.8 0 0 1-1.847-1.267c-1.143-.844-2.762-2.111-4.7-3.676l.581-.141-3.184 7.635-.211.51-.457-.334c-.827-.563-1.671-1.179-2.533-1.759l-3.835-2.762.669-.193-3.061 7.617-.193.457-.352-.334a46.817 46.817 0 0 1-4.7-4.662 41.919 41.919 0 0 1 5.154 4.151l-.545.141c.827-2.252 1.759-4.855 2.867-7.687l.194-.545.475.334 3.905 2.709 2.515 1.759-.669.176 3.325-7.564.211-.457.369.317c1.882 1.636 3.43 2.973 4.486 3.94a9.554 9.554 0 0 1 1.531 1.636z" class="cls-5" data-name="Path 955" transform="translate(151.188 8.671)"/>
            <path id="Path_956" d="M352.811 244.78a8.885 8.885 0 0 1-1.759 1.337c-1.179.792-2.9 1.9-5.013 3.219v-.6l6.174 5.506.4.387-.457.317-2.516 1.759-3.87 2.727v-.686l6.315 5.418.369.334-.422.229a43.564 43.564 0 0 1-5.963 2.885 45.9 45.9 0 0 1 5.631-3.512v.563l-6.333-5.277-.44-.369.475-.334 3.853-2.744 2.515-1.759v.7l-6.051-5.611-.369-.352.422-.246c2.146-1.249 3.923-2.269 5.189-2.955a8.321 8.321 0 0 1 1.85-.936z" class="cls-5" data-name="Path 956" transform="translate(164.685 11.662)"/>
            <path id="Path_957" d="M361.475 251.6a8.8 8.8 0 0 1-1.231 1.865c-.844 1.161-2.093 2.779-3.624 4.75l-.141-.581 7.67 3.078.51.194-.317.475-1.759 2.551-2.709 3.888-.211-.686 7.652 2.955.475.193-.334.352a41.923 41.923 0 0 1-4.609 4.75 45.94 45.94 0 0 1 4.1-5.189l.141.545-7.723-2.762-.545-.193.334-.475c.844-1.249 1.759-2.551 2.674-3.905.616-.862 1.2-1.759 1.759-2.533l.193.669-7.582-3.219-.457-.193.317-.387c1.6-1.917 2.92-3.518 3.87-4.538a20.142 20.142 0 0 1 1.547-1.604z" class="cls-1" data-name="Path 957" transform="translate(172.891 16.837)"/>
            <path id="Path_958" d="M354.114 267.9a1.5 1.5 0 0 0 .194.58 12.753 12.753 0 0 1 .51 1.759c.422 1.53 1.055 3.8 1.759 6.737s1.6 6.526 2.216 10.8a11.452 11.452 0 0 1-.9 6.878 22.288 22.288 0 0 1-4.5 6.385v-.3c4.609 21.883 11.065 52.544 18.224 86.46 6.948 33.423 13.158 63.591 17.591 85.492 2.2 10.942 3.94 19.807 5.084 25.947.581 3.061 1 5.453 1.267 7.036a10.556 10.556 0 0 1 .281 2.5s-.141-.844-.457-2.463-.827-4.028-1.442-7.036c-1.284-6.174-3.114-15.005-5.365-25.894-4.574-21.9-10.854-52.087-17.8-85.422-7.036-33.951-13.4-64.629-17.943-86.513v-.176l.123-.123c3.729-3.747 6.245-8.479 5.277-12.736-.563-4.239-1.425-7.863-2.076-10.8s-1.214-5.154-1.6-6.755l-.422-1.759a2.55 2.55 0 0 1-.021-.597z" class="cls-1" data-name="Path 958" transform="translate(170.682 29.212)"/>
            <path id="Path_959" d="M339.841 270.3a4.655 4.655 0 0 1 .545 1.2 13.688 13.688 0 0 1 .668 3.518 16.254 16.254 0 0 1-13.422 17.182 14.21 14.21 0 0 1-3.518.211 3.376 3.376 0 0 1-1.284-.229c0-.176 1.865 0 4.732-.616a16.43 16.43 0 0 0 12.894-16.536 40.47 40.47 0 0 0-.615-4.73z" class="cls-1" data-name="Path 959" transform="translate(147.909 31.034)"/>
            <path id="Path_960" d="M349.823 271.727s0-.264.422-.493a2.3 2.3 0 0 1 1.759-.229 2.34 2.34 0 0 1 1.759 1.953 2.639 2.639 0 0 1-4.732 1.953 2.515 2.515 0 0 1-.3-2.621c.721-1.425 1.882-1.46 1.847-1.354a3.158 3.158 0 0 0-1.231 1.583 1.882 1.882 0 0 0 .334 1.865 2.023 2.023 0 0 0 2.146.581 1.935 1.935 0 0 0 1.091-1.9 1.636 1.636 0 0 0-1.143-1.442 3.132 3.132 0 0 0-1.953.105z" class="cls-1" data-name="Path 960" transform="translate(167.391 31.489)"/>
            <path id="Path_961" d="M377.948 278.4a6.491 6.491 0 0 1-3.413 1.179 12.314 12.314 0 0 1-13.668-8.8 6.721 6.721 0 0 1-.334-3.518c.158 0 .193 1.372.932 3.4a12.666 12.666 0 0 0 13 8.409c2.146-.288 3.43-.816 3.483-.67z" class="cls-1" data-name="Path 961" transform="translate(176.454 28.726)"/>
            <path id="Path_962" d="M400.689 426.54a5.945 5.945 0 0 1-1.759.211l-4.785.264-15.832.756-15.832.827-4.8.193a6.244 6.244 0 0 1-1.759 0 5.962 5.962 0 0 1 1.759-.317c1.108-.141 2.744-.317 4.767-.493 4.028-.369 9.622-.774 15.832-1.091s11.786-.457 15.832-.475h4.8a6.472 6.472 0 0 1 1.777.123z" class="cls-1" data-name="Path 962" transform="translate(173.028 149.53)"/>
            <path id="Path_963" d="M335.721 281.71c.246 0 14.073 57.048 30.943 127.535s30.292 127.711 30.045 127.763-14.073-57.03-30.943-127.552-30.291-127.693-30.045-127.746z" class="cls-1" data-name="Path 963" transform="translate(157.692 39.695)"/>
            <path id="Path_964" d="M361.311 283a2.1 2.1 0 0 1 .316.387l.862 1.143 3.272 4.486 11.856 16.553 17.5 24.627 10.291 14.583c3.518 5.066 7.036 10.748 7.969 17.433s-1.02 13.14-3.043 18.928-4.239 11.416-6.28 16.711c-4.116 10.555-8.021 20.089-11.417 27.987s-6.262 14.249-8.268 18.611L382 449.464l-.633 1.284c-.158.281-.229.44-.246.422a1.652 1.652 0 0 1 .158-.457c.141-.352.334-.792.563-1.337l2.2-5.066c1.917-4.415 4.7-10.8 8-18.717s7.16-17.415 11.223-28.04c2.023-5.277 4.116-10.889 6.21-16.711s3.923-12.067 3.008-18.506-4.38-12-7.81-17.046l-10.238-14.6-17.345-24.822-11.628-16.729-3.114-4.574c-.334-.493-.6-.88-.792-1.2s-.262-.365-.245-.365z" class="cls-1" data-name="Path 964" transform="translate(177.118 40.674)"/>
            <path id="Path_965" d="M356.89 154.063l39.3-28.673 1.917 3.078-39.034 29.025z" class="cls-5" data-name="Path 965" transform="translate(270.937 29.956)"/>
            <path id="Path_966" d="M417.65 213.8s5.277-13.721 6.456-16.641 3.184-8 3.94-8.109 3.518.317-.088 9.042 4.239 3.4 4.239 3.4l7.564-5.418s5.981 17.872 2.586 23.255a87.757 87.757 0 0 1-8.971 11.364z" class="cls-9" data-name="Path 966" transform="translate(219.887 -30.656)"/>
        </g>
    </g>
</svg>
