<svg xmlns="http://www.w3.org/2000/svg" width="672.547" height="578.651" viewBox="0 0 672.547 578.651">
    <defs>
        <style>
            .cls-1,.cls-15{fill:#9fc6ff}.cls-1{opacity:.7}.cls-2{fill:#fff}.cls-3{fill:#d4e9ff}.cls-4{fill:#407bff}.cls-11,.cls-5{fill:#14365b}.cls-5{opacity:.3}.cls-6{fill:#0053cc}.cls-7{fill:#dce9ff}.cls-8{fill:#ff8b7b}.cls-9{fill:#0f264c}.cls-10{fill:#ff5652}.cls-12{fill:#ea7063}.cls-13{fill:#236ae8}.cls-14{fill:#004daa}
        </style>
    </defs>
    <g id="_6" data-name="6" transform="translate(-.003 .07)">
        <g id="Objects" transform="translate(.003 -.07)">
            <path id="Path_1400" d="M242.114 25.025L51.94 1.78 67.393 544.5l164.858 18.483z" class="cls-1" data-name="Path 1400" transform="translate(45.814 1.702)"/>
            <path id="Path_1401" d="M349.263 3.47L157.6 23.534l-9.86 537.959 165.969-14.06z" class="cls-1" data-name="Path 1401" transform="translate(130.325 3.193)"/>
            <path id="Path_1402" d="M460.97 26.771l-189.5-23.3-35.55 543.962 164.35 18.521z" class="cls-1" data-name="Path 1402" transform="translate(208.114 3.193)"/>
            <path id="Path_1403" d="M253.979 324.281a22.849 22.849 0 1 0-37.455 17.485 45.416 45.416 0 0 1 8.281 9.317l3.557 5.214 4.4-4.536a44.114 44.114 0 0 1 9.637-7.7 22.831 22.831 0 0 0 11.575-19.781z" class="cls-2" data-name="Path 1403" transform="translate(11.099 53.45)"/>
            <path id="Path_1404" d="M439.119 171.981a22.849 22.849 0 1 0-37.455 17.485 44.4 44.4 0 0 1 8.281 9.317l3.557 5.195 4.423-4.536a43.157 43.157 0 0 1 9.637-7.679 22.812 22.812 0 0 0 11.556-19.781z" class="cls-2" data-name="Path 1404" transform="translate(174.422 -80.903)"/>
            <path id="Path_1405" d="M334.371 136.48l193.863-20.29 191.754 23.583-61.358 545.545L492.322 666.5 324.4 680.725l-166.839-18.708L141.92 112.84zm23.6 465.835l137.247-96.4.546-.4 29.87-16.525-25.842-19.782-175.041-62.77-34.575-20.026-50.986 120.214 93.957 79.258zM219.126 489.78l48.5-116.393-94.217-54.587 2.955 134.876zm115.621-323.938L332 165.5l-162.393-19.741 3.124 142.649 105.4 61.471 42.1-71.522 53-116.468-35.761 3.764zm69.979-7.246l-61.7 133.351-42.383 71.013 33.992 19.819 177.525 63.994 37.38 28.853 44.36-24.468-22.076-299.79-44.532-5.458zm194.465-3.9l19.066 283.039L664.05 412.4l26.124-246.563zM493 644.061l2.428.263 142.348 16.111 23.094-218.029-152.3 83.681-129.498 90.193 50.122 33.051-.113.188 61.471-5.251zM324 658.5l68.755-5.872-73.874-48.428L177.06 485.508l3.444 156.8z" class="cls-3" data-name="Path 1405" transform="translate(-47.441 -112.84)"/>
            <path id="Path_1406" d="M506.067 444.916a1.883 1.883 0 0 1-1.129-.4l-42.255-32.43-176-64.182-.32-.151-43.963-26.175-48.941 117.428a1.856 1.856 0 1 1-3.426-1.43l49.746-119.4a1.879 1.879 0 0 1 2.673-.866l45.661 27.16 176.114 64.23a2.071 2.071 0 0 1 .489.282l41.577 31.846 57.914-32-18.389-239.2a1.887 1.887 0 0 1 3.764-.282l18.37 240.39a1.882 1.882 0 0 1-.941 1.75l-60.021 33.185a1.77 1.77 0 0 1-.922.245z" class="cls-4" data-name="Path 1406" transform="translate(-5.117 -64.531)"/>
            <path id="Path_1407" d="M388.36 171.779a5.647 5.647 0 1 1-1.3-4.2 5.647 5.647 0 0 1 1.3 4.2z" class="cls-4" data-name="Path 1407" transform="translate(160.021 -66.322)"/>
            <path id="Path_1408" d="M199.14 314.589a5.647 5.647 0 1 1-1.3-4.2 5.647 5.647 0 0 1 1.3 4.2z" class="cls-4" data-name="Path 1408" transform="translate(-6.901 59.66)"/>
            <path id="Path_1409" d="M351.063 1.71L157.125 22l-9.975 544.377 167.95-14.229z" class="cls-5" data-name="Path 1409" transform="translate(129.805 1.64)"/>
            <path id="Path_1410" d="M174.3 223.791L162.5 207.4a2.183 2.183 0 0 1 .809-3.275l43.29-22.586a3.049 3.049 0 0 1 3.764.885l11.782 16.394a2.183 2.183 0 0 1-.791 3.294l-43.29 22.586a3.049 3.049 0 0 1-3.764-.9z" class="cls-6" data-name="Path 1410" transform="translate(-29.665 -52.514)"/>
            <path id="Path_1411" d="M173.534 222.721l-11.8-16.394a2.183 2.183 0 0 1 .809-3.275l43.29-22.586a3.049 3.049 0 0 1 3.764.885l11.8 16.394a2.2 2.2 0 0 1-.809 3.294L177.3 223.624a3.049 3.049 0 0 1-3.764-.9z" class="cls-4" data-name="Path 1411" transform="translate(-30.344 -53.458)"/>
            <path id="Path_1412" d="M125.4 88.343l-19.448 10.183-1.788.941-8.733 4.574-1.863.979-6.968 3.651-14.79-20.554 1.713-.9 1.826-.941 16.808-8.809 5.27-2.767 13.173-6.91 4.912 6.795 1.242 1.75 6.7 9.3 1.054 1.449z" class="cls-7" data-name="Path 1412" transform="translate(63.343 59.933)"/>
            <path id="Path_1413" d="M215.435 196.919l-1.054-1.449-14.53 6.663-5.157 3.576-1.769-2.127-3.764-10.8-5.044-3.388 1.732-3.218 21.833-.132-1.242-1.75-18.088.113-5.252 2.763-3.953 7.736-7 6.851-5.853-5.778-1.882.941 10.107 10.032 9.938 7.773 1.882-.979-1.355-1.054 9.072-4.762 1.016 1.242 1.788-.941-1.054-1.28 5.176-3.557zm-32 14.7l-7.378-5.778-2.579-2.579 7.416-7.435 2.221-4.536 4.2 2.5 3.764 10.653 1.882 2.164z" class="cls-2" data-name="Path 1413" transform="translate(-27.601 -49.81)"/>
            <path id="Path_1414" d="M124.231 188.991l-1.092 2.164-1.129 2.409a115.417 115.417 0 0 0-2.146 4.931c-1.336 3.369-2.654 6.757-3.764 10.2a145.983 145.983 0 0 0-5.138 21.137c-.339 1.882-.489 3.595-.753 5.383l-.113.847v.489a1.092 1.092 0 0 0 0 .6 1.468 1.468 0 0 0 .734.7 12.857 12.857 0 0 0 3.651 1.3 50.821 50.821 0 0 0 10.182.809c3.595 0 7.4-.264 10.973-.6l2 7.736a40.505 40.505 0 0 1-5.835 1.882c-2.07.489-3.934 1.092-5.966 1.487a49.987 49.987 0 0 1-12.893 1.111 24.976 24.976 0 0 1-7.529-1.543 16.938 16.938 0 0 1-4.141-2.353 14.286 14.286 0 0 1-3.651-4.16 14.682 14.682 0 0 1-1.769-5.195 16.06 16.06 0 0 1-.188-2.466v-1.882c.151-2.033.207-4.084.433-6.117a128.532 128.532 0 0 1 4.743-24.016 117.018 117.018 0 0 1 4.028-11.575 122.202 122.202 0 0 1 2.466-5.646c.433-.922.885-1.882 1.374-2.8s.941-1.882 1.6-2.955z" class="cls-8" data-name="Path 1414" transform="translate(-88.249 -52.835)"/>
            <path id="Path_1415" d="M117.037 216.838l11.632-10.9.847 16.017s-8.6 5.345-14.286 2.07z" class="cls-8" data-name="Path 1415" transform="translate(-70.986 -30.711)"/>
            <path id="Path_1416" d="M43.844 92.4v13.457L31.5 109.6l-.85-16.014z" class="cls-8" data-name="Path 1416" transform="translate(27.033 81.643)"/>
            <path id="Path_1417" d="M107.843 414.094a19.33 19.33 0 0 1-4.178-.565.414.414 0 0 1-.282-.3.376.376 0 0 1 .169-.376c.546-.358 5.326-3.444 7.171-2.616a1.318 1.318 0 0 1 .734 1.054 2.183 2.183 0 0 1-.621 2 4.556 4.556 0 0 1-2.993.803zM104.737 413c2.729.546 4.8.452 5.646-.282a1.393 1.393 0 0 0 .4-1.317.44.44 0 0 0-.32-.471c-1.02-.449-3.787.87-5.726 2.07z" class="cls-6" data-name="Path 1417" transform="translate(-81.441 149.387)"/>
            <path id="Path_1418" d="M103.756 415.256a.32.32 0 0 1-.188 0 .4.4 0 0 1-.188-.32c0-.188 0-4.743 1.732-6.249a1.882 1.882 0 0 1 1.581-.508 1.318 1.318 0 0 1 1.261 1.054c.358 1.769-2.5 5.176-4.009 6.023a.36.36 0 0 1-.189 0zm2.691-6.4a1.167 1.167 0 0 0-.828.339 8.47 8.47 0 0 0-1.468 4.95c1.506-1.186 3.294-3.764 3.068-4.837 0-.169-.132-.376-.6-.433z" class="cls-6" data-name="Path 1418" transform="translate(-81.439 147.679)"/>
            <path id="Path_1419" d="M146.315 414.092a27.172 27.172 0 0 1-4.969-.565.339.339 0 0 1-.282-.3.358.358 0 0 1 .188-.4c.715-.358 7-3.576 8.921-2.522a1.2 1.2 0 0 1 .64 1 2.127 2.127 0 0 1-.678 1.882 6 6 0 0 1-3.821.9zM142.551 413c3.5.583 6.1.433 7.058-.433a1.336 1.336 0 0 0 .414-1.186.489.489 0 0 0-.245-.414c-1.016-.565-4.611.828-7.19 2.033z" class="cls-6" data-name="Path 1419" transform="translate(-48.203 149.389)"/>
            <path id="Path_1420" d="M141.427 415.245a.283.283 0 0 1-.207 0 .4.4 0 0 1-.169-.339c0-.169.376-4.423 2.371-6.06a2.71 2.71 0 0 1 2.07-.659c1.035.113 1.336.64 1.393 1.054.3 1.788-3.426 5.195-5.308 6.042zm3.764-6.4a2.033 2.033 0 0 0-1.3.489 8.752 8.752 0 0 0-2.014 4.856c1.882-1.148 4.442-3.764 4.272-4.894 0 0 0-.376-.734-.433z" class="cls-6" data-name="Path 1420" transform="translate(-48.208 147.69)"/>
            <path id="Path_1421" d="M121.675 152.11c1.882 9.411 5.985 28.232-.565 34.538 0 0 2.56 9.411 19.951 9.411 19.1 0 9.128-9.411 9.128-9.411-10.427-2.484-10.164-10.22-8.338-17.485z" class="cls-8" data-name="Path 1421" transform="translate(-65.798 -78.198)"/>
            <path id="Path_1422" d="M141.206 142.721a.64.64 0 0 1-.414-.132.715.715 0 0 1-.207-1.035 7.529 7.529 0 0 1 5.872-3.444.753.753 0 0 1 0 1.506 5.891 5.891 0 0 0-4.611 2.767.753.753 0 0 1-.64.339z" class="cls-9" data-name="Path 1422" transform="translate(-48.741 -90.548)"/>
            <path id="Path_1423" d="M143.27 145.24a34.049 34.049 0 0 0 4.536 8.112 5.5 5.5 0 0 1-4.536.847z" class="cls-10" data-name="Path 1423" transform="translate(-46.25 -84.258)"/>
            <path id="Path_1424" d="M142.66 145.165c0 1.261.678 2.3 1.506 2.3s1.506-1.035 1.506-2.3-.659-2.315-1.506-2.315-1.506 1.035-1.506 2.315z" class="cls-9" data-name="Path 1424" transform="translate(-46.788 -86.366)"/>
            <path id="Path_1425" d="M143.27 143.3l3.049-.885s-1.562 2.395-3.049.885z" class="cls-9" data-name="Path 1425" transform="translate(-46.25 -86.746)"/>
            <path id="Path_1426" d="M40.33 315.934h15.754l1.054-36.514H41.365z" class="cls-8" data-name="Path 1426" transform="translate(35.572 246.625)"/>
            <path id="Path_1427" d="M2.27 315.934h15.754l5.082-36.514H7.333z" class="cls-8" data-name="Path 1427" transform="translate(1.997 246.625)"/>
            <path id="Path_1428" d="M112.723 410.76H95.011a1.261 1.261 0 0 0-1.261 1.073l-2.014 14.022a2.541 2.541 0 0 0 2.522 2.8c6.174-.113 9.147-.47 16.939-.47 4.8 0 11.8.489 18.408.489s6.983-6.55 4.216-7.133c-12.347-2.654-14.3-6.324-18.464-9.825a4.159 4.159 0 0 0-2.635-.96z" class="cls-11" data-name="Path 1428" transform="translate(-91.723 149.973)"/>
            <path id="Path_1429" d="M150.543 410.76h-17.712a1.223 1.223 0 0 0-1.242 1.073l-2.033 14.022a2.541 2.541 0 0 0 2.541 2.8c6.174-.113 9.147-.47 16.939-.47 4.781 0 14.7.489 21.306.489s6.983-6.55 4.216-7.133c-12.347-2.654-17.2-6.324-21.381-9.825a4.085 4.085 0 0 0-2.635-.96z" class="cls-11" data-name="Path 1429" transform="translate(-58.359 149.973)"/>
            <path id="Path_1430" d="M56.908 279.42l-.546 18.822H40.59l.546-18.822z" class="cls-12" data-name="Path 1430" transform="translate(35.802 246.625)"/>
            <path id="Path_1431" d="M6.186 279.42h15.773l-2.616 18.822H3.57z" class="cls-12" data-name="Path 1431" transform="translate(3.144 246.625)"/>
            <path id="Path_1432" d="M189.535 174.745s7.529 2.654-7.529 95.143h-63.993c1.073-26.049 1.092-42.123-11.293-95.6a189.818 189.818 0 0 1 27.18-3.588 208.008 208.008 0 0 1 29.079 0c12.383 1.147 26.556 4.045 26.556 4.045z" class="cls-4" data-name="Path 1432" transform="translate(-78.493 -62.248)"/>
            <path id="Path_1433" d="M52.2 86.814l10.935 12.252 1.374-24.016z" class="cls-13" data-name="Path 1433" transform="translate(46.044 66.338)"/>
            <path id="Path_1434" d="M191.264 218.683c-2.409 3.294-4.95 6.663-7.529 9.844a77.287 77.287 0 0 1-7.867 8.639c-.358.32-.734.621-1.092.9l-.565-1.713c-.6-1.882-1.2-3.764-1.75-5.854-2.259-7.924-4.254-16.074-6.192-24.242l-5.646-24.581L145 184.955c1.694 8.489 3.595 16.808 5.8 25.146q1.6 6.249 3.388 12.479c1.242 4.16 2.484 8.3 3.934 12.479.678 2.07 1.487 4.16 2.259 6.249l1.28 3.143a18.365 18.365 0 0 0 .979 2.108 16.661 16.661 0 0 0 1.675 2.522 12.122 12.122 0 0 0 2.974 2.6 10.672 10.672 0 0 0 4.4 1.506 11.8 11.8 0 0 0 7-1.525 23.19 23.19 0 0 0 6.531-5.646 66.515 66.515 0 0 0 7.642-11.594c1.054-1.882 2.033-3.934 2.936-5.948s1.788-3.99 2.579-6.117z" class="cls-8" data-name="Path 1434" transform="translate(-44.724 -52.112)"/>
            <path id="Path_1435" d="M160.279 173.116c6.493 1.656 11.048 28.4 11.048 28.4l-25.07 17.034s-9.919-31.846-5.007-39.055c5.195-7.377 9.543-8.788 19.029-6.379z" class="cls-4" data-name="Path 1435" transform="translate(-49.236 -60.619)"/>
            <path id="Path_1436" d="M174.315 210.442l14.06-5.063-9.11-7.529s-10.728 1.374-10.935 9.994z" class="cls-8" data-name="Path 1436" transform="translate(-24.143 -37.848)"/>
            <path id="Path_1437" d="M99.369 88l1.769-3.67-18.709 1.2 9.091 7.472z" class="cls-8" data-name="Path 1437" transform="translate(72.711 74.524)"/>
            <path id="Path_1438" d="M91.081 88.247l-1.807-2.014 2.3-5.383-3.256.376-9.358 9.807z" class="cls-8" data-name="Path 1438" transform="translate(69.65 71.454)"/>
            <path id="Path_1439" d="M120.028 152.5c.96 15.622 1.035 22.247 8.921 30.265 11.858 12.046 30.83 7.529 34.556-8.131 3.35-14.022 1.223-37.21-14.06-43.421a21.325 21.325 0 0 0-29.417 21.287z" class="cls-8" data-name="Path 1439" transform="translate(-66.805 -98.064)"/>
            <path id="Path_1440" d="M176.077 223.214s-1.581 18.709-4.122 44.927c-3.087 32-7.529 75.286-12.347 109.542-.715 5.12-1.449 10.051-2.165 14.7-7.679 49.256-41.69 164.388-41.69 164.388H94.26s17.73-111.2 21.607-159.984c9.863-123.282-7.416-145.1 13.175-173.667z" class="cls-6" data-name="Path 1440" transform="translate(-89.484 -15.555)"/>
            <path id="Path_1441" d="M145.472 254.829c-3.087 32-7.529 75.286-12.347 109.542-4.762-14.568-13.439-65.5-5.854-110.257 4.574-26.896 13.42-15.095 18.201.715z" class="cls-14" data-name="Path 1441" transform="translate(-63.001 -2.318)"/>
            <path id="Path_1442" d="M168.7 223.16s12.422 121.456 11.387 169.526C179.018 442.7 160.7 556.754 160.7 556.754h-21.321s3.369-111.047 1.487-160.247C138.815 342.96 121.8 223.16 121.8 223.16z" class="cls-6" data-name="Path 1442" transform="translate(-65.19 -15.52)"/>
            <path id="Path_1443" d="M27.923 292.684H1.459l-.489-9.072 28.985-.772z" class="cls-4" data-name="Path 1443" transform="translate(.851 249.642)"/>
            <path id="Path_1444" d="M65.062 292.684H38.618l-1-9.844h29.495z" class="cls-4" data-name="Path 1444" transform="translate(33.182 249.642)"/>
            <path id="Path_1445" d="M113.877 172.481c-6.55 1.43-15.377 25.5-15.377 25.5l27.611 15.942S134.2 195.1 131.08 186.9c-3.256-8.471-9.467-16.113-17.203-14.419z" class="cls-4" data-name="Path 1445" transform="translate(-85.744 -60.436)"/>
            <path id="Path_1446" d="M147.437 127.053c-21.814-1.6-29.606 14.06-25.88 33.013 4.065 20.7-3.068 29.889-11.293 37.53-6.343 5.948-8.714 16.939-3.369 31.413 4.385 11.858-1.186 18.671 0 28.59 1.393 10.634 19.217 15.227 29.173 4.724 9.618-10.145 7.359-17.052 15.848-20.29 13.514-5.138 26.011-13.589 22.718-28.985-2.146-9.938-14.511-16.751-10.8-29.663 4.366-14.548 21.247-53.528-16.397-56.332z" class="cls-9" data-name="Path 1446" transform="translate(-80.946 -100.401)"/>
            <path id="Path_1447" d="M118.29 134.046l36.984 27.912c.358-4.781 5.214-12.573 8.658-17.335 5.346-7.283-23.357-35.836-45.642-10.577z" class="cls-9" data-name="Path 1447" transform="translate(-68.286 -103.16)"/>
            <path id="Path_1448" d="M135.4 147.447a12.837 12.837 0 0 0 3.03 8.187c2.56 3.011 5.646 1.261 6.305-2.315.64-3.2 0-8.62-3.162-10.333s-6.154.828-6.173 4.461z" class="cls-8" data-name="Path 1448" transform="translate(-53.192 -86.728)"/>
            <path id="Path_1449" d="M113.573 221.393l-2.9 5.647c-.226.452.3.9 1.054.9h67.137c.583 0 1.054-.282 1.092-.64l.583-5.646c0-.4-.452-.734-1.092-.734h-64.84a1.148 1.148 0 0 0-1.035.471z" class="cls-9" data-name="Path 1449" transform="translate(-75.051 -17.498)"/>
            <path id="Path_1450" d="M117.9 228.9h-1.732c-.339 0-.6-.169-.583-.4l.809-7.529c0-.207.339-.4.678-.4h1.728c.358 0 .621.188.583.4l-.809 7.529c-.02.267-.321.4-.674.4z" class="cls-15" data-name="Path 1450" transform="translate(-70.677 -17.796)"/>
            <path id="Path_1451" d="M140.274 228.9h-1.732c-.358 0-.621-.169-.6-.4l.828-7.529c0-.207.32-.4.659-.4h1.75c.339 0 .6.188.583.4l-.828 7.529c-.02.267-.321.4-.66.4z" class="cls-15" data-name="Path 1451" transform="translate(-50.952 -17.796)"/>
            <path id="Path_1452" d="M212.065 169.959a23.151 23.151 0 1 0-36.288 20.911 46.659 46.659 0 0 1 9.185 8.677l4.028 4.969 4.066-4.969a43.589 43.589 0 0 1 9.053-8.6 23.113 23.113 0 0 0 9.957-20.986z" class="cls-2" data-name="Path 1452" transform="translate(-26.339 -81.197)"/>
            <path id="Path_1453" d="M187.388 185.661a16.714 16.714 0 0 1-13.608-5.214 17.693 17.693 0 0 1-2.2-2.917 17.09 17.09 0 0 1-2.277-7.19 16.808 16.808 0 0 1 31.488-9.543 7.527 7.527 0 0 1 .452.866 16.45 16.45 0 0 1 1.581 5.872 16.789 16.789 0 0 1-15.434 18.125z" class="cls-9" data-name="Path 1453" transform="translate(-23.344 -78.247)"/>
            <path id="Path_1454" d="M186.57 184.464a16.714 16.714 0 0 1-13.608-5.214 17.878 17.878 0 0 1-1.186-1.75 17.259 17.259 0 0 1-1.543-5.778 16.789 16.789 0 0 1 29.738-12.122 7.528 7.528 0 0 1 .452.866 16.452 16.452 0 0 1 1.577 5.873 16.789 16.789 0 0 1-15.434 18.125z" class="cls-4" data-name="Path 1454" transform="translate(-22.526 -77.049)"/>
        </g>
    </g>
</svg>
