<svg xmlns="http://www.w3.org/2000/svg" fill="#0452fa" width="77.716" height="72.422" viewBox="0 0 77.716 72.422">
    <g id="left-arrow" transform="rotate(140 41.537 65.613)">
        <g id="Group_8" data-name="Group 8" transform="translate(0 84.6)">
            <g id="Group_7" data-name="Group 7">
                <path id="Path_1455" d="M71.74 235.318H3.02a3.02 3.02 0 1 0 0 6.04h68.72a3.02 3.02 0 1 0 0-6.04z" class="cls-1" data-name="Path 1455" transform="translate(0 -235.318)"/>
            </g>
        </g>
        <g id="Group_10" data-name="Group 10" transform="translate(0 58.83)">
            <g id="Group_9" data-name="Group 9">
                <path id="Path_1456" d="M7.291 87.62l23.635-23.635a3.02 3.02 0 0 0-4.271-4.271L.885 85.484a3.02 3.02 0 0 0 0 4.271l25.77 25.77a3.02 3.02 0 0 0 4.271-4.271z" class="cls-1" data-name="Path 1456" transform="translate(0 -58.83)"/>
            </g>
        </g>
    </g>
</svg>
