<svg xmlns="http://www.w3.org/2000/svg" width="792" height="631.674" viewBox="0 0 792 631.674">
    <defs>
        <style>
            .cls-1{fill:#e3eeff}.cls-2{fill:#d1e3ff}.cls-3{fill:#d4e8ff}.cls-4{fill:#f3f8ff}.cls-5{fill:#ff8b7b}.cls-6{fill:#0053cc}.cls-7{fill:#14365b}.cls-8{fill:#ea7063}.cls-9{fill:#0c203d}.cls-10{fill:#255a89}.cls-11{fill:#0f264c}.cls-12{fill:#ff5652}.cls-13{fill:#9fc6ff}.cls-14{fill:#77b3fc}.cls-15{fill:#004daa}
        </style>
    </defs>
    <g id="_1" data-name="1" transform="translate(.008)">
        <g id="Background_2" data-name="Background 2" transform="translate(-.008)">
            <path id="Path_728" d="M477.7 391.694s12.808-6.175 1.906-15.248c-10.14-8.405-24.187 3.393-24.187 3.393s-5.989-13.339-25.029-14.885c-7.8-.648-11.722 1.468-13.647 4.193l-.114-.133c-10.159-10.407-24.206 4.212-24.206 4.212a30.324 30.324 0 0 0-25.006-18.45c-19.06-1.906-15.038 16.467-15.038 16.467-23.329 3.3-9.892 21.271-9.892 21.271-7.624-.191-8.71 15.019-1.182 15.019H487.7c13.954-11.133-10-15.839-10-15.839z" class="cls-1" data-name="Path 728" transform="translate(234.501 163.608)"/>
            <path id="Rectangle_29" d="M0 0h42.217v176.149H0z" class="cls-1" data-name="Rectangle 29" transform="translate(227.873 394.992)"/>
            <path id="Path_729" d="M180.087 60.71l104.027 336.155-27.732-13.685v25.273L232.1 374.927l-11.988 19.746-24.644-21.194-14.028 30.5-16.753-30.5-16.544 28.647-20.089-27.2-17.325 21.232-1.144-29.752-33.545 30.459z" class="cls-2" data-name="Path 729" transform="translate(68.905 55.001)"/>
            <path id="Path_730" d="M162.076 43.91L95.92 262.3l17.63-8.882v16.41l15.438-21.785 7.624 12.846 15.667-13.78 8.92 19.822 10.655-19.831 10.521 18.6 12.77-17.668 11.016 13.8.724-19.326 21.328 19.794z" class="cls-1" data-name="Path 730" transform="translate(86.915 39.781)"/>
            <path id="Path_731" d="M151.059 22.49L108.08 192.769l11.455-6.919v12.789l10.025-16.982 4.956 10.006 10.178-10.731 5.794 15.438 6.919-15.438 6.842 14.5 8.291-13.78 7.166 10.769.457-15.076 13.856 15.419z" class="cls-3" data-name="Path 731" transform="translate(97.932 20.375)"/>
            <path id="Rectangle_30" d="M0 0h28.761v120.057H0z" class="cls-3" data-name="Rectangle 30" transform="translate(649.186 451.103)"/>
            <path id="Path_732" d="M392.325 160.57l92.915 208.341-24.758-8.482v15.648l-21.709-20.756-10.692 12.236-22.014-13.151-12.522 18.907-14.981-18.907-14.772 17.764-17.935-16.849-15.5 13.151-1.01-18.45-29.957 18.889z" class="cls-1" data-name="Path 732" transform="translate(271.251 145.47)"/>
            <path id="Path_733" d="M376.235 151.11L317.15 280.735l15.743-5.279v9.759l13.8-12.941 6.8 7.624 13.99-8.177 7.967 11.76 9.53-11.76 9.4 11.055 11.4-10.5 9.835 8.2.648-11.474 19.06 11.741z" class="cls-3" data-name="Path 733" transform="translate(287.341 136.9)"/>
            <path id="Path_734" d="M366.4 139.04l-38.39 95.908 10.235-3.907v7.224l8.955-9.565 4.422 5.642 9.091-6.061 5.165 8.71 6.194-8.71 6.1 8.177 7.414-7.757 6.385 6.061.419-8.5 12.389 8.691z" class="cls-1" data-name="Path 734" transform="translate(297.18 125.965)"/>
            <path id="Path_735" d="M393.028 394.074s22.757-16.22 3.335-40.025c-18.03-22.071-61.677-.362-61.677-.362s8.062-25.654-25.788-29.809-25.235 32.268-25.235 32.268c-25.807-12.961-26.55 1.906-24.3 13-6.366-3.355-14.1-4.441-20.642 3.583-14.981 18.335 2.554 30.858 2.554 30.858s-32.8 9.53-13.666 32.115h183.144c24.816-29.335-17.725-41.628-17.725-41.628z" class="cls-2" data-name="Path 735" transform="translate(130.708 135.441)"/>
            <path id="Path_736" d="M562.928 187.262c-5.184-6.537-15.61-11.607-23.31-11.283a8.539 8.539 0 0 0-6.194 2.344c-14.085-8.158-30.267-13.151-43.646-12.6a27.865 27.865 0 0 0-15.743 4.689c-15.1-12.293-34.307-20.966-48.316-20.966-7.948 0-12.884 2.821-14.638 7.624-15.5-8.253-31.41-13.342-44.257-13.342-20.489 0-27.122 12.884-18.755 30.991-3.354 3.393-19.5 8.177-18.85 13.875h234.605z" class="cls-4" data-name="Path 736" transform="translate(228.176 -27.466)"/>
            <path id="Path_737" d="M526.126 135.43a9.53 9.53 0 0 0-7.91 3.812c-19.155-13.342-40.769-21.423-58.17-20.508-8.882.438-15.648 3.183-20.146 7.624-20.851-19.975-46.829-34.158-65.108-34.158-10.407 0-16.6 4.593-18.431 12.236C335.4 90.983 314.068 82.73 297.277 82.73c-20.832 0-30.038 12.694-27.16 32.211-10.044-5.718-19.9-9.034-27.922-9.034-11.131 0-16.334 6.423-15.438 16.487a24.162 24.162 0 0 0-2.9.152c-16.982 1.677-23.5 14.657-15.248 29.5h347.764c-7.623-9.717-20.736-17.112-30.247-16.616z" class="cls-4" data-name="Path 737" transform="translate(115.703 -82.73)"/>
            <path id="Path_738" d="M61.231 382.121S47.355 358.449 78.8 369.313c0 0-2.84-23.863 24.93-21.537s16.944 20.165 16.944 20.165 35.832-12.179 50.622.21c15.953 13.342-2.726 22.452-2.726 22.452s34.917 6.938 14.542 23.367H61.46c-33.774-.038-32.002-32.039-.229-31.849z" class="cls-1" data-name="Path 738" transform="translate(-36.762 157.247)"/>
            <path id="Path_739" d="M291 212a32.667 32.667 0 0 1 8.139 3.907 31.257 31.257 0 0 1 6.9 6.118l-2.459-.457a29.371 29.371 0 0 1 5.718-2.706 59.485 59.485 0 0 1 5.813-1.734 52.471 52.471 0 0 1 11.969-1.449c-3.66 1.753-7.376 3.088-11.016 4.536-1.906.667-3.621 1.41-5.394 2.135a45.74 45.74 0 0 0-5.051 2.4l-1.449.839-1.01-1.277c-.839-1.086-1.7-2.192-2.649-3.221s-1.906-2.1-2.992-3.069c-2.119-2-4.289-3.964-6.519-6.022z" class="cls-2" data-name="Path 739" transform="translate(193.568 34.384)"/>
            <path id="Path_740" d="M202.1 168.45a38.847 38.847 0 0 1 6.08 2.421 52.743 52.743 0 0 1 5.718 3.24 44.238 44.238 0 0 1 9.987 8.825l-3.564-.629a42.786 42.786 0 0 1 8.177-3.926 70.861 70.861 0 0 1 8.424-2.5 81.7 81.7 0 0 1 8.577-1.563 60.315 60.315 0 0 1 8.729-.534c-5.318 2.5-10.673 4.479-15.934 6.557-2.63 1.01-5.26 2.02-7.814 3.088a61.588 61.588 0 0 0-7.3 3.469l-2.154 1.239-1.41-1.906a80.58 80.58 0 0 0-8.177-9.111c-1.468-1.468-3.011-2.9-4.574-4.346z" class="cls-2" data-name="Path 740" transform="translate(113.028 -5.071)"/>
            <path id="Path_741" d="M273.27 193.34a32.037 32.037 0 0 1 8.138 3.812 30.837 30.837 0 0 1 6.9 6.118l-2.459-.457a29.531 29.531 0 0 1 5.718-2.706 57.963 57.963 0 0 1 5.813-1.734 52.434 52.434 0 0 1 11.95-1.449c-3.659 1.753-7.357 3.088-11 4.536-1.906.667-3.64 1.41-5.413 2.154a40.884 40.884 0 0 0-5.028 2.386l-1.468.839-.991-1.277c-.858-1.086-1.7-2.192-2.668-3.221s-1.906-2.1-2.973-3.069c-2.116-1.929-4.289-3.893-6.519-5.932z" class="cls-2" data-name="Path 741" transform="translate(177.505 17.479)"/>
        </g>
        <g id="Objects" transform="translate(80.37 83.832)">
            <path id="Path_742" d="M337.249 199.7c-2.992 4.327-6.042 8.158-9.206 12.084s-6.537 7.624-9.949 11.283-6.976 7.262-10.692 10.673a272.515 272.515 0 0 1-5.718 5.051c-.953.858-1.906 1.62-2.954 2.44s-1.811 1.525-3.259 2.554a43.343 43.343 0 0 1-7.51 4.174c-2.459 1.086-4.9 2.02-7.319 2.878-4.86 1.677-9.7 3.03-14.562 4.231s-9.7 2.173-14.581 3.107-9.72 1.658-14.7 2.23l-1.525-7.624c4.574-1.41 9.225-2.821 13.8-4.327s9.168-2.973 13.666-4.612 8.92-3.316 13.151-5.165c2.116-.934 4.174-1.906 6.1-2.935a35.7 35.7 0 0 0 5.089-3.24c.515-.4 1.544-1.372 2.363-2.116s1.734-1.563 2.554-2.4c1.677-1.639 3.374-3.24 5.013-4.936 3.3-3.354 6.5-6.842 9.625-10.368s6.194-7.2 9.168-10.883 5.928-7.51 8.634-11.112z" class="cls-5" data-name="Path 742" transform="translate(62.71 -68.763)"/>
            <path id="Path_743" d="M294.757 180.453c-10.483 1.22-20.527 26.321-20.527 26.321l25.635 17.154s24.072-15.248 17.02-29.6c-3.885-7.985-12.75-14.961-22.128-13.875z" class="cls-6" data-name="Path 743" transform="translate(97.997 -78.13)"/>
            <path id="Path_744" d="M242.757 224.777l-14.867-4.117 6.48 14.123s9.778.705 13.17-4.651z" class="cls-5" data-name="Path 744" transform="translate(56.015 -41.602)"/>
            <path id="Path_745" d="M183.75 145.535l7.224 8.6 13.323-2.1-6.48-14.1z" class="cls-5" data-name="Path 745" transform="translate(86.108 41.128)"/>
            <path id="Path_746" d="M243.693 331.284l-14.943-3.24 6.518-34.784 14.924 3.24z" class="cls-5" data-name="Path 746" transform="translate(126.876 181.851)"/>
            <path id="Path_747" d="M387.335 269.1l-9.072 12.293-31.373-17.04 9.053-12.293z" class="cls-5" data-name="Path 747" transform="translate(233.907 144.525)"/>
            <path id="Path_748" d="M401.6 356.809l10.178-13.818a1.22 1.22 0 0 1 1.563-.362l12.084 6.48a2.459 2.459 0 0 1 .743 3.583c-3.64 4.765-5.718 6.861-10.121 12.941-2.745 3.812-7.8 15.572-11.607 20.737s-9.111 1.658-7.986-.82a53.366 53.366 0 0 0 4.384-26.131 3.926 3.926 0 0 1 .762-2.61z" class="cls-7" data-name="Path 748" transform="translate(208.588 68.766)"/>
            <path id="Path_749" d="M281.754 393.31l16.772 3.64a1.2 1.2 0 0 1 .972 1.277l-.972 13.666a2.44 2.44 0 0 1-2.973 2.135c-5.832-1.353-8.558-2.306-15.934-3.812-4.536-.991-21.232-5.108-27.5-6.461s-5.26-7.624-2.516-7.624c12.236 0 24.777.1 29.447-2.363a4.078 4.078 0 0 1 2.706-.458z" class="cls-7" data-name="Path 749" transform="translate(73.739 114.755)"/>
            <path id="Path_750" d="M292.463 142.989c9.435-11.969 37.891-16.658 63.812 14.6 27.084 32.687 95.165-9.644 95.165-9.644l18.621 19.631s-56.531 20.108-79.879 11.224c0 0 54.568 9.435 82.338-.553 0 0 5.279 42.694-32.173 68.138s-198.201-39.508-147.884-103.396z" class="cls-7" data-name="Path 750" transform="translate(105.762 -120.24)"/>
            <path id="Path_751" d="M233.765 293.26l-3.355 17.94 14.924 3.24 3.354-17.935z" class="cls-8" data-name="Path 751" transform="translate(128.38 181.851)"/>
            <path id="Path_752" d="M355.962 252.06l-9.072 12.293 16.182 8.786 9.072-12.293z" class="cls-8" data-name="Path 752" transform="translate(233.907 144.525)"/>
            <path id="Path_753" d="M283.871 186.007s-6.919 3.431 18.393 90.629l61.582-7.49c-4.1-24.93-6-40.387-.286-93.278a182.973 182.973 0 0 0-26.569-.267 196.847 196.847 0 0 0-27.96 3.412c-11.876 2.553-25.16 6.994-25.16 6.994z" class="cls-6" data-name="Path 753" transform="translate(105.948 -82.75)"/>
            <path id="Path_754" d="M318.936 159.09c-.667 9.206-.419 25.921 6.614 31.143 0 0-1.353 9.435-18.069 11.436-18.374 2.23-9.892-8.062-9.892-8.062 9.739-3.621 8.577-11.036 5.966-17.8z" class="cls-5" data-name="Path 754" transform="translate(117.389 -97.383)"/>
            <path id="Path_755" d="M308.91 162.68l-9.11 9.892a30.815 30.815 0 0 1 1.468 4.86c3.812-1.01 8.52-5.87 8.424-9.93a13.514 13.514 0 0 0-.781-4.822z" class="cls-8" data-name="Path 755" transform="translate(121.163 -94.13)"/>
            <path id="Path_756" d="M329.261 157.3c.9 15.133 1.6 21.518-5.032 30.152-10.006 12.98-28.8 10.788-34.193-3.812-4.841-13-5.546-35.527 8.5-43.3a20.7 20.7 0 0 1 30.725 16.96z" class="cls-5" data-name="Path 756" transform="translate(109.466 -116.732)"/>
            <path id="Path_757" d="M300.53 144.42c6.347 14.6 12.961 21.728 26.283 23.1s.934-18.3.934-18.3z" class="cls-7" data-name="Path 757" transform="translate(121.824 -110.673)"/>
            <path id="Path_758" d="M290.013 141.742c-3.221 3.64 6.042 9.53 21.156 13.151s20.451.515 20.451.515-8.31-16.83-17.706-17.573-18.164-2.554-23.901 3.907z" class="cls-7" data-name="Path 758" transform="translate(111.718 -117.372)"/>
            <path id="Path_759" d="M316.113 157.485a11.036 11.036 0 0 1-3.145 7.853c-2.725 2.764-6 .8-6.861-2.783-.762-3.221-.267-8.558 3.259-9.968a4.975 4.975 0 0 1 6.747 4.9z" class="cls-5" data-name="Path 759" transform="translate(126.597 -103.573)"/>
            <path id="Path_760" d="M317.725 231.865s-27.636 89.98-36.537 135.7c-9.244 47.649-15.248 159.319-15.248 159.319l20.184 4.384s19.555-105.838 31.391-152.02c12.941-50.279 59.466-154.593 59.466-154.593z" class="cls-7" data-name="Path 760" transform="translate(90.487 -37.979)"/>
            <path id="Path_761" d="M306.707 241.19c-3.983 12.98-.4 36.957 2.154 50.241 5.032-12.732 10.121-25.121 14.752-36.213-6.138-12.518-13.742-24.339-16.906-14.028z" class="cls-9" data-name="Path 761" transform="translate(125.806 -26.567)"/>
            <path id="Path_762" d="M295.62 231.429s47.08 91.791 64.269 128.614c20.451 43.837 114.682 96.613 114.682 96.613l12.351-16.756s-77-56.645-88.761-91.181c-38.577-113.443-22.681-99.11-45.743-124.212z" class="cls-7" data-name="Path 762" transform="translate(117.376 -38.114)"/>
            <path id="Path_763" d="M451.056 437.382a.477.477 0 0 1-.286-.1c-17.478-13.342-75.266-58.932-85.425-88.8-16.372-48.107-22.872-73.17-26.836-88.151-4.593-17.592-5.432-20.775-13.99-30.5a.458.458 0 0 1 0-.667.477.477 0 0 1 .667 0c8.71 9.911 9.644 13.532 14.18 30.9 3.907 14.962 10.464 40.025 26.817 88.094 10.063 29.619 67.681 75.095 85.1 88.341a.476.476 0 0 1 .1.667.533.533 0 0 1-.324.21z" class="cls-10" data-name="Path 763" transform="translate(143.426 -34.012)"/>
            <path id="Path_764" d="M298.819 152.654c.152 1.239-.381 2.306-1.182 2.4s-1.563-.82-1.715-2.039.381-2.287 1.182-2.382 1.563.801 1.715 2.021z" class="cls-11" data-name="Path 764" transform="translate(117.626 -105.05)"/>
            <path id="Path_765" d="M291.569 153.553c.152 1.22-.381 2.287-1.182 2.382s-1.563-.82-1.715-2.039.381-2.287 1.182-2.382 1.563.819 1.715 2.039z" class="cls-11" data-name="Path 765" transform="translate(111.058 -104.253)"/>
            <path id="Path_766" d="M290.92 151.756l-3.05-.5s1.792 2.12 3.05.5z" class="cls-11" data-name="Path 766" transform="translate(110.355 -104.476)"/>
            <path id="Path_767" d="M293.852 153.45a32.684 32.684 0 0 1-3.412 8.329 5.28 5.28 0 0 0 4.46.286z" class="cls-12" data-name="Path 767" transform="translate(112.683 -102.492)"/>
            <path id="Path_768" d="M295.486 162.914a.354.354 0 0 1-.038-.705 9.759 9.759 0 0 0 7.433-4.765.362.362 0 0 1 .5-.152.343.343 0 0 1 .152.476 10.2 10.2 0 0 1-7.986 5.146z" class="cls-11" data-name="Path 768" transform="translate(116.939 -99.052)"/>
            <path id="Path_769" d="M302.285 150.779a.82.82 0 0 1-.553-.172 5.718 5.718 0 0 0-4.879-1.906.705.705 0 0 1-.858-.572.724.724 0 0 1 .572-.839 7.128 7.128 0 0 1 6.213 2.249.724.724 0 0 1 0 1.029.705.705 0 0 1-.495.211z" class="cls-11" data-name="Path 769" transform="translate(117.705 -108.131)"/>
            <path id="Path_770" d="M286.772 152.007a.725.725 0 0 1-.324 0 .743.743 0 0 1-.324-.972 7.2 7.2 0 0 1 5.26-4 .724.724 0 0 1 .8.648.705.705 0 0 1-.629.781 5.718 5.718 0 0 0-4.136 3.221.724.724 0 0 1-.647.322z" class="cls-11" data-name="Path 770" transform="translate(108.708 -108.311)"/>
            <path id="Path_771" d="M337.687 183.3c2.726 3.812 4.956 7.471 7.262 11.3s4.384 7.624 6.423 11.626a168.633 168.633 0 0 1 10.428 24.78c.648 2.173 1.372 4.307 1.906 6.537l.858 3.316a14.847 14.847 0 0 1 .21 6.252 11.568 11.568 0 0 1-1.658 3.945 11.036 11.036 0 0 1-2.973 2.916 13.913 13.913 0 0 1-5.718 2.1 27.674 27.674 0 0 1-8.215-.153 71.472 71.472 0 0 1-13.342-3.6c-2.116-.762-4.174-1.582-6.214-2.5s-4-1.773-6.042-2.84l2.725-7.243c4.022.915 8.215 1.773 12.255 2.478a83.1 83.1 0 0 0 11.817 1.334 17 17 0 0 0 4.593-.419c.457-.133.705-.362.324-.21a2.764 2.764 0 0 0-1.2 1.62c-.133.457 0 .438-.267-.133l-.915-2.859c-.553-1.906-1.334-3.812-2.02-5.718s-1.506-3.812-2.268-5.718-1.62-3.812-2.535-5.6c-1.715-3.717-3.583-7.414-5.546-11.055s-4.06-7.224-6.175-10.807-4.384-7.147-6.537-10.387z" class="cls-5" data-name="Path 771" transform="translate(140.016 -75.449)"/>
            <path id="Path_772" d="M331.639 208.346L330 204.534c.1 0 9.625-4.212 15.743-7.624l2 3.6c-6.307 3.566-15.704 7.664-16.104 7.836z" class="cls-7" data-name="Path 772" transform="translate(148.523 -63.119)"/>
            <path id="Path_773" d="M332.351 175.627c6.4 1.125 16.391 21.461 16.391 21.461L326.9 217.12s-10.9-16.677-9.282-24.968c1.696-8.634 7.433-17.802 14.733-16.525z" class="cls-6" data-name="Path 773" transform="translate(137.156 -82.509)"/>
            <path id="Path_774" d="M398.078 357.013a2.249 2.249 0 0 1-1.563-.724 1.277 1.277 0 0 1-.4-1.239c.4-1.906 5.222-3.812 6.194-4.117a.419.419 0 0 1 .534.553c-.8 1.906-2.44 5.089-4.365 5.489zm3.564-4.917c-2 .839-4.5 2.173-4.708 3.126a.515.515 0 0 0 .172.477 1.3 1.3 0 0 0 1.2.438c.994-.192 2.212-1.678 3.336-4.037z" class="cls-6" data-name="Path 774" transform="translate(208.392 76.396)"/>
            <path id="Path_775" d="M399.446 353.343a5.127 5.127 0 0 1-3.488-.934 1.334 1.334 0 0 1-.1-1.639 1.906 1.906 0 0 1 1.334-.972c2.211-.476 5.718 2.135 5.928 2.249a.458.458 0 0 1 .172.381.439.439 0 0 1-.248.343 10.446 10.446 0 0 1-3.598.572zm-1.658-2.764a1.487 1.487 0 0 0-.419 0 1.181 1.181 0 0 0-.781.553.646.646 0 0 0 0 .686c.667.724 3.564.82 5.337.4a9.34 9.34 0 0 0-4.136-1.639z" class="cls-6" data-name="Path 775" transform="translate(207.977 75.339)"/>
            <path id="Path_776" d="M268.867 396.682c-2.535 0-6.976-.381-8.291-2.211a2.039 2.039 0 0 1-.267-1.906 1.22 1.22 0 0 1 .839-.858c2.077-.61 7.4 3.812 7.986 4.231a.415.415 0 0 1-.267.743zm-7.224-4.193a.646.646 0 0 0-.267 0 .343.343 0 0 0-.267.286 1.182 1.182 0 0 0 .152 1.162c.705.991 3.03 1.639 6.347 1.906a15.667 15.667 0 0 0-5.87-3.354z" class="cls-6" data-name="Path 776" transform="translate(85.272 113.308)"/>
            <path id="Path_777" d="M266.717 397.921a.381.381 0 0 1-.248 0c-1.658-1.239-4.479-5.184-3.812-6.881.133-.324.515-.858 1.62-.743a2.668 2.668 0 0 1 1.906 1.067c1.563 1.906 1.029 6.1 1.01 6.271a.457.457 0 0 1-.248.343zm-2.764-6.88c-.419 0-.476.172-.515.248-.362.934 1.391 3.812 2.935 5.356a8.31 8.31 0 0 0-.9-4.841 1.906 1.906 0 0 0-1.3-.743z" class="cls-6" data-name="Path 777" transform="translate(87.422 112.069)"/>
            <path id="Path_778" d="M330.408 218.125L315.16 208.1l2.116 15.381s9.149 3.526 13.952-.629z" class="cls-5" data-name="Path 778" transform="translate(135.078 -52.981)"/>
            <path id="Path_779" d="M271.74 126.647l2.459 12.789 12.427 1.315-2.116-15.381z" class="cls-5" data-name="Path 779" transform="translate(165.824 29.749)"/>
            <path id="Path_780" d="M298.161 150.876l-3.03-.5s1.769 2.124 3.03.5z" class="cls-11" data-name="Path 780" transform="translate(116.932 -105.273)"/>
            <path id="Path_781" d="M288.163 183.273c4.708-1.391 10.673-3.03 16.315-4.25a197.193 197.193 0 0 1 27.96-3.412c5.337-.4 10.654-.438 15.1-.324.4 3.031-34.593 24.778-34.593 24.778s-27.031-12.58-24.782-16.792z" class="cls-5" data-name="Path 781" transform="translate(110.5 -82.76)"/>
            <path id="Path_782" d="M356.273 222.75l3.45 5.165c.267.4-.191.9-.9.991l-64.593 7.853c-.553 0-1.048-.133-1.125-.5l-1.22-5.432c0-.381.362-.762.972-.839l62.344-7.624a1.124 1.124 0 0 1 1.067.381z" class="cls-6" data-name="Path 782" transform="translate(113.997 -40.071)"/>
            <path id="Path_783" d="M322.839 230.567l1.677-.21c.324 0 .553-.229.515-.438l-1.658-7.071c0-.21-.362-.343-.686-.3l-1.677.21c-.343 0-.572.248-.515.438l1.658 7.071c.037.205.361.338.686.3z" class="cls-7" data-name="Path 783" transform="translate(139.903 -39.902)"/>
            <path id="Path_784" d="M296.736 233.747l1.677-.21c.343 0 .572-.248.515-.457l-1.658-7.052c0-.21-.362-.343-.686-.3l-1.677.191c-.324 0-.553.248-.515.457l1.658 7.071a.521.521 0 0 0 .686.3z" class="cls-7" data-name="Path 784" transform="translate(116.26 -37.021)"/>
            <path id="Path_785" d="M309.786 232.157l1.677-.21c.324 0 .572-.248.515-.438l-1.658-7.071c0-.21-.362-.343-.686-.3l-1.677.21c-.324 0-.553.229-.515.438l1.658 7.071c.038.205.362.343.686.3z" class="cls-7" data-name="Path 785" transform="translate(128.082 -38.462)"/>
            <path id="Path_786" d="M232.532 274.409l-6.995 13.208-34.117-9.549 6.995-13.208z" class="cls-5" data-name="Path 786" transform="translate(93.057 156.121)"/>
            <path id="Path_787" d="M244.1 369.643l.858-16.772a1.315 1.315 0 0 1 1.086-1.22l13.342-2.268a2.211 2.211 0 0 1 2.554 2.325c-.4 5.851-.9 8.672-1.277 16.048-.229 4.536-.572 20.489-.9 26.683s-6.557 6.766-6.995 4.174c-1.906-11.626-4.822-22.719-7.948-26.569a3.659 3.659 0 0 1-.724-2.4z" class="cls-7" data-name="Path 787" transform="translate(70.698 74.991)"/>
            <path id="Path_788" d="M162.4 190.535c-2.363 9.015-5.089 17.592-8.215 26.264a202.6 202.6 0 0 1-11.264 25.788 74.053 74.053 0 0 1-3.945 6.576c-.343.553-.781 1.144-1.182 1.7a22.133 22.133 0 0 1-1.715 2.173 20.735 20.735 0 0 1-4.975 4.06 23.5 23.5 0 0 1-10.731 2.992 32.856 32.856 0 0 1-8.9-.858 57.176 57.176 0 0 1-14.295-5.508 65.406 65.406 0 0 1-6.232-3.7 69.449 69.449 0 0 1-5.908-4.25l5.718-9.682c7.8 2.668 16.41 5.165 23.405 5.451a18.012 18.012 0 0 0 4.441-.343c1.182-.267 1.906-.724 1.906-.991a.724.724 0 0 0 0-.324l.248-.515c.248-.515.438-.686.648-1.105.858-1.544 1.715-3.335 2.516-5.146a248.552 248.552 0 0 0 8.825-23.786c2.706-8.2 5.3-16.677 7.757-24.778z" class="cls-5" data-name="Path 788" transform="translate(-73.402 -74.317)"/>
            <path id="Path_789" d="M149.61 186.251c6.614 12.675-13.971 54.854-13.971 54.854L104 228.64a182.476 182.476 0 0 1 12.941-36.823c8.596-16.906 25.426-19.403 32.669-5.566z" class="cls-13" data-name="Path 789" transform="translate(-56.225 -80.878)"/>
            <path id="Path_790" d="M140.5 183.171c-6.137-2.058-12.389 1.048-17.611 12.808s-8.272 30.724-8.119 36l11.112 4.4s19.024-38.933 14.618-53.208z" class="cls-14" data-name="Path 790" transform="translate(-46.47 -76.101)"/>
            <path id="Path_791" d="M99.111 221.97l-2.211-9.854a9.13 9.13 0 0 0-11.436-6.766 9.149 9.149 0 0 0-3.64 15.438 44.675 44.675 0 0 0 8.367 6.385z" class="cls-5" data-name="Path 791" transform="translate(-78.934 -55.797)"/>
            <path id="Path_792" d="M198.425 264.86l-6.995 13.208 17.57 4.918 4.651-13.875z" class="cls-8" data-name="Path 792" transform="translate(93.066 156.121)"/>
            <path id="Path_793" d="M119.289 183.2s-12.065 46.925 14.695 128.348l79.364-9.53c-.934-12.255-15.8-70.749-11.016-129.605a211.415 211.415 0 0 0-26.988-.133 296 296 0 0 0-33.736 4.1 152.187 152.187 0 0 0-22.319 6.823z" class="cls-13" data-name="Path 793" transform="translate(-44.831 -85.77)"/>
            <path id="Path_794" d="M153.462 185.68c-.172 9.53 5.565 31.849 17.725 56.874a379.279 379.279 0 0 1-2.611-67.3v-.114c-5.299.095-14.924 1.525-15.114 10.54z" class="cls-14" data-name="Path 794" transform="translate(-11.418 -82.842)"/>
            <path id="Path_795" d="M155.538 152.35c-.82 11.112-.515 31.258 7.948 37.566l-22.624 14.5-11.112-10.402c11.76-4.346 10.349-13.342 7.224-21.48z" class="cls-5" data-name="Path 795" transform="translate(-32.896 -103.489)"/>
            <path id="Path_796" d="M144.528 156.67l-10.978 11.95a35.353 35.353 0 0 1 1.753 5.851c4.555-1.22 10.292-7.071 10.178-11.969a16.1 16.1 0 0 0-.953-5.832z" class="cls-8" data-name="Path 796" transform="translate(-29.454 -99.575)"/>
            <path id="Path_797" d="M125.171 135.194c-10.578 6.08-3.011 30.877 2.287 32.783 9.835 3.564 10.826-40.312-2.287-32.783z" class="cls-11" data-name="Path 797" transform="translate(-41.868 -119.82)"/>
            <path id="Path_798" d="M162.638 152.851c.877 14.809 2.154 23.443-4.365 31.887-9.778 12.694-28.742 8.177-34.04-6.08-4.746-12.808-5.394-34.879 8.272-42.484a20.241 20.241 0 0 1 30.133 16.677z" class="cls-5" data-name="Path 798" transform="translate(-40.682 -120.495)"/>
            <path id="Path_799" d="M174.642 146.09c1.41 8.6-5.546 32.8-11.779 32.992s-9.682-12.98-8.043-25.483c1.22-9.377-5.928-4.727-16.868-2.421-13.208 2.764-27.1-9.53-11.645-19.574 0 0-2.306 7.09 4.307 3.7s13.132-10.216 30.743-8.234c0 0-6.1 4.46 4.975 4.193s18.64 8.5 18.64 8.5c-2.287.495-7.853 2.744-10.33 6.327z" class="cls-11" data-name="Path 799" transform="translate(-42.185 -126.714)"/>
            <path id="Path_800" d="M154.312 156.209a14.066 14.066 0 0 1-7.967 7.243c-4.67 1.639-7.319-2.459-6.29-7.033.934-4.117 4.479-9.911 9.282-9.53a6.328 6.328 0 0 1 4.975 9.32z" class="cls-5" data-name="Path 800" transform="translate(-23.76 -108.453)"/>
            <path id="Path_801" d="M121.269 298.65l17.611 29.85-13.189 7.033L108.08 305.7l13.189-7.052" class="cls-5" data-name="Path 801" transform="translate(17.554 186.734)"/>
            <path id="Path_802" d="M166.052 403.612l14.409-7.624a1.277 1.277 0 0 1 1.6.286l9.53 11.436a2.173 2.173 0 0 1-.648 3.355c-5.241 2.687-12.884 6.194-19.422 9.682-7.624 4.06-12.522 10.006-24.168 10.006-6.137 0-8.863-4.917-6.366-5.718 14.047-4.593 16.544-8.386 22.529-18.64a6.918 6.918 0 0 1 2.535-2.783z" class="cls-7" data-name="Path 802" transform="translate(-23.55 117.089)"/>
            <path id="Path_803" d="M121.279 298.65l-13.189 7.05 9.072 15.381 13.189-7.052-9.072-15.381" class="cls-8" data-name="Path 803" transform="translate(17.563 186.734)"/>
            <path id="Path_804" d="M150.93 405.248a3.013 3.013 0 0 1-.61 0 2.039 2.039 0 0 1-1.449-1.258 1.2 1.2 0 0 1 0-1.163c1.125-1.734 7.433-1.906 8.672-1.906a.362.362 0 0 1 .4.286.381.381 0 0 1-.114.457c-1.658 1.316-4.765 3.584-6.899 3.584zm5.432-3.526c-2.687.133-6.118.61-6.709 1.506a.343.343 0 0 0 0 .381 1.182 1.182 0 0 0 .858.762c1.144.286 3.3-.705 5.851-2.649z" class="cls-6" data-name="Path 804" transform="translate(-15.709 121.705)"/>
            <path id="Path_805" d="M156.549 403.589c-2.192 0-6.385-1.125-6.919-2.725-.114-.324-.172-.972.724-1.563a2.611 2.611 0 0 1 2.058-.4c2.44.5 4.708 3.812 4.8 4.022a.439.439 0 0 1-.362.648zm-4.708-3.907a1.906 1.906 0 0 0-1.029.324c-.476.324-.419.534-.381.591.3.934 3.469 1.906 5.6 2.135a8.157 8.157 0 0 0-3.812-3.011z" class="cls-6" data-name="Path 805" transform="translate(-14.943 119.819)"/>
            <path id="Path_806" d="M135.888 249.519S108.633 352 115.742 397.04c7.4 46.868 59.085 134.1 59.085 134.1l22.338-11.931S171.4 447.72 162.324 402.034c-5.947-29.885 48.964-161.664 48.964-161.664z" class="cls-6" data-name="Path 806" transform="translate(-46.658 -23.746)"/>
            <path id="Path_807" d="M138.1 307.7l-27.312 14.581-5.642-9.454 28.913-14.5z" class="cls-13" data-name="Path 807" transform="translate(14.899 186.435)"/>
            <path id="Path_808" d="M142 263.167c-5.013 13.742 4.631 44.619 9.8 66.575 6.766-21.137 14.962-43.418 21.785-61.258l1.258-19.917s-27.129-1.067-32.843 14.6z" class="cls-15" data-name="Path 808" transform="translate(-23.072 -16.333)"/>
            <path id="Path_809" d="M133.55 247.954s52.662 122.8 74.942 162.007c23.729 41.683 116.721 57.732 116.721 57.732l7.967-24.3s-66.5-20.527-88.551-61.829c-22.548-42.179-46.582-141.441-46.582-141.441z" class="cls-6" data-name="Path 809" transform="translate(-29.454 -23.972)"/>
            <path id="Path_810" d="M203.275 295.157l10.483-31.906-10.483-2.611-13.875 31.372z" class="cls-13" data-name="Path 810" transform="translate(91.227 152.298)"/>
            <path id="Path_811" d="M132.842 148.225c.152 1.2-.362 2.249-1.144 2.344s-1.544-.8-1.7-2 .381-2.249 1.163-2.344 1.548.799 1.681 2z" class="cls-11" data-name="Path 811" transform="translate(-32.691 -109.046)"/>
            <path id="Path_812" d="M125.731 149.085c.153 1.2-.362 2.249-1.144 2.344s-1.544-.8-1.677-2 .362-2.249 1.144-2.344 1.546.799 1.677 2z" class="cls-11" data-name="Path 812" transform="translate(-39.112 -108.266)"/>
            <path id="Path_813" d="M128.809 148.17a42.96 42.96 0 0 1-4.479 10.921 6.9 6.9 0 0 0 5.851.381z" class="cls-12" data-name="Path 813" transform="translate(-37.807 -107.276)"/>
            <path id="Path_814" d="M129.593 158.242a.362.362 0 0 1-.362-.324.343.343 0 0 1 .305-.381 9.53 9.53 0 0 0 7.281-4.651.362.362 0 0 1 .648.3 10.083 10.083 0 0 1-7.834 5.032z" class="cls-11" data-name="Path 814" transform="translate(-33.369 -103.148)"/>
            <path id="Path_815" d="M136.223 146.362a.667.667 0 0 1-.515-.21 5.566 5.566 0 0 0-4.784-1.792.743.743 0 0 1-.839-.572.705.705 0 0 1 .572-.82 6.976 6.976 0 0 1 6.061 2.192.724.724 0 0 1 0 1.01.743.743 0 0 1-.495.192z" class="cls-11" data-name="Path 815" transform="translate(-32.603 -112.043)"/>
            <path id="Path_816" d="M121.279 148.679a.573.573 0 0 1-.248 0 .686.686 0 0 1-.419-.9 7.033 7.033 0 0 1 4.555-4.574.724.724 0 0 1 .858.515.705.705 0 0 1-.515.858 5.718 5.718 0 0 0-3.564 3.659.705.705 0 0 1-.667.442z" class="cls-11" data-name="Path 816" transform="translate(-41.217 -111.787)"/>
            <path id="Path_817" d="M162.478 175.1c10.235 2.687 20.26 5.718 30.286 9.015 5.013 1.677 10.025 3.412 15.038 5.337a159.669 159.669 0 0 1 15.343 6.557c.705.362 1.3.629 2.077 1.067s1.582.9 2.23 1.334 1.391.915 2 1.353 1.258.915 1.906 1.372c2.363 1.906 4.479 3.7 6.518 5.565 4.1 3.812 7.8 7.624 11.436 11.588a276.878 276.878 0 0 1 20.032 24.777l-8.31 7.624c-7.853-6.671-15.743-13.437-23.577-19.917-3.812-3.259-7.891-6.366-11.779-9.3a78.429 78.429 0 0 0-5.813-4 45.795 45.795 0 0 0-2.687-1.582c-.438-.248-.8-.381-1.163-.553l-1.468-.591c-4.1-1.639-8.977-3.2-13.742-4.727l-14.657-4.384-29.6-8.615z" class="cls-5" data-name="Path 817" transform="translate(-8.616 -82.878)"/>
            <path id="Path_818" d="M159.2 173.567c14.562-7.624 51.633 13.894 51.633 13.894l-7.776 32.573s-22.109-.724-38.977-8.291c-17.726-7.909-18.431-31.01-4.88-38.176z" class="cls-13" data-name="Path 818" transform="translate(-14.716 -85.748)"/>
            <path id="Path_819" d="M244.711 368.24h-.343a1.2 1.2 0 0 1-1.029-.705c-.762-1.7 2.211-6.08 2.821-6.938a.381.381 0 0 1 .419-.172.4.4 0 0 1 .343.324c.343 1.906.762 5.375-.591 6.823a2.116 2.116 0 0 1-1.62.667zm1.544-6.309c-1.239 1.906-2.516 4.441-2.154 5.241a.552.552 0 0 0 .362.21 1.391 1.391 0 0 0 1.239-.4 6.881 6.881 0 0 0 .629-5.051z" class="cls-6" data-name="Path 819" transform="translate(69.899 85.009)"/>
            <path id="Path_820" d="M242.779 365.05h-.343a1.239 1.239 0 0 1-.934-1.239 2 2 0 0 1 .553-1.525c1.525-1.7 5.889-1.906 6.061-1.906a.438.438 0 0 1 .381.21.457.457 0 0 1 0 .438c-.877 1.449-3.945 4.022-5.718 4.022zm4.46-3.812a8.425 8.425 0 0 0-4.555 1.487 1.219 1.219 0 0 0-.343.915c0 .419.21.457.286.477.915.324 3.355-1.372 4.612-2.8z" class="cls-6" data-name="Path 820" transform="translate(68.343 84.979)"/>
            <path id="Path_821" d="M210.08 217.315l2.592 13.208 13.037-9.32s-2.611-13.342-9.339-11.169z" class="cls-5" data-name="Path 821" transform="translate(39.88 -51.446)"/>
            <path id="Path_822" d="M187.5 150.842l11.912-3.6-11.7-14.2-13.037 9.339z" class="cls-5" data-name="Path 822" transform="translate(77.882 36.697)"/>
            <path id="Path_823" d="M228.194 223a65.124 65.124 0 0 0-10.1 1.773s-.267 1.62 2.783 2.421 12.027 1.715 12.027 1.715z" class="cls-5" data-name="Path 823" transform="translate(47.134 -39.482)"/>
        </g>
    </g>
</svg>
